<svg xmlns="http://www.w3.org/2000/svg" xmlns:xlink="http://www.w3.org/1999/xlink" width="200" zoomAndPan="magnify" viewBox="0 0 375 374.999991" height="500" preserveAspectRatio="xMidYMid meet" version="1.0"><defs><g/></defs><g fill="#000000" fill-opacity="1"><g transform="translate(106.835323, 198.374987)"><g><path d="M 12.03125 -22.40625 C 14.882812 -22.40625 17.125 -21.71875 18.75 -20.34375 C 20.375 -18.976562 21.1875 -17.101562 21.1875 -14.71875 C 21.1875 -12.332031 20.375 -10.460938 18.75 -9.109375 C 17.125 -7.753906 14.882812 -7.078125 12.03125 -7.078125 L 6.015625 -7.078125 L 6.015625 0 L 3.640625 0 L 3.640625 -22.40625 Z M 11.96875 -9.15625 C 14.1875 -9.15625 15.878906 -9.640625 17.046875 -10.609375 C 18.222656 -11.578125 18.8125 -12.945312 18.8125 -14.71875 C 18.8125 -16.53125 18.222656 -17.921875 17.046875 -18.890625 C 15.878906 -19.867188 14.1875 -20.359375 11.96875 -20.359375 L 6.015625 -20.359375 L 6.015625 -9.15625 Z M 11.96875 -9.15625 "/></g></g></g><g fill="#000000" fill-opacity="1"><g transform="translate(129.805673, 198.374987)"><g><path d="M 3.640625 -22.40625 L 6.015625 -22.40625 L 6.015625 -2.046875 L 18.5625 -2.046875 L 18.5625 0 L 3.640625 0 Z M 3.640625 -22.40625 "/></g></g></g><g fill="#000000" fill-opacity="1"><g transform="translate(148.649044, 198.374987)"><g><path d="M 17.703125 -5.984375 L 5.21875 -5.984375 L 2.53125 0 L 0.0625 0 L 10.296875 -22.40625 L 12.640625 -22.40625 L 22.875 0 L 20.390625 0 Z M 16.828125 -7.90625 L 11.453125 -19.9375 L 6.078125 -7.90625 Z M 16.828125 -7.90625 "/></g></g></g><g fill="#000000" fill-opacity="1"><g transform="translate(171.587408, 198.374987)"><g><path d="M 22.375 -22.40625 L 22.375 0 L 20.421875 0 L 6.015625 -18.171875 L 6.015625 0 L 3.640625 0 L 3.640625 -22.40625 L 5.59375 -22.40625 L 20.03125 -4.21875 L 20.03125 -22.40625 Z M 22.375 -22.40625 "/></g></g></g><g fill="#000000" fill-opacity="1"><g transform="translate(197.597012, 198.374987)"><g><path d="M 22.375 -22.40625 L 22.375 0 L 20.421875 0 L 6.015625 -18.171875 L 6.015625 0 L 3.640625 0 L 3.640625 -22.40625 L 5.59375 -22.40625 L 20.03125 -4.21875 L 20.03125 -22.40625 Z M 22.375 -22.40625 "/></g></g></g><g fill="#000000" fill-opacity="1"><g transform="translate(223.606616, 198.374987)"><g><path d="M 19.484375 -2.046875 L 19.484375 0 L 3.640625 0 L 3.640625 -22.40625 L 19.015625 -22.40625 L 19.015625 -20.359375 L 6.015625 -20.359375 L 6.015625 -12.390625 L 17.59375 -12.390625 L 17.59375 -10.375 L 6.015625 -10.375 L 6.015625 -2.046875 Z M 19.484375 -2.046875 "/></g></g></g><g fill="#000000" fill-opacity="1"><g transform="translate(245.009355, 198.374987)"><g><path d="M 18.9375 0 L 13.828125 -7.203125 C 13.242188 -7.140625 12.644531 -7.109375 12.03125 -7.109375 L 6.015625 -7.109375 L 6.015625 0 L 3.640625 0 L 3.640625 -22.40625 L 12.03125 -22.40625 C 14.882812 -22.40625 17.125 -21.71875 18.75 -20.34375 C 20.375 -18.976562 21.1875 -17.101562 21.1875 -14.71875 C 21.1875 -12.96875 20.742188 -11.488281 19.859375 -10.28125 C 18.972656 -9.082031 17.707031 -8.21875 16.0625 -7.6875 L 21.53125 0 Z M 11.96875 -9.125 C 14.1875 -9.125 15.878906 -9.613281 17.046875 -10.59375 C 18.222656 -11.570312 18.8125 -12.945312 18.8125 -14.71875 C 18.8125 -16.53125 18.222656 -17.921875 17.046875 -18.890625 C 15.878906 -19.867188 14.1875 -20.359375 11.96875 -20.359375 L 6.015625 -20.359375 L 6.015625 -9.125 Z M 11.96875 -9.125 "/></g></g></g><g fill="#000000" fill-opacity="1"><g transform="translate(268.143906, 198.374987)"><g/></g></g><g fill="#000000" fill-opacity="1"><g transform="translate(102.308424, 217.849971)"><g><path d="M 0.21875 0 L 0.21875 -0.234375 L 0.421875 -0.234375 C 0.703125 -0.234375 0.875 -0.253906 0.9375 -0.296875 C 1.007812 -0.347656 1.046875 -0.453125 1.046875 -0.609375 L 1.046875 -4.65625 C 1.046875 -4.800781 1.007812 -4.894531 0.9375 -4.9375 C 0.875 -4.988281 0.703125 -5.015625 0.421875 -5.015625 L 0.21875 -5.015625 L 0.21875 -5.265625 C 0.394531 -5.242188 0.785156 -5.234375 1.390625 -5.234375 C 1.992188 -5.234375 2.382812 -5.242188 2.5625 -5.265625 L 2.5625 -5.015625 L 2.359375 -5.015625 C 2.078125 -5.015625 1.898438 -4.988281 1.828125 -4.9375 C 1.765625 -4.894531 1.734375 -4.800781 1.734375 -4.65625 L 1.734375 -0.609375 C 1.734375 -0.453125 1.765625 -0.347656 1.828125 -0.296875 C 1.898438 -0.253906 2.078125 -0.234375 2.359375 -0.234375 L 2.5625 -0.234375 L 2.5625 0 C 2.382812 -0.0078125 1.992188 -0.015625 1.390625 -0.015625 C 0.785156 -0.015625 0.394531 -0.0078125 0.21875 0 Z M 0.21875 0 "/></g></g></g><g fill="#000000" fill-opacity="1"><g transform="translate(109.327027, 217.849971)"><g><path d="M 0.25 0 L 0.25 -0.234375 C 0.4375 -0.234375 0.585938 -0.25 0.703125 -0.28125 C 0.828125 -0.320312 0.910156 -0.375 0.953125 -0.4375 C 0.992188 -0.507812 1.019531 -0.566406 1.03125 -0.609375 C 1.039062 -0.660156 1.046875 -0.726562 1.046875 -0.8125 L 1.046875 -4.828125 C 1.046875 -4.898438 1.035156 -4.941406 1.015625 -4.953125 C 1.003906 -4.972656 0.953125 -4.988281 0.859375 -5 C 0.703125 -5.007812 0.578125 -5.015625 0.484375 -5.015625 L 0.25 -5.015625 L 0.25 -5.265625 L 1.5625 -5.265625 C 1.632812 -5.265625 1.679688 -5.257812 1.703125 -5.25 C 1.722656 -5.238281 1.75 -5.207031 1.78125 -5.15625 L 4.5 -1.15625 L 4.5 -4.453125 C 4.5 -4.523438 4.492188 -4.582031 4.484375 -4.625 C 4.472656 -4.675781 4.445312 -4.738281 4.40625 -4.8125 C 4.363281 -4.882812 4.28125 -4.9375 4.15625 -4.96875 C 4.039062 -5 3.894531 -5.015625 3.71875 -5.015625 L 3.71875 -5.265625 C 4.25 -5.242188 4.546875 -5.234375 4.609375 -5.234375 C 4.671875 -5.234375 4.972656 -5.242188 5.515625 -5.265625 L 5.515625 -5.015625 C 5.328125 -5.015625 5.171875 -5 5.046875 -4.96875 C 4.929688 -4.9375 4.851562 -4.882812 4.8125 -4.8125 C 4.769531 -4.738281 4.742188 -4.675781 4.734375 -4.625 C 4.722656 -4.582031 4.71875 -4.523438 4.71875 -4.453125 L 4.71875 -0.203125 C 4.71875 -0.117188 4.710938 -0.0625 4.703125 -0.03125 C 4.691406 -0.0078125 4.660156 0 4.609375 0 C 4.578125 0 4.535156 -0.03125 4.484375 -0.09375 L 1.34375 -4.71875 C 1.320312 -4.75 1.296875 -4.78125 1.265625 -4.8125 L 1.265625 -0.8125 C 1.265625 -0.726562 1.269531 -0.660156 1.28125 -0.609375 C 1.289062 -0.566406 1.316406 -0.507812 1.359375 -0.4375 C 1.398438 -0.375 1.476562 -0.320312 1.59375 -0.28125 C 1.71875 -0.25 1.875 -0.234375 2.0625 -0.234375 L 2.0625 0 C 1.519531 -0.0078125 1.21875 -0.015625 1.15625 -0.015625 C 1.09375 -0.015625 0.789062 -0.0078125 0.25 0 Z M 0.25 0 "/></g></g></g><g fill="#000000" fill-opacity="1"><g transform="translate(119.344357, 217.849971)"><g><path d="M 0.4375 -0.015625 L 0.4375 -1.5625 C 0.4375 -1.613281 0.4375 -1.648438 0.4375 -1.671875 C 0.4375 -1.691406 0.441406 -1.707031 0.453125 -1.71875 C 0.472656 -1.738281 0.5 -1.75 0.53125 -1.75 C 0.582031 -1.75 0.613281 -1.722656 0.625 -1.671875 C 0.632812 -1.160156 0.796875 -0.765625 1.109375 -0.484375 C 1.398438 -0.203125 1.800781 -0.0625 2.3125 -0.0625 C 2.625 -0.0625 2.875 -0.171875 3.0625 -0.390625 C 3.25 -0.617188 3.34375 -0.878906 3.34375 -1.171875 C 3.34375 -1.453125 3.265625 -1.6875 3.109375 -1.875 C 3.046875 -1.96875 2.96875 -2.039062 2.875 -2.09375 C 2.789062 -2.15625 2.722656 -2.191406 2.671875 -2.203125 C 2.628906 -2.222656 2.554688 -2.242188 2.453125 -2.265625 C 1.816406 -2.421875 1.476562 -2.507812 1.4375 -2.53125 C 1.132812 -2.632812 0.890625 -2.8125 0.703125 -3.0625 C 0.523438 -3.320312 0.4375 -3.613281 0.4375 -3.9375 C 0.4375 -4.351562 0.578125 -4.707031 0.859375 -5 C 1.148438 -5.289062 1.507812 -5.4375 1.9375 -5.4375 C 2.144531 -5.4375 2.335938 -5.398438 2.515625 -5.328125 C 2.691406 -5.265625 2.816406 -5.203125 2.890625 -5.140625 C 2.960938 -5.078125 3.054688 -4.992188 3.171875 -4.890625 L 3.4375 -5.328125 C 3.476562 -5.398438 3.515625 -5.4375 3.546875 -5.4375 C 3.585938 -5.4375 3.613281 -5.421875 3.625 -5.390625 C 3.632812 -5.367188 3.640625 -5.320312 3.640625 -5.25 L 3.640625 -3.703125 C 3.640625 -3.640625 3.632812 -3.597656 3.625 -3.578125 C 3.625 -3.554688 3.613281 -3.539062 3.59375 -3.53125 C 3.582031 -3.519531 3.5625 -3.515625 3.53125 -3.515625 C 3.476562 -3.515625 3.445312 -3.546875 3.4375 -3.609375 C 3.300781 -4.679688 2.800781 -5.21875 1.9375 -5.21875 C 1.644531 -5.21875 1.398438 -5.117188 1.203125 -4.921875 C 1.015625 -4.722656 0.921875 -4.484375 0.921875 -4.203125 C 0.921875 -3.972656 0.988281 -3.765625 1.125 -3.578125 C 1.269531 -3.398438 1.460938 -3.285156 1.703125 -3.234375 L 2.6875 -2.984375 C 3.019531 -2.910156 3.296875 -2.726562 3.515625 -2.4375 C 3.734375 -2.144531 3.84375 -1.8125 3.84375 -1.4375 C 3.84375 -1 3.695312 -0.617188 3.40625 -0.296875 C 3.125 0.015625 2.765625 0.171875 2.328125 0.171875 C 2.003906 0.171875 1.71875 0.117188 1.46875 0.015625 C 1.226562 -0.0859375 1.039062 -0.21875 0.90625 -0.375 C 0.800781 -0.195312 0.71875 -0.0625 0.65625 0.03125 L 0.625 0.0625 C 0.59375 0.132812 0.554688 0.171875 0.515625 0.171875 C 0.472656 0.171875 0.445312 0.15625 0.4375 0.125 C 0.4375 0.101562 0.4375 0.0546875 0.4375 -0.015625 Z M 0.4375 -0.015625 "/></g></g></g><g fill="#000000" fill-opacity="1"><g transform="translate(127.856681, 217.849971)"><g><path d="M 0.28125 -3.484375 L 0.421875 -5.21875 L 5.125 -5.21875 L 5.28125 -3.484375 L 5.078125 -3.484375 C 5.066406 -3.710938 5.050781 -3.894531 5.03125 -4.03125 C 5.007812 -4.164062 4.972656 -4.296875 4.921875 -4.421875 C 4.878906 -4.546875 4.832031 -4.640625 4.78125 -4.703125 C 4.726562 -4.765625 4.648438 -4.816406 4.546875 -4.859375 C 4.441406 -4.910156 4.320312 -4.941406 4.1875 -4.953125 C 4.0625 -4.960938 3.898438 -4.96875 3.703125 -4.96875 C 3.460938 -4.96875 3.3125 -4.96875 3.25 -4.96875 C 3.1875 -4.945312 3.148438 -4.914062 3.140625 -4.875 C 3.128906 -4.832031 3.125 -4.765625 3.125 -4.671875 L 3.125 -0.609375 C 3.125 -0.503906 3.132812 -0.429688 3.15625 -0.390625 C 3.175781 -0.347656 3.242188 -0.3125 3.359375 -0.28125 C 3.472656 -0.25 3.660156 -0.234375 3.921875 -0.234375 L 4.234375 -0.234375 L 4.234375 0 C 4.023438 -0.0078125 3.535156 -0.015625 2.765625 -0.015625 C 2.003906 -0.015625 1.519531 -0.0078125 1.3125 0 L 1.3125 -0.234375 L 1.625 -0.234375 C 1.882812 -0.234375 2.070312 -0.25 2.1875 -0.28125 C 2.3125 -0.3125 2.382812 -0.347656 2.40625 -0.390625 C 2.425781 -0.429688 2.4375 -0.503906 2.4375 -0.609375 L 2.4375 -4.671875 C 2.4375 -4.742188 2.429688 -4.789062 2.421875 -4.8125 C 2.421875 -4.84375 2.40625 -4.875 2.375 -4.90625 C 2.351562 -4.9375 2.316406 -4.953125 2.265625 -4.953125 C 2.222656 -4.960938 2.085938 -4.96875 1.859375 -4.96875 C 1.660156 -4.96875 1.492188 -4.960938 1.359375 -4.953125 C 1.222656 -4.941406 1.101562 -4.910156 1 -4.859375 C 0.894531 -4.816406 0.816406 -4.765625 0.765625 -4.703125 C 0.710938 -4.640625 0.660156 -4.546875 0.609375 -4.421875 C 0.566406 -4.296875 0.535156 -4.164062 0.515625 -4.03125 C 0.503906 -3.894531 0.488281 -3.710938 0.46875 -3.484375 Z M 0.28125 -3.484375 "/></g></g></g><g fill="#000000" fill-opacity="1"><g transform="translate(137.655784, 217.849971)"><g><path d="M 0.21875 0 L 0.21875 -0.234375 L 0.421875 -0.234375 C 0.703125 -0.234375 0.875 -0.253906 0.9375 -0.296875 C 1.007812 -0.347656 1.046875 -0.453125 1.046875 -0.609375 L 1.046875 -4.65625 C 1.046875 -4.800781 1.007812 -4.894531 0.9375 -4.9375 C 0.875 -4.988281 0.703125 -5.015625 0.421875 -5.015625 L 0.21875 -5.015625 L 0.21875 -5.265625 C 0.394531 -5.242188 0.785156 -5.234375 1.390625 -5.234375 C 1.992188 -5.234375 2.382812 -5.242188 2.5625 -5.265625 L 2.5625 -5.015625 L 2.359375 -5.015625 C 2.078125 -5.015625 1.898438 -4.988281 1.828125 -4.9375 C 1.765625 -4.894531 1.734375 -4.800781 1.734375 -4.65625 L 1.734375 -0.609375 C 1.734375 -0.453125 1.765625 -0.347656 1.828125 -0.296875 C 1.898438 -0.253906 2.078125 -0.234375 2.359375 -0.234375 L 2.5625 -0.234375 L 2.5625 0 C 2.382812 -0.0078125 1.992188 -0.015625 1.390625 -0.015625 C 0.785156 -0.015625 0.394531 -0.0078125 0.21875 0 Z M 0.21875 0 "/></g></g></g><g fill="#000000" fill-opacity="1"><g transform="translate(144.674386, 217.849971)"><g><path d="M 0.28125 -3.484375 L 0.421875 -5.21875 L 5.125 -5.21875 L 5.28125 -3.484375 L 5.078125 -3.484375 C 5.066406 -3.710938 5.050781 -3.894531 5.03125 -4.03125 C 5.007812 -4.164062 4.972656 -4.296875 4.921875 -4.421875 C 4.878906 -4.546875 4.832031 -4.640625 4.78125 -4.703125 C 4.726562 -4.765625 4.648438 -4.816406 4.546875 -4.859375 C 4.441406 -4.910156 4.320312 -4.941406 4.1875 -4.953125 C 4.0625 -4.960938 3.898438 -4.96875 3.703125 -4.96875 C 3.460938 -4.96875 3.3125 -4.96875 3.25 -4.96875 C 3.1875 -4.945312 3.148438 -4.914062 3.140625 -4.875 C 3.128906 -4.832031 3.125 -4.765625 3.125 -4.671875 L 3.125 -0.609375 C 3.125 -0.503906 3.132812 -0.429688 3.15625 -0.390625 C 3.175781 -0.347656 3.242188 -0.3125 3.359375 -0.28125 C 3.472656 -0.25 3.660156 -0.234375 3.921875 -0.234375 L 4.234375 -0.234375 L 4.234375 0 C 4.023438 -0.0078125 3.535156 -0.015625 2.765625 -0.015625 C 2.003906 -0.015625 1.519531 -0.0078125 1.3125 0 L 1.3125 -0.234375 L 1.625 -0.234375 C 1.882812 -0.234375 2.070312 -0.25 2.1875 -0.28125 C 2.3125 -0.3125 2.382812 -0.347656 2.40625 -0.390625 C 2.425781 -0.429688 2.4375 -0.503906 2.4375 -0.609375 L 2.4375 -4.671875 C 2.4375 -4.742188 2.429688 -4.789062 2.421875 -4.8125 C 2.421875 -4.84375 2.40625 -4.875 2.375 -4.90625 C 2.351562 -4.9375 2.316406 -4.953125 2.265625 -4.953125 C 2.222656 -4.960938 2.085938 -4.96875 1.859375 -4.96875 C 1.660156 -4.96875 1.492188 -4.960938 1.359375 -4.953125 C 1.222656 -4.941406 1.101562 -4.910156 1 -4.859375 C 0.894531 -4.816406 0.816406 -4.765625 0.765625 -4.703125 C 0.710938 -4.640625 0.660156 -4.546875 0.609375 -4.421875 C 0.566406 -4.296875 0.535156 -4.164062 0.515625 -4.03125 C 0.503906 -3.894531 0.488281 -3.710938 0.46875 -3.484375 Z M 0.28125 -3.484375 "/></g></g></g><g fill="#000000" fill-opacity="1"><g transform="translate(154.473489, 217.849971)"><g><path d="M 0.25 -5.015625 L 0.25 -5.265625 C 0.4375 -5.242188 0.816406 -5.234375 1.390625 -5.234375 C 1.960938 -5.234375 2.34375 -5.242188 2.53125 -5.265625 L 2.53125 -5.015625 L 2.34375 -5.015625 C 2.0625 -5.015625 1.890625 -4.988281 1.828125 -4.9375 C 1.765625 -4.894531 1.734375 -4.800781 1.734375 -4.65625 L 1.734375 -1.71875 C 1.734375 -1.382812 1.78125 -1.097656 1.875 -0.859375 C 1.96875 -0.617188 2.085938 -0.445312 2.234375 -0.34375 C 2.390625 -0.238281 2.523438 -0.164062 2.640625 -0.125 C 2.765625 -0.0820312 2.882812 -0.0625 3 -0.0625 C 3.394531 -0.0625 3.738281 -0.21875 4.03125 -0.53125 C 4.332031 -0.84375 4.484375 -1.257812 4.484375 -1.78125 L 4.484375 -4.453125 C 4.484375 -4.523438 4.476562 -4.582031 4.46875 -4.625 C 4.457031 -4.675781 4.429688 -4.738281 4.390625 -4.8125 C 4.347656 -4.882812 4.265625 -4.9375 4.140625 -4.96875 C 4.023438 -5 3.875 -5.015625 3.6875 -5.015625 L 3.6875 -5.265625 C 4.238281 -5.242188 4.546875 -5.234375 4.609375 -5.234375 C 4.660156 -5.234375 4.960938 -5.242188 5.515625 -5.265625 L 5.515625 -5.015625 C 5.328125 -5.015625 5.171875 -5 5.046875 -4.96875 C 4.929688 -4.9375 4.851562 -4.882812 4.8125 -4.8125 C 4.769531 -4.738281 4.742188 -4.675781 4.734375 -4.625 C 4.722656 -4.570312 4.71875 -4.503906 4.71875 -4.421875 L 4.71875 -1.953125 C 4.71875 -1.703125 4.710938 -1.523438 4.703125 -1.421875 C 4.628906 -0.972656 4.429688 -0.59375 4.109375 -0.28125 C 3.796875 0.0195312 3.421875 0.171875 2.984375 0.171875 C 2.460938 0.171875 2.007812 -0.015625 1.625 -0.390625 C 1.238281 -0.765625 1.046875 -1.21875 1.046875 -1.75 L 1.046875 -4.65625 C 1.046875 -4.800781 1.015625 -4.894531 0.953125 -4.9375 C 0.890625 -4.988281 0.71875 -5.015625 0.4375 -5.015625 Z M 0.25 -5.015625 "/></g></g></g><g fill="#000000" fill-opacity="1"><g transform="translate(164.490818, 217.849971)"><g><path d="M 0.28125 -3.484375 L 0.421875 -5.21875 L 5.125 -5.21875 L 5.28125 -3.484375 L 5.078125 -3.484375 C 5.066406 -3.710938 5.050781 -3.894531 5.03125 -4.03125 C 5.007812 -4.164062 4.972656 -4.296875 4.921875 -4.421875 C 4.878906 -4.546875 4.832031 -4.640625 4.78125 -4.703125 C 4.726562 -4.765625 4.648438 -4.816406 4.546875 -4.859375 C 4.441406 -4.910156 4.320312 -4.941406 4.1875 -4.953125 C 4.0625 -4.960938 3.898438 -4.96875 3.703125 -4.96875 C 3.460938 -4.96875 3.3125 -4.96875 3.25 -4.96875 C 3.1875 -4.945312 3.148438 -4.914062 3.140625 -4.875 C 3.128906 -4.832031 3.125 -4.765625 3.125 -4.671875 L 3.125 -0.609375 C 3.125 -0.503906 3.132812 -0.429688 3.15625 -0.390625 C 3.175781 -0.347656 3.242188 -0.3125 3.359375 -0.28125 C 3.472656 -0.25 3.660156 -0.234375 3.921875 -0.234375 L 4.234375 -0.234375 L 4.234375 0 C 4.023438 -0.0078125 3.535156 -0.015625 2.765625 -0.015625 C 2.003906 -0.015625 1.519531 -0.0078125 1.3125 0 L 1.3125 -0.234375 L 1.625 -0.234375 C 1.882812 -0.234375 2.070312 -0.25 2.1875 -0.28125 C 2.3125 -0.3125 2.382812 -0.347656 2.40625 -0.390625 C 2.425781 -0.429688 2.4375 -0.503906 2.4375 -0.609375 L 2.4375 -4.671875 C 2.4375 -4.742188 2.429688 -4.789062 2.421875 -4.8125 C 2.421875 -4.84375 2.40625 -4.875 2.375 -4.90625 C 2.351562 -4.9375 2.316406 -4.953125 2.265625 -4.953125 C 2.222656 -4.960938 2.085938 -4.96875 1.859375 -4.96875 C 1.660156 -4.96875 1.492188 -4.960938 1.359375 -4.953125 C 1.222656 -4.941406 1.101562 -4.910156 1 -4.859375 C 0.894531 -4.816406 0.816406 -4.765625 0.765625 -4.703125 C 0.710938 -4.640625 0.660156 -4.546875 0.609375 -4.421875 C 0.566406 -4.296875 0.535156 -4.164062 0.515625 -4.03125 C 0.503906 -3.894531 0.488281 -3.710938 0.46875 -3.484375 Z M 0.28125 -3.484375 "/></g></g></g><g fill="#000000" fill-opacity="1"><g transform="translate(174.289921, 217.849971)"><g><path d="M 0.765625 -0.125 C 0.691406 -0.207031 0.65625 -0.300781 0.65625 -0.40625 C 0.65625 -0.519531 0.691406 -0.613281 0.765625 -0.6875 C 0.835938 -0.769531 0.941406 -0.8125 1.078125 -0.8125 C 1.222656 -0.8125 1.335938 -0.738281 1.421875 -0.59375 C 1.515625 -0.445312 1.5625 -0.25 1.5625 0 C 1.5625 0.257812 1.503906 0.507812 1.390625 0.75 C 1.285156 1 1.179688 1.179688 1.078125 1.296875 C 0.972656 1.421875 0.898438 1.484375 0.859375 1.484375 C 0.804688 1.484375 0.78125 1.457031 0.78125 1.40625 C 0.78125 1.382812 0.800781 1.351562 0.84375 1.3125 C 1.207031 0.914062 1.390625 0.476562 1.390625 0 C 1.390625 -0.0820312 1.382812 -0.125 1.375 -0.125 L 1.359375 -0.109375 C 1.273438 -0.0351562 1.179688 0 1.078125 0 C 0.941406 0 0.835938 -0.0390625 0.765625 -0.125 Z M 0.765625 -0.125 "/></g></g></g><g fill="#000000" fill-opacity="1"><g transform="translate(180.661369, 217.849971)"><g><path d="M 0.4375 -2.640625 C 0.4375 -3.410156 0.695312 -4.066406 1.21875 -4.609375 C 1.75 -5.160156 2.378906 -5.4375 3.109375 -5.4375 C 3.335938 -5.4375 3.550781 -5.394531 3.75 -5.3125 C 3.945312 -5.226562 4.09375 -5.148438 4.1875 -5.078125 C 4.28125 -5.003906 4.394531 -4.898438 4.53125 -4.765625 L 4.921875 -5.34375 C 4.953125 -5.40625 4.988281 -5.4375 5.03125 -5.4375 C 5.070312 -5.4375 5.097656 -5.421875 5.109375 -5.390625 C 5.117188 -5.367188 5.125 -5.320312 5.125 -5.25 L 5.125 -3.421875 C 5.125 -3.335938 5.117188 -3.285156 5.109375 -3.265625 C 5.097656 -3.242188 5.0625 -3.234375 5 -3.234375 C 4.945312 -3.234375 4.914062 -3.238281 4.90625 -3.25 C 4.894531 -3.269531 4.882812 -3.304688 4.875 -3.359375 C 4.800781 -3.921875 4.609375 -4.363281 4.296875 -4.6875 C 3.992188 -5.019531 3.628906 -5.1875 3.203125 -5.1875 C 3.078125 -5.1875 2.945312 -5.171875 2.8125 -5.140625 C 2.675781 -5.117188 2.507812 -5.054688 2.3125 -4.953125 C 2.113281 -4.847656 1.9375 -4.707031 1.78125 -4.53125 C 1.632812 -4.351562 1.503906 -4.097656 1.390625 -3.765625 C 1.273438 -3.441406 1.21875 -3.0625 1.21875 -2.625 C 1.21875 -2.195312 1.273438 -1.816406 1.390625 -1.484375 C 1.503906 -1.148438 1.632812 -0.894531 1.78125 -0.71875 C 1.9375 -0.550781 2.113281 -0.414062 2.3125 -0.3125 C 2.507812 -0.207031 2.675781 -0.140625 2.8125 -0.109375 C 2.945312 -0.078125 3.078125 -0.0625 3.203125 -0.0625 C 3.640625 -0.0625 4.023438 -0.21875 4.359375 -0.53125 C 4.703125 -0.851562 4.894531 -1.273438 4.9375 -1.796875 C 4.9375 -1.828125 4.9375 -1.847656 4.9375 -1.859375 C 4.9375 -1.867188 4.9375 -1.878906 4.9375 -1.890625 C 4.945312 -1.898438 4.957031 -1.90625 4.96875 -1.90625 C 4.976562 -1.914062 4.992188 -1.921875 5.015625 -1.921875 C 5.085938 -1.921875 5.125 -1.878906 5.125 -1.796875 C 5.125 -1.304688 4.9375 -0.851562 4.5625 -0.4375 C 4.1875 -0.03125 3.703125 0.171875 3.109375 0.171875 C 2.378906 0.171875 1.75 -0.0976562 1.21875 -0.640625 C 0.695312 -1.179688 0.4375 -1.847656 0.4375 -2.640625 Z M 0.4375 -2.640625 "/></g></g></g><g fill="#000000" fill-opacity="1"><g transform="translate(190.460477, 217.849971)"><g><path d="M 0.4375 -2.609375 C 0.4375 -3.390625 0.6875 -4.054688 1.1875 -4.609375 C 1.6875 -5.160156 2.285156 -5.4375 2.984375 -5.4375 C 3.691406 -5.4375 4.296875 -5.160156 4.796875 -4.609375 C 5.304688 -4.054688 5.5625 -3.390625 5.5625 -2.609375 C 5.5625 -1.835938 5.304688 -1.179688 4.796875 -0.640625 C 4.296875 -0.0976562 3.691406 0.171875 2.984375 0.171875 C 2.296875 0.171875 1.695312 -0.09375 1.1875 -0.625 C 0.6875 -1.164062 0.4375 -1.828125 0.4375 -2.609375 Z M 1.21875 -2.71875 C 1.21875 -2.238281 1.273438 -1.816406 1.390625 -1.453125 C 1.503906 -1.085938 1.648438 -0.804688 1.828125 -0.609375 C 2.015625 -0.410156 2.207031 -0.265625 2.40625 -0.171875 C 2.601562 -0.078125 2.800781 -0.03125 3 -0.03125 C 3.195312 -0.03125 3.390625 -0.078125 3.578125 -0.171875 C 3.765625 -0.265625 3.953125 -0.40625 4.140625 -0.59375 C 4.328125 -0.789062 4.476562 -1.070312 4.59375 -1.4375 C 4.707031 -1.8125 4.765625 -2.238281 4.765625 -2.71875 C 4.765625 -3.09375 4.722656 -3.429688 4.640625 -3.734375 C 4.554688 -4.035156 4.453125 -4.273438 4.328125 -4.453125 C 4.203125 -4.640625 4.054688 -4.789062 3.890625 -4.90625 C 3.734375 -5.03125 3.578125 -5.113281 3.421875 -5.15625 C 3.273438 -5.207031 3.128906 -5.234375 2.984375 -5.234375 C 2.804688 -5.234375 2.625 -5.191406 2.4375 -5.109375 C 2.25 -5.035156 2.0625 -4.910156 1.875 -4.734375 C 1.6875 -4.554688 1.53125 -4.289062 1.40625 -3.9375 C 1.28125 -3.59375 1.21875 -3.1875 1.21875 -2.71875 Z M 1.21875 -2.71875 "/></g></g></g><g fill="#000000" fill-opacity="1"><g transform="translate(200.684749, 217.849971)"><g><path d="M 0.21875 0 L 0.21875 -0.234375 L 0.421875 -0.234375 C 0.703125 -0.234375 0.875 -0.253906 0.9375 -0.296875 C 1.007812 -0.347656 1.046875 -0.453125 1.046875 -0.609375 L 1.046875 -4.65625 C 1.046875 -4.800781 1.007812 -4.894531 0.9375 -4.9375 C 0.875 -4.988281 0.703125 -5.015625 0.421875 -5.015625 L 0.21875 -5.015625 L 0.21875 -5.265625 C 0.394531 -5.242188 0.785156 -5.234375 1.390625 -5.234375 C 1.992188 -5.234375 2.382812 -5.242188 2.5625 -5.265625 L 2.5625 -5.015625 L 2.359375 -5.015625 C 2.078125 -5.015625 1.898438 -4.988281 1.828125 -4.9375 C 1.765625 -4.894531 1.734375 -4.800781 1.734375 -4.65625 L 1.734375 -0.609375 C 1.734375 -0.453125 1.765625 -0.347656 1.828125 -0.296875 C 1.898438 -0.253906 2.078125 -0.234375 2.359375 -0.234375 L 2.5625 -0.234375 L 2.5625 0 C 2.382812 -0.0078125 1.992188 -0.015625 1.390625 -0.015625 C 0.785156 -0.015625 0.394531 -0.0078125 0.21875 0 Z M 0.21875 0 "/></g></g></g><g fill="#000000" fill-opacity="1"><g transform="translate(207.703356, 217.849971)"><g><path d="M 0.25 0 L 0.25 -0.234375 L 0.4375 -0.234375 C 0.71875 -0.234375 0.890625 -0.253906 0.953125 -0.296875 C 1.015625 -0.347656 1.046875 -0.453125 1.046875 -0.609375 L 1.046875 -4.640625 C 1.046875 -4.785156 1.015625 -4.878906 0.953125 -4.921875 C 0.890625 -4.972656 0.71875 -5 0.4375 -5 L 0.25 -5 L 0.25 -5.234375 L 4.484375 -5.234375 L 4.703125 -3.5 L 4.5 -3.5 C 4.46875 -3.800781 4.425781 -4.035156 4.375 -4.203125 C 4.332031 -4.367188 4.257812 -4.515625 4.15625 -4.640625 C 4.050781 -4.773438 3.910156 -4.867188 3.734375 -4.921875 C 3.554688 -4.972656 3.320312 -5 3.03125 -5 L 2.109375 -5 C 1.929688 -5 1.820312 -4.976562 1.78125 -4.9375 C 1.75 -4.90625 1.734375 -4.820312 1.734375 -4.6875 L 1.734375 -2.734375 L 2.390625 -2.734375 C 2.742188 -2.734375 2.96875 -2.796875 3.0625 -2.921875 C 3.164062 -3.054688 3.21875 -3.296875 3.21875 -3.640625 L 3.40625 -3.640625 L 3.40625 -1.609375 L 3.21875 -1.609375 C 3.21875 -1.953125 3.164062 -2.1875 3.0625 -2.3125 C 2.96875 -2.4375 2.742188 -2.5 2.390625 -2.5 L 1.734375 -2.5 L 1.734375 -0.609375 C 1.734375 -0.503906 1.738281 -0.429688 1.75 -0.390625 C 1.769531 -0.347656 1.832031 -0.3125 1.9375 -0.28125 C 2.050781 -0.25 2.226562 -0.234375 2.46875 -0.234375 L 2.71875 -0.234375 L 2.71875 0 C 2.53125 -0.0078125 2.097656 -0.015625 1.421875 -0.015625 C 0.828125 -0.015625 0.4375 -0.0078125 0.25 0 Z M 0.25 0 "/></g></g></g><g fill="#000000" fill-opacity="1"><g transform="translate(216.964424, 217.849971)"><g><path d="M 0.25 0 L 0.25 -0.234375 L 0.4375 -0.234375 C 0.71875 -0.234375 0.890625 -0.253906 0.953125 -0.296875 C 1.015625 -0.347656 1.046875 -0.453125 1.046875 -0.609375 L 1.046875 -4.640625 C 1.046875 -4.785156 1.015625 -4.878906 0.953125 -4.921875 C 0.890625 -4.972656 0.71875 -5 0.4375 -5 L 0.25 -5 L 0.25 -5.234375 L 4.484375 -5.234375 L 4.703125 -3.5 L 4.5 -3.5 C 4.46875 -3.800781 4.425781 -4.035156 4.375 -4.203125 C 4.332031 -4.367188 4.257812 -4.515625 4.15625 -4.640625 C 4.050781 -4.773438 3.910156 -4.867188 3.734375 -4.921875 C 3.554688 -4.972656 3.320312 -5 3.03125 -5 L 2.109375 -5 C 1.929688 -5 1.820312 -4.976562 1.78125 -4.9375 C 1.75 -4.90625 1.734375 -4.820312 1.734375 -4.6875 L 1.734375 -2.734375 L 2.390625 -2.734375 C 2.742188 -2.734375 2.96875 -2.796875 3.0625 -2.921875 C 3.164062 -3.054688 3.21875 -3.296875 3.21875 -3.640625 L 3.40625 -3.640625 L 3.40625 -1.609375 L 3.21875 -1.609375 C 3.21875 -1.953125 3.164062 -2.1875 3.0625 -2.3125 C 2.96875 -2.4375 2.742188 -2.5 2.390625 -2.5 L 1.734375 -2.5 L 1.734375 -0.609375 C 1.734375 -0.503906 1.738281 -0.429688 1.75 -0.390625 C 1.769531 -0.347656 1.832031 -0.3125 1.9375 -0.28125 C 2.050781 -0.25 2.226562 -0.234375 2.46875 -0.234375 L 2.71875 -0.234375 L 2.71875 0 C 2.53125 -0.0078125 2.097656 -0.015625 1.421875 -0.015625 C 0.828125 -0.015625 0.4375 -0.0078125 0.25 0 Z M 0.25 0 "/></g></g></g><g fill="#000000" fill-opacity="1"><g transform="translate(226.225491, 217.849971)"><g><path d="M 0.25 0 L 0.25 -0.234375 L 0.4375 -0.234375 C 0.71875 -0.234375 0.890625 -0.253906 0.953125 -0.296875 C 1.015625 -0.347656 1.046875 -0.453125 1.046875 -0.609375 L 1.046875 -4.640625 C 1.046875 -4.785156 1.015625 -4.878906 0.953125 -4.921875 C 0.890625 -4.972656 0.71875 -5 0.4375 -5 L 0.25 -5 L 0.25 -5.234375 L 4.59375 -5.234375 L 4.8125 -3.5 L 4.609375 -3.5 C 4.578125 -3.800781 4.535156 -4.035156 4.484375 -4.203125 C 4.441406 -4.367188 4.363281 -4.515625 4.25 -4.640625 C 4.144531 -4.773438 4 -4.867188 3.8125 -4.921875 C 3.632812 -4.972656 3.398438 -5 3.109375 -5 L 2.109375 -5 C 1.929688 -5 1.820312 -4.976562 1.78125 -4.9375 C 1.75 -4.90625 1.734375 -4.820312 1.734375 -4.6875 L 1.734375 -2.84375 L 2.421875 -2.84375 C 2.773438 -2.84375 3 -2.90625 3.09375 -3.03125 C 3.195312 -3.15625 3.25 -3.394531 3.25 -3.75 L 3.453125 -3.75 L 3.453125 -1.703125 L 3.25 -1.703125 C 3.25 -2.054688 3.195312 -2.296875 3.09375 -2.421875 C 3 -2.546875 2.773438 -2.609375 2.421875 -2.609375 L 1.734375 -2.609375 L 1.734375 -0.546875 C 1.734375 -0.410156 1.75 -0.320312 1.78125 -0.28125 C 1.820312 -0.25 1.929688 -0.234375 2.109375 -0.234375 L 3.140625 -0.234375 C 3.359375 -0.234375 3.546875 -0.25 3.703125 -0.28125 C 3.867188 -0.3125 4.007812 -0.359375 4.125 -0.421875 C 4.238281 -0.492188 4.332031 -0.570312 4.40625 -0.65625 C 4.476562 -0.738281 4.539062 -0.851562 4.59375 -1 C 4.65625 -1.15625 4.703125 -1.300781 4.734375 -1.4375 C 4.765625 -1.570312 4.796875 -1.753906 4.828125 -1.984375 L 5.015625 -1.984375 L 4.703125 0 Z M 0.25 0 "/></g></g></g><g fill="#000000" fill-opacity="1"><g transform="translate(235.701023, 217.849971)"><g><path d="M 0.25 -5.015625 L 0.25 -5.265625 C 0.4375 -5.242188 0.816406 -5.234375 1.390625 -5.234375 C 1.960938 -5.234375 2.34375 -5.242188 2.53125 -5.265625 L 2.53125 -5.015625 L 2.34375 -5.015625 C 2.0625 -5.015625 1.890625 -4.988281 1.828125 -4.9375 C 1.765625 -4.894531 1.734375 -4.800781 1.734375 -4.65625 L 1.734375 -1.71875 C 1.734375 -1.382812 1.78125 -1.097656 1.875 -0.859375 C 1.96875 -0.617188 2.085938 -0.445312 2.234375 -0.34375 C 2.390625 -0.238281 2.523438 -0.164062 2.640625 -0.125 C 2.765625 -0.0820312 2.882812 -0.0625 3 -0.0625 C 3.394531 -0.0625 3.738281 -0.21875 4.03125 -0.53125 C 4.332031 -0.84375 4.484375 -1.257812 4.484375 -1.78125 L 4.484375 -4.453125 C 4.484375 -4.523438 4.476562 -4.582031 4.46875 -4.625 C 4.457031 -4.675781 4.429688 -4.738281 4.390625 -4.8125 C 4.347656 -4.882812 4.265625 -4.9375 4.140625 -4.96875 C 4.023438 -5 3.875 -5.015625 3.6875 -5.015625 L 3.6875 -5.265625 C 4.238281 -5.242188 4.546875 -5.234375 4.609375 -5.234375 C 4.660156 -5.234375 4.960938 -5.242188 5.515625 -5.265625 L 5.515625 -5.015625 C 5.328125 -5.015625 5.171875 -5 5.046875 -4.96875 C 4.929688 -4.9375 4.851562 -4.882812 4.8125 -4.8125 C 4.769531 -4.738281 4.742188 -4.675781 4.734375 -4.625 C 4.722656 -4.570312 4.71875 -4.503906 4.71875 -4.421875 L 4.71875 -1.953125 C 4.71875 -1.703125 4.710938 -1.523438 4.703125 -1.421875 C 4.628906 -0.972656 4.429688 -0.59375 4.109375 -0.28125 C 3.796875 0.0195312 3.421875 0.171875 2.984375 0.171875 C 2.460938 0.171875 2.007812 -0.015625 1.625 -0.390625 C 1.238281 -0.765625 1.046875 -1.21875 1.046875 -1.75 L 1.046875 -4.65625 C 1.046875 -4.800781 1.015625 -4.894531 0.953125 -4.9375 C 0.890625 -4.988281 0.71875 -5.015625 0.4375 -5.015625 Z M 0.25 -5.015625 "/></g></g></g><g fill="#000000" fill-opacity="1"><g transform="translate(245.718356, 217.849971)"><g><path d="M 0.265625 0 L 0.265625 -0.234375 L 0.453125 -0.234375 C 0.734375 -0.234375 0.90625 -0.253906 0.96875 -0.296875 C 1.03125 -0.347656 1.0625 -0.453125 1.0625 -0.609375 L 1.0625 -4.65625 C 1.0625 -4.800781 1.03125 -4.894531 0.96875 -4.9375 C 0.90625 -4.988281 0.734375 -5.015625 0.453125 -5.015625 L 0.265625 -5.015625 L 0.265625 -5.265625 L 2.6875 -5.265625 C 3.25 -5.265625 3.722656 -5.125 4.109375 -4.84375 C 4.503906 -4.570312 4.703125 -4.25 4.703125 -3.875 C 4.703125 -3.582031 4.570312 -3.320312 4.3125 -3.09375 C 4.0625 -2.875 3.738281 -2.71875 3.34375 -2.625 C 3.851562 -2.445312 4.171875 -2.144531 4.296875 -1.71875 L 4.390625 -1.109375 C 4.410156 -0.960938 4.425781 -0.847656 4.4375 -0.765625 C 4.445312 -0.691406 4.460938 -0.601562 4.484375 -0.5 C 4.515625 -0.40625 4.539062 -0.332031 4.5625 -0.28125 C 4.582031 -0.226562 4.609375 -0.175781 4.640625 -0.125 C 4.679688 -0.0703125 4.722656 -0.0351562 4.765625 -0.015625 C 4.816406 -0.00390625 4.875 0 4.9375 0 C 5.050781 0 5.160156 -0.0507812 5.265625 -0.15625 C 5.367188 -0.257812 5.429688 -0.4375 5.453125 -0.6875 C 5.460938 -0.769531 5.492188 -0.8125 5.546875 -0.8125 C 5.609375 -0.8125 5.640625 -0.769531 5.640625 -0.6875 C 5.640625 -0.613281 5.628906 -0.535156 5.609375 -0.453125 C 5.585938 -0.367188 5.550781 -0.273438 5.5 -0.171875 C 5.457031 -0.078125 5.378906 0 5.265625 0.0625 C 5.160156 0.132812 5.039062 0.171875 4.90625 0.171875 C 4.507812 0.171875 4.1875 0.0625 3.9375 -0.15625 C 3.832031 -0.25 3.753906 -0.351562 3.703125 -0.46875 C 3.660156 -0.59375 3.632812 -0.703125 3.625 -0.796875 C 3.625 -0.890625 3.625 -1.039062 3.625 -1.25 C 3.625 -1.550781 3.609375 -1.765625 3.578125 -1.890625 C 3.546875 -2.023438 3.460938 -2.15625 3.328125 -2.28125 C 3.148438 -2.457031 2.910156 -2.546875 2.609375 -2.546875 L 1.71875 -2.546875 L 1.71875 -0.609375 C 1.71875 -0.453125 1.75 -0.347656 1.8125 -0.296875 C 1.882812 -0.253906 2.054688 -0.234375 2.328125 -0.234375 L 2.515625 -0.234375 L 2.515625 0 C 2.328125 -0.0078125 1.953125 -0.015625 1.390625 -0.015625 C 0.828125 -0.015625 0.453125 -0.0078125 0.265625 0 Z M 1.71875 -2.71875 L 2.578125 -2.71875 C 2.847656 -2.71875 3.078125 -2.75 3.265625 -2.8125 C 3.453125 -2.882812 3.585938 -2.976562 3.671875 -3.09375 C 3.765625 -3.21875 3.828125 -3.335938 3.859375 -3.453125 C 3.890625 -3.578125 3.90625 -3.71875 3.90625 -3.875 C 3.90625 -4.050781 3.882812 -4.207031 3.84375 -4.34375 C 3.800781 -4.476562 3.734375 -4.585938 3.640625 -4.671875 C 3.554688 -4.753906 3.46875 -4.820312 3.375 -4.875 C 3.289062 -4.925781 3.179688 -4.957031 3.046875 -4.96875 C 2.910156 -4.988281 2.796875 -5 2.703125 -5 C 2.617188 -5.007812 2.5 -5.015625 2.34375 -5.015625 C 2.09375 -5.015625 1.941406 -5.007812 1.890625 -5 C 1.835938 -5 1.796875 -4.984375 1.765625 -4.953125 C 1.742188 -4.929688 1.726562 -4.90625 1.71875 -4.875 C 1.71875 -4.84375 1.71875 -4.789062 1.71875 -4.71875 Z M 1.71875 -2.71875 "/></g></g></g><g fill="#000000" fill-opacity="1"><g transform="translate(255.626577, 217.849971)"><g><path d="M 0.765625 -0.125 C 0.691406 -0.207031 0.65625 -0.300781 0.65625 -0.40625 C 0.65625 -0.519531 0.691406 -0.613281 0.765625 -0.6875 C 0.835938 -0.769531 0.941406 -0.8125 1.078125 -0.8125 C 1.222656 -0.8125 1.335938 -0.738281 1.421875 -0.59375 C 1.515625 -0.445312 1.5625 -0.25 1.5625 0 C 1.5625 0.257812 1.503906 0.507812 1.390625 0.75 C 1.285156 1 1.179688 1.179688 1.078125 1.296875 C 0.972656 1.421875 0.898438 1.484375 0.859375 1.484375 C 0.804688 1.484375 0.78125 1.457031 0.78125 1.40625 C 0.78125 1.382812 0.800781 1.351562 0.84375 1.3125 C 1.207031 0.914062 1.390625 0.476562 1.390625 0 C 1.390625 -0.0820312 1.382812 -0.125 1.375 -0.125 L 1.359375 -0.109375 C 1.273438 -0.0351562 1.179688 0 1.078125 0 C 0.941406 0 0.835938 -0.0390625 0.765625 -0.125 Z M 0.765625 -0.125 "/></g></g></g><g fill="#000000" fill-opacity="1"><g transform="translate(261.998031, 217.849971)"><g><path d="M 0.4375 -0.015625 L 0.4375 -1.5625 C 0.4375 -1.613281 0.4375 -1.648438 0.4375 -1.671875 C 0.4375 -1.691406 0.441406 -1.707031 0.453125 -1.71875 C 0.472656 -1.738281 0.5 -1.75 0.53125 -1.75 C 0.582031 -1.75 0.613281 -1.722656 0.625 -1.671875 C 0.632812 -1.160156 0.796875 -0.765625 1.109375 -0.484375 C 1.398438 -0.203125 1.800781 -0.0625 2.3125 -0.0625 C 2.625 -0.0625 2.875 -0.171875 3.0625 -0.390625 C 3.25 -0.617188 3.34375 -0.878906 3.34375 -1.171875 C 3.34375 -1.453125 3.265625 -1.6875 3.109375 -1.875 C 3.046875 -1.96875 2.96875 -2.039062 2.875 -2.09375 C 2.789062 -2.15625 2.722656 -2.191406 2.671875 -2.203125 C 2.628906 -2.222656 2.554688 -2.242188 2.453125 -2.265625 C 1.816406 -2.421875 1.476562 -2.507812 1.4375 -2.53125 C 1.132812 -2.632812 0.890625 -2.8125 0.703125 -3.0625 C 0.523438 -3.320312 0.4375 -3.613281 0.4375 -3.9375 C 0.4375 -4.351562 0.578125 -4.707031 0.859375 -5 C 1.148438 -5.289062 1.507812 -5.4375 1.9375 -5.4375 C 2.144531 -5.4375 2.335938 -5.398438 2.515625 -5.328125 C 2.691406 -5.265625 2.816406 -5.203125 2.890625 -5.140625 C 2.960938 -5.078125 3.054688 -4.992188 3.171875 -4.890625 L 3.4375 -5.328125 C 3.476562 -5.398438 3.515625 -5.4375 3.546875 -5.4375 C 3.585938 -5.4375 3.613281 -5.421875 3.625 -5.390625 C 3.632812 -5.367188 3.640625 -5.320312 3.640625 -5.25 L 3.640625 -3.703125 C 3.640625 -3.640625 3.632812 -3.597656 3.625 -3.578125 C 3.625 -3.554688 3.613281 -3.539062 3.59375 -3.53125 C 3.582031 -3.519531 3.5625 -3.515625 3.53125 -3.515625 C 3.476562 -3.515625 3.445312 -3.546875 3.4375 -3.609375 C 3.300781 -4.679688 2.800781 -5.21875 1.9375 -5.21875 C 1.644531 -5.21875 1.398438 -5.117188 1.203125 -4.921875 C 1.015625 -4.722656 0.921875 -4.484375 0.921875 -4.203125 C 0.921875 -3.972656 0.988281 -3.765625 1.125 -3.578125 C 1.269531 -3.398438 1.460938 -3.285156 1.703125 -3.234375 L 2.6875 -2.984375 C 3.019531 -2.910156 3.296875 -2.726562 3.515625 -2.4375 C 3.734375 -2.144531 3.84375 -1.8125 3.84375 -1.4375 C 3.84375 -1 3.695312 -0.617188 3.40625 -0.296875 C 3.125 0.015625 2.765625 0.171875 2.328125 0.171875 C 2.003906 0.171875 1.71875 0.117188 1.46875 0.015625 C 1.226562 -0.0859375 1.039062 -0.21875 0.90625 -0.375 C 0.800781 -0.195312 0.71875 -0.0625 0.65625 0.03125 L 0.625 0.0625 C 0.59375 0.132812 0.554688 0.171875 0.515625 0.171875 C 0.472656 0.171875 0.445312 0.15625 0.4375 0.125 C 0.4375 0.101562 0.4375 0.0546875 0.4375 -0.015625 Z M 0.4375 -0.015625 "/></g></g></g><g fill="#000000" fill-opacity="1"><g transform="translate(270.510357, 217.849971)"><g><path d="M 0.265625 0 L 0.265625 -0.234375 L 0.453125 -0.234375 C 0.734375 -0.234375 0.90625 -0.253906 0.96875 -0.296875 C 1.03125 -0.347656 1.0625 -0.453125 1.0625 -0.609375 L 1.0625 -4.65625 C 1.0625 -4.800781 1.03125 -4.894531 0.96875 -4.9375 C 0.90625 -4.988281 0.734375 -5.015625 0.453125 -5.015625 L 0.265625 -5.015625 L 0.265625 -5.265625 L 2.984375 -5.265625 C 3.503906 -5.265625 3.9375 -5.117188 4.28125 -4.828125 C 4.632812 -4.546875 4.8125 -4.210938 4.8125 -3.828125 C 4.8125 -3.441406 4.632812 -3.113281 4.28125 -2.84375 C 3.925781 -2.570312 3.515625 -2.4375 3.046875 -2.4375 L 1.75 -2.4375 L 1.75 -0.609375 C 1.75 -0.453125 1.78125 -0.347656 1.84375 -0.296875 C 1.90625 -0.253906 2.078125 -0.234375 2.359375 -0.234375 L 2.546875 -0.234375 L 2.546875 0 C 2.359375 -0.0078125 1.976562 -0.015625 1.40625 -0.015625 C 0.832031 -0.015625 0.453125 -0.0078125 0.265625 0 Z M 1.71875 -2.640625 L 2.78125 -2.640625 C 3.019531 -2.640625 3.222656 -2.671875 3.390625 -2.734375 C 3.554688 -2.796875 3.675781 -2.863281 3.75 -2.9375 C 3.820312 -3.019531 3.878906 -3.125 3.921875 -3.25 C 3.972656 -3.382812 4 -3.488281 4 -3.5625 C 4.007812 -3.632812 4.015625 -3.722656 4.015625 -3.828125 C 4.015625 -3.941406 4.007812 -4.035156 4 -4.109375 C 4 -4.179688 3.972656 -4.28125 3.921875 -4.40625 C 3.878906 -4.53125 3.820312 -4.632812 3.75 -4.71875 C 3.675781 -4.800781 3.554688 -4.867188 3.390625 -4.921875 C 3.222656 -4.984375 3.019531 -5.015625 2.78125 -5.015625 L 2.109375 -5.015625 C 1.929688 -5.015625 1.820312 -5 1.78125 -4.96875 C 1.738281 -4.9375 1.71875 -4.851562 1.71875 -4.71875 Z M 1.71875 -2.640625 "/></g></g></g><g fill="#000000" fill-opacity="1"><g transform="translate(279.985888, 217.849971)"><g><path d="M 0.25 0 L 0.25 -0.234375 C 0.707031 -0.242188 0.992188 -0.414062 1.109375 -0.75 L 2.703125 -5.359375 C 2.722656 -5.421875 2.742188 -5.460938 2.765625 -5.484375 C 2.785156 -5.503906 2.828125 -5.515625 2.890625 -5.515625 C 2.921875 -5.515625 2.941406 -5.507812 2.953125 -5.5 C 2.972656 -5.5 2.988281 -5.488281 3 -5.46875 C 3.019531 -5.457031 3.03125 -5.445312 3.03125 -5.4375 C 3.039062 -5.425781 3.050781 -5.398438 3.0625 -5.359375 L 4.734375 -0.546875 C 4.765625 -0.421875 4.820312 -0.335938 4.90625 -0.296875 C 4.988281 -0.253906 5.148438 -0.234375 5.390625 -0.234375 L 5.515625 -0.234375 L 5.515625 0 C 5.191406 -0.0078125 4.859375 -0.015625 4.515625 -0.015625 C 3.960938 -0.015625 3.59375 -0.0078125 3.40625 0 L 3.40625 -0.234375 C 3.832031 -0.234375 4.046875 -0.3125 4.046875 -0.46875 C 4.046875 -0.476562 4.035156 -0.515625 4.015625 -0.578125 L 3.609375 -1.75 L 1.71875 -1.75 L 1.359375 -0.75 C 1.347656 -0.726562 1.34375 -0.6875 1.34375 -0.625 C 1.34375 -0.519531 1.390625 -0.425781 1.484375 -0.34375 C 1.585938 -0.269531 1.734375 -0.234375 1.921875 -0.234375 L 1.921875 0 C 1.421875 -0.0078125 1.125 -0.015625 1.03125 -0.015625 C 0.863281 -0.015625 0.601562 -0.0078125 0.25 0 Z M 1.796875 -2 L 3.53125 -2 L 2.65625 -4.5 Z M 1.796875 -2 "/></g></g></g></svg>