<svg xmlns="http://www.w3.org/2000/svg" xmlns:xlink="http://www.w3.org/1999/xlink" width="200" zoomAndPan="magnify" viewBox="0 0 150 149.999998" height="200" preserveAspectRatio="xMidYMid meet" version="1.0"><defs><g/></defs><g fill="#000000" fill-opacity="1"><g transform="translate(12.103979, 77.809767)"><g><path d="M 8.671875 -16.15625 C 10.734375 -16.15625 12.347656 -15.660156 13.515625 -14.671875 C 14.691406 -13.691406 15.28125 -12.335938 15.28125 -10.609375 C 15.28125 -8.890625 14.691406 -7.539062 13.515625 -6.5625 C 12.347656 -5.582031 10.734375 -5.09375 8.671875 -5.09375 L 4.34375 -5.09375 L 4.34375 0 L 2.625 0 L 2.625 -16.15625 Z M 8.625 -6.59375 C 10.226562 -6.59375 11.453125 -6.941406 12.296875 -7.640625 C 13.140625 -8.347656 13.5625 -9.335938 13.5625 -10.609375 C 13.5625 -11.921875 13.140625 -12.925781 12.296875 -13.625 C 11.453125 -14.320312 10.226562 -14.671875 8.625 -14.671875 L 4.34375 -14.671875 L 4.34375 -6.59375 Z M 8.625 -6.59375 "/></g></g></g><g fill="#000000" fill-opacity="1"><g transform="translate(28.671223, 77.809767)"><g><path d="M 2.625 -16.15625 L 4.34375 -16.15625 L 4.34375 -1.484375 L 13.390625 -1.484375 L 13.390625 0 L 2.625 0 Z M 2.625 -16.15625 "/></g></g></g><g fill="#000000" fill-opacity="1"><g transform="translate(42.261893, 77.809767)"><g><path d="M 12.765625 -4.3125 L 3.765625 -4.3125 L 1.828125 0 L 0.046875 0 L 7.4375 -16.15625 L 9.109375 -16.15625 L 16.5 0 L 14.703125 0 Z M 12.140625 -5.703125 L 8.265625 -14.375 L 4.390625 -5.703125 Z M 12.140625 -5.703125 "/></g></g></g><g fill="#000000" fill-opacity="1"><g transform="translate(58.806054, 77.809767)"><g><path d="M 16.125 -16.15625 L 16.125 0 L 14.71875 0 L 4.34375 -13.109375 L 4.34375 0 L 2.625 0 L 2.625 -16.15625 L 4.03125 -16.15625 L 14.453125 -3.046875 L 14.453125 -16.15625 Z M 16.125 -16.15625 "/></g></g></g><g fill="#000000" fill-opacity="1"><g transform="translate(77.565333, 77.809767)"><g><path d="M 16.125 -16.15625 L 16.125 0 L 14.71875 0 L 4.34375 -13.109375 L 4.34375 0 L 2.625 0 L 2.625 -16.15625 L 4.03125 -16.15625 L 14.453125 -3.046875 L 14.453125 -16.15625 Z M 16.125 -16.15625 "/></g></g></g><g fill="#000000" fill-opacity="1"><g transform="translate(96.324612, 77.809767)"><g><path d="M 14.046875 -1.484375 L 14.046875 0 L 2.625 0 L 2.625 -16.15625 L 13.703125 -16.15625 L 13.703125 -14.671875 L 4.34375 -14.671875 L 4.34375 -8.9375 L 12.6875 -8.9375 L 12.6875 -7.484375 L 4.34375 -7.484375 L 4.34375 -1.484375 Z M 14.046875 -1.484375 "/></g></g></g><g fill="#000000" fill-opacity="1"><g transform="translate(111.761213, 77.809767)"><g><path d="M 13.65625 0 L 9.96875 -5.1875 C 9.550781 -5.144531 9.117188 -5.125 8.671875 -5.125 L 4.34375 -5.125 L 4.34375 0 L 2.625 0 L 2.625 -16.15625 L 8.671875 -16.15625 C 10.734375 -16.15625 12.347656 -15.660156 13.515625 -14.671875 C 14.691406 -13.691406 15.28125 -12.335938 15.28125 -10.609375 C 15.28125 -9.347656 14.957031 -8.28125 14.3125 -7.40625 C 13.675781 -6.539062 12.765625 -5.914062 11.578125 -5.53125 L 15.53125 0 Z M 8.625 -6.578125 C 10.226562 -6.578125 11.453125 -6.929688 12.296875 -7.640625 C 13.140625 -8.347656 13.5625 -9.335938 13.5625 -10.609375 C 13.5625 -11.921875 13.140625 -12.925781 12.296875 -13.625 C 11.453125 -14.320312 10.226562 -14.671875 8.625 -14.671875 L 4.34375 -14.671875 L 4.34375 -6.578125 Z M 8.625 -6.578125 "/></g></g></g><g fill="#000000" fill-opacity="1"><g transform="translate(128.447715, 77.809767)"><g/></g></g><g fill="#000000" fill-opacity="1"><g transform="translate(8.83045, 91.992279)"><g><path d="M 0.15625 0 L 0.15625 -0.171875 L 0.296875 -0.171875 C 0.503906 -0.171875 0.628906 -0.1875 0.671875 -0.21875 C 0.722656 -0.25 0.75 -0.320312 0.75 -0.4375 L 0.75 -3.359375 C 0.75 -3.472656 0.722656 -3.546875 0.671875 -3.578125 C 0.628906 -3.609375 0.503906 -3.625 0.296875 -3.625 L 0.15625 -3.625 L 0.15625 -3.796875 C 0.28125 -3.785156 0.5625 -3.78125 1 -3.78125 C 1.4375 -3.78125 1.722656 -3.785156 1.859375 -3.796875 L 1.859375 -3.625 L 1.703125 -3.625 C 1.492188 -3.625 1.363281 -3.609375 1.3125 -3.578125 C 1.269531 -3.546875 1.25 -3.472656 1.25 -3.359375 L 1.25 -0.4375 C 1.25 -0.332031 1.269531 -0.257812 1.3125 -0.21875 C 1.363281 -0.1875 1.492188 -0.171875 1.703125 -0.171875 L 1.859375 -0.171875 L 1.859375 0 C 1.722656 -0.0078125 1.4375 -0.015625 1 -0.015625 C 0.5625 -0.015625 0.28125 -0.0078125 0.15625 0 Z M 0.15625 0 "/></g></g></g><g fill="#000000" fill-opacity="1"><g transform="translate(13.892833, 91.992279)"><g><path d="M 0.1875 0 L 0.1875 -0.171875 C 0.320312 -0.171875 0.429688 -0.179688 0.515625 -0.203125 C 0.597656 -0.234375 0.65625 -0.273438 0.6875 -0.328125 C 0.71875 -0.378906 0.734375 -0.421875 0.734375 -0.453125 C 0.742188 -0.484375 0.75 -0.523438 0.75 -0.578125 L 0.75 -3.484375 C 0.75 -3.535156 0.742188 -3.566406 0.734375 -3.578125 C 0.722656 -3.597656 0.6875 -3.609375 0.625 -3.609375 C 0.507812 -3.617188 0.414062 -3.625 0.34375 -3.625 L 0.1875 -3.625 L 0.1875 -3.796875 L 1.125 -3.796875 C 1.175781 -3.796875 1.207031 -3.789062 1.21875 -3.78125 C 1.238281 -3.78125 1.265625 -3.757812 1.296875 -3.71875 L 3.25 -0.84375 L 3.25 -3.21875 C 3.25 -3.269531 3.242188 -3.3125 3.234375 -3.34375 C 3.234375 -3.375 3.21875 -3.414062 3.1875 -3.46875 C 3.15625 -3.519531 3.09375 -3.554688 3 -3.578125 C 2.914062 -3.609375 2.8125 -3.625 2.6875 -3.625 L 2.6875 -3.796875 C 3.070312 -3.785156 3.285156 -3.78125 3.328125 -3.78125 C 3.367188 -3.78125 3.585938 -3.785156 3.984375 -3.796875 L 3.984375 -3.625 C 3.847656 -3.625 3.738281 -3.609375 3.65625 -3.578125 C 3.570312 -3.554688 3.515625 -3.519531 3.484375 -3.46875 C 3.453125 -3.414062 3.429688 -3.375 3.421875 -3.34375 C 3.410156 -3.3125 3.40625 -3.269531 3.40625 -3.21875 L 3.40625 -0.140625 C 3.40625 -0.078125 3.398438 -0.0351562 3.390625 -0.015625 C 3.390625 -0.00390625 3.367188 0 3.328125 0 C 3.304688 0 3.273438 -0.0234375 3.234375 -0.078125 L 0.96875 -3.40625 C 0.945312 -3.425781 0.925781 -3.453125 0.90625 -3.484375 L 0.90625 -0.578125 C 0.90625 -0.523438 0.910156 -0.484375 0.921875 -0.453125 C 0.929688 -0.421875 0.953125 -0.378906 0.984375 -0.328125 C 1.015625 -0.273438 1.070312 -0.234375 1.15625 -0.203125 C 1.238281 -0.179688 1.347656 -0.171875 1.484375 -0.171875 L 1.484375 0 C 1.097656 -0.0078125 0.878906 -0.015625 0.828125 -0.015625 C 0.785156 -0.015625 0.570312 -0.0078125 0.1875 0 Z M 0.1875 0 "/></g></g></g><g fill="#000000" fill-opacity="1"><g transform="translate(21.118141, 91.992279)"><g><path d="M 0.3125 -0.015625 L 0.3125 -1.125 C 0.3125 -1.164062 0.3125 -1.191406 0.3125 -1.203125 C 0.3125 -1.222656 0.316406 -1.238281 0.328125 -1.25 C 0.335938 -1.257812 0.359375 -1.265625 0.390625 -1.265625 C 0.429688 -1.265625 0.453125 -1.242188 0.453125 -1.203125 C 0.460938 -0.835938 0.578125 -0.550781 0.796875 -0.34375 C 1.015625 -0.144531 1.304688 -0.046875 1.671875 -0.046875 C 1.890625 -0.046875 2.066406 -0.125 2.203125 -0.28125 C 2.347656 -0.445312 2.421875 -0.632812 2.421875 -0.84375 C 2.421875 -1.039062 2.363281 -1.210938 2.25 -1.359375 C 2.195312 -1.421875 2.140625 -1.472656 2.078125 -1.515625 C 2.015625 -1.554688 1.960938 -1.582031 1.921875 -1.59375 C 1.890625 -1.601562 1.84375 -1.617188 1.78125 -1.640625 C 1.3125 -1.753906 1.066406 -1.816406 1.046875 -1.828125 C 0.828125 -1.898438 0.648438 -2.03125 0.515625 -2.21875 C 0.378906 -2.40625 0.3125 -2.613281 0.3125 -2.84375 C 0.3125 -3.144531 0.414062 -3.398438 0.625 -3.609375 C 0.832031 -3.816406 1.085938 -3.921875 1.390625 -3.921875 C 1.546875 -3.921875 1.6875 -3.894531 1.8125 -3.84375 C 1.9375 -3.800781 2.023438 -3.753906 2.078125 -3.703125 C 2.140625 -3.660156 2.207031 -3.601562 2.28125 -3.53125 L 2.484375 -3.84375 C 2.503906 -3.894531 2.53125 -3.921875 2.5625 -3.921875 C 2.59375 -3.921875 2.609375 -3.910156 2.609375 -3.890625 C 2.617188 -3.878906 2.625 -3.84375 2.625 -3.78125 L 2.625 -2.671875 C 2.625 -2.628906 2.625 -2.597656 2.625 -2.578125 C 2.625 -2.566406 2.613281 -2.554688 2.59375 -2.546875 C 2.582031 -2.535156 2.566406 -2.53125 2.546875 -2.53125 C 2.515625 -2.53125 2.492188 -2.554688 2.484375 -2.609375 C 2.378906 -3.378906 2.019531 -3.765625 1.40625 -3.765625 C 1.1875 -3.765625 1.007812 -3.691406 0.875 -3.546875 C 0.738281 -3.410156 0.671875 -3.238281 0.671875 -3.03125 C 0.671875 -2.875 0.71875 -2.726562 0.8125 -2.59375 C 0.914062 -2.457031 1.054688 -2.367188 1.234375 -2.328125 L 1.9375 -2.15625 C 2.175781 -2.101562 2.375 -1.96875 2.53125 -1.75 C 2.695312 -1.539062 2.78125 -1.300781 2.78125 -1.03125 C 2.78125 -0.71875 2.675781 -0.445312 2.46875 -0.21875 C 2.257812 0.0078125 1.992188 0.125 1.671875 0.125 C 1.441406 0.125 1.238281 0.0820312 1.0625 0 C 0.882812 -0.0703125 0.75 -0.160156 0.65625 -0.265625 C 0.582031 -0.140625 0.519531 -0.046875 0.46875 0.015625 L 0.453125 0.046875 C 0.421875 0.0976562 0.394531 0.125 0.375 0.125 C 0.34375 0.125 0.320312 0.113281 0.3125 0.09375 C 0.3125 0.0703125 0.3125 0.0351562 0.3125 -0.015625 Z M 0.3125 -0.015625 "/></g></g></g><g fill="#000000" fill-opacity="1"><g transform="translate(27.257916, 91.992279)"><g><path d="M 0.203125 -2.515625 L 0.3125 -3.765625 L 3.703125 -3.765625 L 3.8125 -2.515625 L 3.671875 -2.515625 C 3.660156 -2.679688 3.644531 -2.8125 3.625 -2.90625 C 3.613281 -3 3.59375 -3.09375 3.5625 -3.1875 C 3.53125 -3.28125 3.492188 -3.347656 3.453125 -3.390625 C 3.410156 -3.429688 3.351562 -3.46875 3.28125 -3.5 C 3.207031 -3.539062 3.125 -3.566406 3.03125 -3.578125 C 2.9375 -3.585938 2.816406 -3.59375 2.671875 -3.59375 C 2.503906 -3.59375 2.398438 -3.585938 2.359375 -3.578125 C 2.304688 -3.566406 2.273438 -3.546875 2.265625 -3.515625 C 2.253906 -3.484375 2.25 -3.4375 2.25 -3.375 L 2.25 -0.4375 C 2.25 -0.363281 2.253906 -0.3125 2.265625 -0.28125 C 2.285156 -0.25 2.335938 -0.222656 2.421875 -0.203125 C 2.503906 -0.179688 2.640625 -0.171875 2.828125 -0.171875 L 3.0625 -0.171875 L 3.0625 0 C 2.90625 -0.0078125 2.550781 -0.015625 2 -0.015625 C 1.445312 -0.015625 1.097656 -0.0078125 0.953125 0 L 0.953125 -0.171875 L 1.171875 -0.171875 C 1.359375 -0.171875 1.492188 -0.179688 1.578125 -0.203125 C 1.671875 -0.222656 1.722656 -0.25 1.734375 -0.28125 C 1.742188 -0.3125 1.75 -0.363281 1.75 -0.4375 L 1.75 -3.375 C 1.75 -3.425781 1.75 -3.460938 1.75 -3.484375 C 1.75 -3.503906 1.738281 -3.523438 1.71875 -3.546875 C 1.707031 -3.566406 1.679688 -3.578125 1.640625 -3.578125 C 1.609375 -3.585938 1.507812 -3.59375 1.34375 -3.59375 C 1.195312 -3.59375 1.070312 -3.585938 0.96875 -3.578125 C 0.875 -3.566406 0.789062 -3.539062 0.71875 -3.5 C 0.644531 -3.46875 0.585938 -3.429688 0.546875 -3.390625 C 0.515625 -3.347656 0.484375 -3.28125 0.453125 -3.1875 C 0.421875 -3.09375 0.394531 -3 0.375 -2.90625 C 0.363281 -2.8125 0.351562 -2.679688 0.34375 -2.515625 Z M 0.203125 -2.515625 "/></g></g></g><g fill="#000000" fill-opacity="1"><g transform="translate(34.325821, 91.992279)"><g><path d="M 0.15625 0 L 0.15625 -0.171875 L 0.296875 -0.171875 C 0.503906 -0.171875 0.628906 -0.1875 0.671875 -0.21875 C 0.722656 -0.25 0.75 -0.320312 0.75 -0.4375 L 0.75 -3.359375 C 0.75 -3.472656 0.722656 -3.546875 0.671875 -3.578125 C 0.628906 -3.609375 0.503906 -3.625 0.296875 -3.625 L 0.15625 -3.625 L 0.15625 -3.796875 C 0.28125 -3.785156 0.5625 -3.78125 1 -3.78125 C 1.4375 -3.78125 1.722656 -3.785156 1.859375 -3.796875 L 1.859375 -3.625 L 1.703125 -3.625 C 1.492188 -3.625 1.363281 -3.609375 1.3125 -3.578125 C 1.269531 -3.546875 1.25 -3.472656 1.25 -3.359375 L 1.25 -0.4375 C 1.25 -0.332031 1.269531 -0.257812 1.3125 -0.21875 C 1.363281 -0.1875 1.492188 -0.171875 1.703125 -0.171875 L 1.859375 -0.171875 L 1.859375 0 C 1.722656 -0.0078125 1.4375 -0.015625 1 -0.015625 C 0.5625 -0.015625 0.28125 -0.0078125 0.15625 0 Z M 0.15625 0 "/></g></g></g><g fill="#000000" fill-opacity="1"><g transform="translate(39.388203, 91.992279)"><g><path d="M 0.203125 -2.515625 L 0.3125 -3.765625 L 3.703125 -3.765625 L 3.8125 -2.515625 L 3.671875 -2.515625 C 3.660156 -2.679688 3.644531 -2.8125 3.625 -2.90625 C 3.613281 -3 3.59375 -3.09375 3.5625 -3.1875 C 3.53125 -3.28125 3.492188 -3.347656 3.453125 -3.390625 C 3.410156 -3.429688 3.351562 -3.46875 3.28125 -3.5 C 3.207031 -3.539062 3.125 -3.566406 3.03125 -3.578125 C 2.9375 -3.585938 2.816406 -3.59375 2.671875 -3.59375 C 2.503906 -3.59375 2.398438 -3.585938 2.359375 -3.578125 C 2.304688 -3.566406 2.273438 -3.546875 2.265625 -3.515625 C 2.253906 -3.484375 2.25 -3.4375 2.25 -3.375 L 2.25 -0.4375 C 2.25 -0.363281 2.253906 -0.3125 2.265625 -0.28125 C 2.285156 -0.25 2.335938 -0.222656 2.421875 -0.203125 C 2.503906 -0.179688 2.640625 -0.171875 2.828125 -0.171875 L 3.0625 -0.171875 L 3.0625 0 C 2.90625 -0.0078125 2.550781 -0.015625 2 -0.015625 C 1.445312 -0.015625 1.097656 -0.0078125 0.953125 0 L 0.953125 -0.171875 L 1.171875 -0.171875 C 1.359375 -0.171875 1.492188 -0.179688 1.578125 -0.203125 C 1.671875 -0.222656 1.722656 -0.25 1.734375 -0.28125 C 1.742188 -0.3125 1.75 -0.363281 1.75 -0.4375 L 1.75 -3.375 C 1.75 -3.425781 1.75 -3.460938 1.75 -3.484375 C 1.75 -3.503906 1.738281 -3.523438 1.71875 -3.546875 C 1.707031 -3.566406 1.679688 -3.578125 1.640625 -3.578125 C 1.609375 -3.585938 1.507812 -3.59375 1.34375 -3.59375 C 1.195312 -3.59375 1.070312 -3.585938 0.96875 -3.578125 C 0.875 -3.566406 0.789062 -3.539062 0.71875 -3.5 C 0.644531 -3.46875 0.585938 -3.429688 0.546875 -3.390625 C 0.515625 -3.347656 0.484375 -3.28125 0.453125 -3.1875 C 0.421875 -3.09375 0.394531 -3 0.375 -2.90625 C 0.363281 -2.8125 0.351562 -2.679688 0.34375 -2.515625 Z M 0.203125 -2.515625 "/></g></g></g><g fill="#000000" fill-opacity="1"><g transform="translate(46.456108, 91.992279)"><g><path d="M 0.1875 -3.625 L 0.1875 -3.796875 C 0.3125 -3.785156 0.582031 -3.78125 1 -3.78125 C 1.414062 -3.78125 1.691406 -3.785156 1.828125 -3.796875 L 1.828125 -3.625 L 1.6875 -3.625 C 1.488281 -3.625 1.363281 -3.609375 1.3125 -3.578125 C 1.269531 -3.546875 1.25 -3.472656 1.25 -3.359375 L 1.25 -1.25 C 1.25 -1 1.28125 -0.785156 1.34375 -0.609375 C 1.414062 -0.441406 1.503906 -0.320312 1.609375 -0.25 C 1.722656 -0.175781 1.820312 -0.125 1.90625 -0.09375 C 2 -0.0625 2.085938 -0.046875 2.171875 -0.046875 C 2.453125 -0.046875 2.695312 -0.15625 2.90625 -0.375 C 3.125 -0.601562 3.234375 -0.90625 3.234375 -1.28125 L 3.234375 -3.21875 C 3.234375 -3.269531 3.226562 -3.3125 3.21875 -3.34375 C 3.21875 -3.375 3.203125 -3.414062 3.171875 -3.46875 C 3.140625 -3.519531 3.078125 -3.554688 2.984375 -3.578125 C 2.898438 -3.609375 2.796875 -3.625 2.671875 -3.625 L 2.671875 -3.796875 C 3.066406 -3.785156 3.285156 -3.78125 3.328125 -3.78125 C 3.359375 -3.78125 3.578125 -3.785156 3.984375 -3.796875 L 3.984375 -3.625 C 3.847656 -3.625 3.738281 -3.613281 3.65625 -3.59375 C 3.570312 -3.570312 3.515625 -3.53125 3.484375 -3.46875 C 3.453125 -3.414062 3.429688 -3.367188 3.421875 -3.328125 C 3.410156 -3.296875 3.40625 -3.25 3.40625 -3.1875 L 3.40625 -1.40625 C 3.40625 -1.226562 3.398438 -1.101562 3.390625 -1.03125 C 3.335938 -0.707031 3.195312 -0.429688 2.96875 -0.203125 C 2.738281 0.015625 2.46875 0.125 2.15625 0.125 C 1.78125 0.125 1.453125 -0.0078125 1.171875 -0.28125 C 0.890625 -0.550781 0.75 -0.878906 0.75 -1.265625 L 0.75 -3.359375 C 0.75 -3.472656 0.722656 -3.546875 0.671875 -3.578125 C 0.628906 -3.609375 0.507812 -3.625 0.3125 -3.625 Z M 0.1875 -3.625 "/></g></g></g><g fill="#000000" fill-opacity="1"><g transform="translate(53.681414, 91.992279)"><g><path d="M 0.203125 -2.515625 L 0.3125 -3.765625 L 3.703125 -3.765625 L 3.8125 -2.515625 L 3.671875 -2.515625 C 3.660156 -2.679688 3.644531 -2.8125 3.625 -2.90625 C 3.613281 -3 3.59375 -3.09375 3.5625 -3.1875 C 3.53125 -3.28125 3.492188 -3.347656 3.453125 -3.390625 C 3.410156 -3.429688 3.351562 -3.46875 3.28125 -3.5 C 3.207031 -3.539062 3.125 -3.566406 3.03125 -3.578125 C 2.9375 -3.585938 2.816406 -3.59375 2.671875 -3.59375 C 2.503906 -3.59375 2.398438 -3.585938 2.359375 -3.578125 C 2.304688 -3.566406 2.273438 -3.546875 2.265625 -3.515625 C 2.253906 -3.484375 2.25 -3.4375 2.25 -3.375 L 2.25 -0.4375 C 2.25 -0.363281 2.253906 -0.3125 2.265625 -0.28125 C 2.285156 -0.25 2.335938 -0.222656 2.421875 -0.203125 C 2.503906 -0.179688 2.640625 -0.171875 2.828125 -0.171875 L 3.0625 -0.171875 L 3.0625 0 C 2.90625 -0.0078125 2.550781 -0.015625 2 -0.015625 C 1.445312 -0.015625 1.097656 -0.0078125 0.953125 0 L 0.953125 -0.171875 L 1.171875 -0.171875 C 1.359375 -0.171875 1.492188 -0.179688 1.578125 -0.203125 C 1.671875 -0.222656 1.722656 -0.25 1.734375 -0.28125 C 1.742188 -0.3125 1.75 -0.363281 1.75 -0.4375 L 1.75 -3.375 C 1.75 -3.425781 1.75 -3.460938 1.75 -3.484375 C 1.75 -3.503906 1.738281 -3.523438 1.71875 -3.546875 C 1.707031 -3.566406 1.679688 -3.578125 1.640625 -3.578125 C 1.609375 -3.585938 1.507812 -3.59375 1.34375 -3.59375 C 1.195312 -3.59375 1.070312 -3.585938 0.96875 -3.578125 C 0.875 -3.566406 0.789062 -3.539062 0.71875 -3.5 C 0.644531 -3.46875 0.585938 -3.429688 0.546875 -3.390625 C 0.515625 -3.347656 0.484375 -3.28125 0.453125 -3.1875 C 0.421875 -3.09375 0.394531 -3 0.375 -2.90625 C 0.363281 -2.8125 0.351562 -2.679688 0.34375 -2.515625 Z M 0.203125 -2.515625 "/></g></g></g><g fill="#000000" fill-opacity="1"><g transform="translate(60.749319, 91.992279)"><g><path d="M 0.5625 -0.078125 C 0.507812 -0.140625 0.484375 -0.207031 0.484375 -0.28125 C 0.484375 -0.363281 0.507812 -0.4375 0.5625 -0.5 C 0.613281 -0.5625 0.6875 -0.59375 0.78125 -0.59375 C 0.882812 -0.59375 0.96875 -0.535156 1.03125 -0.421875 C 1.09375 -0.316406 1.125 -0.175781 1.125 0 C 1.125 0.1875 1.082031 0.367188 1 0.546875 C 0.925781 0.722656 0.851562 0.851562 0.78125 0.9375 C 0.707031 1.03125 0.65625 1.078125 0.625 1.078125 C 0.582031 1.078125 0.5625 1.054688 0.5625 1.015625 C 0.5625 0.992188 0.578125 0.972656 0.609375 0.953125 C 0.867188 0.660156 1 0.34375 1 0 C 1 -0.0625 1 -0.09375 1 -0.09375 L 0.984375 -0.078125 C 0.921875 -0.0234375 0.851562 0 0.78125 0 C 0.6875 0 0.613281 -0.0234375 0.5625 -0.078125 Z M 0.5625 -0.078125 "/></g></g></g><g fill="#000000" fill-opacity="1"><g transform="translate(65.344922, 91.992279)"><g><path d="M 0.3125 -1.90625 C 0.3125 -2.457031 0.5 -2.929688 0.875 -3.328125 C 1.257812 -3.722656 1.71875 -3.921875 2.25 -3.921875 C 2.40625 -3.921875 2.554688 -3.890625 2.703125 -3.828125 C 2.847656 -3.773438 2.953125 -3.722656 3.015625 -3.671875 C 3.085938 -3.617188 3.171875 -3.539062 3.265625 -3.4375 L 3.546875 -3.859375 C 3.578125 -3.898438 3.609375 -3.921875 3.640625 -3.921875 C 3.671875 -3.921875 3.6875 -3.910156 3.6875 -3.890625 C 3.695312 -3.878906 3.703125 -3.84375 3.703125 -3.78125 L 3.703125 -2.46875 C 3.703125 -2.40625 3.695312 -2.363281 3.6875 -2.34375 C 3.675781 -2.332031 3.648438 -2.328125 3.609375 -2.328125 C 3.578125 -2.328125 3.554688 -2.332031 3.546875 -2.34375 C 3.535156 -2.363281 3.523438 -2.394531 3.515625 -2.4375 C 3.460938 -2.832031 3.320312 -3.148438 3.09375 -3.390625 C 2.875 -3.628906 2.613281 -3.75 2.3125 -3.75 C 2.21875 -3.75 2.117188 -3.738281 2.015625 -3.71875 C 1.921875 -3.695312 1.800781 -3.644531 1.65625 -3.5625 C 1.519531 -3.488281 1.394531 -3.390625 1.28125 -3.265625 C 1.175781 -3.140625 1.082031 -2.957031 1 -2.71875 C 0.925781 -2.488281 0.890625 -2.210938 0.890625 -1.890625 C 0.890625 -1.578125 0.925781 -1.300781 1 -1.0625 C 1.082031 -0.832031 1.175781 -0.65625 1.28125 -0.53125 C 1.394531 -0.40625 1.519531 -0.300781 1.65625 -0.21875 C 1.800781 -0.144531 1.925781 -0.0976562 2.03125 -0.078125 C 2.132812 -0.0546875 2.226562 -0.046875 2.3125 -0.046875 C 2.632812 -0.046875 2.914062 -0.160156 3.15625 -0.390625 C 3.40625 -0.617188 3.539062 -0.921875 3.5625 -1.296875 C 3.5625 -1.316406 3.5625 -1.332031 3.5625 -1.34375 C 3.5625 -1.351562 3.5625 -1.359375 3.5625 -1.359375 C 3.570312 -1.367188 3.582031 -1.375 3.59375 -1.375 C 3.601562 -1.382812 3.613281 -1.390625 3.625 -1.390625 C 3.675781 -1.390625 3.703125 -1.359375 3.703125 -1.296875 C 3.703125 -0.941406 3.566406 -0.613281 3.296875 -0.3125 C 3.023438 -0.0195312 2.675781 0.125 2.25 0.125 C 1.71875 0.125 1.257812 -0.0664062 0.875 -0.453125 C 0.5 -0.847656 0.3125 -1.332031 0.3125 -1.90625 Z M 0.3125 -1.90625 "/></g></g></g><g fill="#000000" fill-opacity="1"><g transform="translate(72.41283, 91.992279)"><g><path d="M 0.3125 -1.890625 C 0.3125 -2.453125 0.492188 -2.929688 0.859375 -3.328125 C 1.222656 -3.722656 1.65625 -3.921875 2.15625 -3.921875 C 2.664062 -3.921875 3.101562 -3.722656 3.46875 -3.328125 C 3.832031 -2.929688 4.015625 -2.453125 4.015625 -1.890625 C 4.015625 -1.328125 3.832031 -0.847656 3.46875 -0.453125 C 3.101562 -0.0664062 2.664062 0.125 2.15625 0.125 C 1.65625 0.125 1.222656 -0.0664062 0.859375 -0.453125 C 0.492188 -0.847656 0.3125 -1.328125 0.3125 -1.890625 Z M 0.890625 -1.96875 C 0.890625 -1.625 0.925781 -1.316406 1 -1.046875 C 1.082031 -0.785156 1.191406 -0.582031 1.328125 -0.4375 C 1.460938 -0.300781 1.597656 -0.195312 1.734375 -0.125 C 1.878906 -0.0507812 2.023438 -0.015625 2.171875 -0.015625 C 2.304688 -0.015625 2.441406 -0.046875 2.578125 -0.109375 C 2.722656 -0.179688 2.859375 -0.285156 2.984375 -0.421875 C 3.117188 -0.566406 3.226562 -0.769531 3.3125 -1.03125 C 3.394531 -1.300781 3.4375 -1.613281 3.4375 -1.96875 C 3.4375 -2.238281 3.40625 -2.484375 3.34375 -2.703125 C 3.289062 -2.921875 3.21875 -3.09375 3.125 -3.21875 C 3.039062 -3.351562 2.9375 -3.460938 2.8125 -3.546875 C 2.695312 -3.640625 2.582031 -3.703125 2.46875 -3.734375 C 2.363281 -3.765625 2.257812 -3.78125 2.15625 -3.78125 C 2.03125 -3.78125 1.898438 -3.75 1.765625 -3.6875 C 1.628906 -3.632812 1.488281 -3.546875 1.34375 -3.421875 C 1.207031 -3.296875 1.097656 -3.101562 1.015625 -2.84375 C 0.929688 -2.59375 0.890625 -2.300781 0.890625 -1.96875 Z M 0.890625 -1.96875 "/></g></g></g><g fill="#000000" fill-opacity="1"><g transform="translate(79.787401, 91.992279)"><g><path d="M 0.15625 0 L 0.15625 -0.171875 L 0.296875 -0.171875 C 0.503906 -0.171875 0.628906 -0.1875 0.671875 -0.21875 C 0.722656 -0.25 0.75 -0.320312 0.75 -0.4375 L 0.75 -3.359375 C 0.75 -3.472656 0.722656 -3.546875 0.671875 -3.578125 C 0.628906 -3.609375 0.503906 -3.625 0.296875 -3.625 L 0.15625 -3.625 L 0.15625 -3.796875 C 0.28125 -3.785156 0.5625 -3.78125 1 -3.78125 C 1.4375 -3.78125 1.722656 -3.785156 1.859375 -3.796875 L 1.859375 -3.625 L 1.703125 -3.625 C 1.492188 -3.625 1.363281 -3.609375 1.3125 -3.578125 C 1.269531 -3.546875 1.25 -3.472656 1.25 -3.359375 L 1.25 -0.4375 C 1.25 -0.332031 1.269531 -0.257812 1.3125 -0.21875 C 1.363281 -0.1875 1.492188 -0.171875 1.703125 -0.171875 L 1.859375 -0.171875 L 1.859375 0 C 1.722656 -0.0078125 1.4375 -0.015625 1 -0.015625 C 0.5625 -0.015625 0.28125 -0.0078125 0.15625 0 Z M 0.15625 0 "/></g></g></g><g fill="#000000" fill-opacity="1"><g transform="translate(84.849787, 91.992279)"><g><path d="M 0.1875 0 L 0.1875 -0.171875 L 0.3125 -0.171875 C 0.519531 -0.171875 0.644531 -0.1875 0.6875 -0.21875 C 0.726562 -0.25 0.75 -0.320312 0.75 -0.4375 L 0.75 -3.34375 C 0.75 -3.457031 0.722656 -3.53125 0.671875 -3.5625 C 0.628906 -3.59375 0.507812 -3.609375 0.3125 -3.609375 L 0.1875 -3.609375 L 0.1875 -3.78125 L 3.234375 -3.78125 L 3.390625 -2.53125 L 3.25 -2.53125 C 3.226562 -2.738281 3.195312 -2.898438 3.15625 -3.015625 C 3.125 -3.140625 3.070312 -3.25 3 -3.34375 C 2.925781 -3.445312 2.820312 -3.515625 2.6875 -3.546875 C 2.5625 -3.585938 2.394531 -3.609375 2.1875 -3.609375 L 1.53125 -3.609375 C 1.394531 -3.609375 1.3125 -3.59375 1.28125 -3.5625 C 1.257812 -3.539062 1.25 -3.484375 1.25 -3.390625 L 1.25 -1.984375 L 1.734375 -1.984375 C 1.984375 -1.984375 2.140625 -2.023438 2.203125 -2.109375 C 2.273438 -2.203125 2.3125 -2.375 2.3125 -2.625 L 2.453125 -2.625 L 2.453125 -1.15625 L 2.3125 -1.15625 C 2.3125 -1.414062 2.273438 -1.585938 2.203125 -1.671875 C 2.140625 -1.765625 1.984375 -1.8125 1.734375 -1.8125 L 1.25 -1.8125 L 1.25 -0.4375 C 1.25 -0.363281 1.253906 -0.3125 1.265625 -0.28125 C 1.285156 -0.25 1.332031 -0.222656 1.40625 -0.203125 C 1.488281 -0.179688 1.613281 -0.171875 1.78125 -0.171875 L 1.96875 -0.171875 L 1.96875 0 C 1.832031 -0.0078125 1.519531 -0.015625 1.03125 -0.015625 C 0.59375 -0.015625 0.3125 -0.0078125 0.1875 0 Z M 0.1875 0 "/></g></g></g><g fill="#000000" fill-opacity="1"><g transform="translate(91.529617, 91.992279)"><g><path d="M 0.1875 0 L 0.1875 -0.171875 L 0.3125 -0.171875 C 0.519531 -0.171875 0.644531 -0.1875 0.6875 -0.21875 C 0.726562 -0.25 0.75 -0.320312 0.75 -0.4375 L 0.75 -3.34375 C 0.75 -3.457031 0.722656 -3.53125 0.671875 -3.5625 C 0.628906 -3.59375 0.507812 -3.609375 0.3125 -3.609375 L 0.1875 -3.609375 L 0.1875 -3.78125 L 3.234375 -3.78125 L 3.390625 -2.53125 L 3.25 -2.53125 C 3.226562 -2.738281 3.195312 -2.898438 3.15625 -3.015625 C 3.125 -3.140625 3.070312 -3.25 3 -3.34375 C 2.925781 -3.445312 2.820312 -3.515625 2.6875 -3.546875 C 2.5625 -3.585938 2.394531 -3.609375 2.1875 -3.609375 L 1.53125 -3.609375 C 1.394531 -3.609375 1.3125 -3.59375 1.28125 -3.5625 C 1.257812 -3.539062 1.25 -3.484375 1.25 -3.390625 L 1.25 -1.984375 L 1.734375 -1.984375 C 1.984375 -1.984375 2.140625 -2.023438 2.203125 -2.109375 C 2.273438 -2.203125 2.3125 -2.375 2.3125 -2.625 L 2.453125 -2.625 L 2.453125 -1.15625 L 2.3125 -1.15625 C 2.3125 -1.414062 2.273438 -1.585938 2.203125 -1.671875 C 2.140625 -1.765625 1.984375 -1.8125 1.734375 -1.8125 L 1.25 -1.8125 L 1.25 -0.4375 C 1.25 -0.363281 1.253906 -0.3125 1.265625 -0.28125 C 1.285156 -0.25 1.332031 -0.222656 1.40625 -0.203125 C 1.488281 -0.179688 1.613281 -0.171875 1.78125 -0.171875 L 1.96875 -0.171875 L 1.96875 0 C 1.832031 -0.0078125 1.519531 -0.015625 1.03125 -0.015625 C 0.59375 -0.015625 0.3125 -0.0078125 0.1875 0 Z M 0.1875 0 "/></g></g></g><g fill="#000000" fill-opacity="1"><g transform="translate(98.209447, 91.992279)"><g><path d="M 0.1875 0 L 0.1875 -0.171875 L 0.3125 -0.171875 C 0.519531 -0.171875 0.644531 -0.1875 0.6875 -0.21875 C 0.726562 -0.25 0.75 -0.320312 0.75 -0.4375 L 0.75 -3.34375 C 0.75 -3.457031 0.722656 -3.53125 0.671875 -3.5625 C 0.628906 -3.59375 0.507812 -3.609375 0.3125 -3.609375 L 0.1875 -3.609375 L 0.1875 -3.78125 L 3.3125 -3.78125 L 3.46875 -2.53125 L 3.328125 -2.53125 C 3.304688 -2.738281 3.273438 -2.90625 3.234375 -3.03125 C 3.203125 -3.15625 3.144531 -3.265625 3.0625 -3.359375 C 2.988281 -3.453125 2.882812 -3.515625 2.75 -3.546875 C 2.625 -3.585938 2.453125 -3.609375 2.234375 -3.609375 L 1.53125 -3.609375 C 1.394531 -3.609375 1.3125 -3.59375 1.28125 -3.5625 C 1.257812 -3.539062 1.25 -3.484375 1.25 -3.390625 L 1.25 -2.046875 L 1.75 -2.046875 C 2.007812 -2.046875 2.175781 -2.085938 2.25 -2.171875 C 2.320312 -2.265625 2.359375 -2.441406 2.359375 -2.703125 L 2.5 -2.703125 L 2.5 -1.234375 L 2.359375 -1.234375 C 2.359375 -1.484375 2.320312 -1.648438 2.25 -1.734375 C 2.175781 -1.828125 2.007812 -1.875 1.75 -1.875 L 1.25 -1.875 L 1.25 -0.390625 C 1.25 -0.296875 1.265625 -0.234375 1.296875 -0.203125 C 1.328125 -0.179688 1.40625 -0.171875 1.53125 -0.171875 L 2.265625 -0.171875 C 2.421875 -0.171875 2.554688 -0.179688 2.671875 -0.203125 C 2.796875 -0.222656 2.894531 -0.257812 2.96875 -0.3125 C 3.050781 -0.363281 3.117188 -0.414062 3.171875 -0.46875 C 3.234375 -0.53125 3.28125 -0.613281 3.3125 -0.71875 C 3.351562 -0.832031 3.382812 -0.9375 3.40625 -1.03125 C 3.4375 -1.132812 3.460938 -1.269531 3.484375 -1.4375 L 3.625 -1.4375 L 3.390625 0 Z M 0.1875 0 "/></g></g></g><g fill="#000000" fill-opacity="1"><g transform="translate(105.043965, 91.992279)"><g><path d="M 0.1875 -3.625 L 0.1875 -3.796875 C 0.3125 -3.785156 0.582031 -3.78125 1 -3.78125 C 1.414062 -3.78125 1.691406 -3.785156 1.828125 -3.796875 L 1.828125 -3.625 L 1.6875 -3.625 C 1.488281 -3.625 1.363281 -3.609375 1.3125 -3.578125 C 1.269531 -3.546875 1.25 -3.472656 1.25 -3.359375 L 1.25 -1.25 C 1.25 -1 1.28125 -0.785156 1.34375 -0.609375 C 1.414062 -0.441406 1.503906 -0.320312 1.609375 -0.25 C 1.722656 -0.175781 1.820312 -0.125 1.90625 -0.09375 C 2 -0.0625 2.085938 -0.046875 2.171875 -0.046875 C 2.453125 -0.046875 2.695312 -0.15625 2.90625 -0.375 C 3.125 -0.601562 3.234375 -0.90625 3.234375 -1.28125 L 3.234375 -3.21875 C 3.234375 -3.269531 3.226562 -3.3125 3.21875 -3.34375 C 3.21875 -3.375 3.203125 -3.414062 3.171875 -3.46875 C 3.140625 -3.519531 3.078125 -3.554688 2.984375 -3.578125 C 2.898438 -3.609375 2.796875 -3.625 2.671875 -3.625 L 2.671875 -3.796875 C 3.066406 -3.785156 3.285156 -3.78125 3.328125 -3.78125 C 3.359375 -3.78125 3.578125 -3.785156 3.984375 -3.796875 L 3.984375 -3.625 C 3.847656 -3.625 3.738281 -3.613281 3.65625 -3.59375 C 3.570312 -3.570312 3.515625 -3.53125 3.484375 -3.46875 C 3.453125 -3.414062 3.429688 -3.367188 3.421875 -3.328125 C 3.410156 -3.296875 3.40625 -3.25 3.40625 -3.1875 L 3.40625 -1.40625 C 3.40625 -1.226562 3.398438 -1.101562 3.390625 -1.03125 C 3.335938 -0.707031 3.195312 -0.429688 2.96875 -0.203125 C 2.738281 0.015625 2.46875 0.125 2.15625 0.125 C 1.78125 0.125 1.453125 -0.0078125 1.171875 -0.28125 C 0.890625 -0.550781 0.75 -0.878906 0.75 -1.265625 L 0.75 -3.359375 C 0.75 -3.472656 0.722656 -3.546875 0.671875 -3.578125 C 0.628906 -3.609375 0.507812 -3.625 0.3125 -3.625 Z M 0.1875 -3.625 "/></g></g></g><g fill="#000000" fill-opacity="1"><g transform="translate(112.269275, 91.992279)"><g><path d="M 0.203125 0 L 0.203125 -0.171875 L 0.328125 -0.171875 C 0.523438 -0.171875 0.644531 -0.1875 0.6875 -0.21875 C 0.738281 -0.25 0.765625 -0.320312 0.765625 -0.4375 L 0.765625 -3.359375 C 0.765625 -3.472656 0.738281 -3.546875 0.6875 -3.578125 C 0.644531 -3.609375 0.523438 -3.625 0.328125 -3.625 L 0.203125 -3.625 L 0.203125 -3.796875 L 1.9375 -3.796875 C 2.34375 -3.796875 2.6875 -3.695312 2.96875 -3.5 C 3.25 -3.300781 3.390625 -3.066406 3.390625 -2.796875 C 3.390625 -2.585938 3.296875 -2.398438 3.109375 -2.234375 C 2.929688 -2.078125 2.703125 -1.960938 2.421875 -1.890625 C 2.785156 -1.765625 3.007812 -1.550781 3.09375 -1.25 L 3.171875 -0.796875 C 3.179688 -0.691406 3.191406 -0.613281 3.203125 -0.5625 C 3.210938 -0.507812 3.222656 -0.441406 3.234375 -0.359375 C 3.253906 -0.285156 3.273438 -0.234375 3.296875 -0.203125 C 3.316406 -0.171875 3.335938 -0.132812 3.359375 -0.09375 C 3.378906 -0.0507812 3.40625 -0.0234375 3.4375 -0.015625 C 3.476562 -0.00390625 3.519531 0 3.5625 0 C 3.644531 0 3.722656 -0.0351562 3.796875 -0.109375 C 3.867188 -0.191406 3.914062 -0.320312 3.9375 -0.5 C 3.9375 -0.550781 3.957031 -0.578125 4 -0.578125 C 4.050781 -0.578125 4.078125 -0.550781 4.078125 -0.5 C 4.078125 -0.445312 4.066406 -0.390625 4.046875 -0.328125 C 4.035156 -0.265625 4.007812 -0.195312 3.96875 -0.125 C 3.9375 -0.0507812 3.878906 0.00390625 3.796875 0.046875 C 3.722656 0.0976562 3.640625 0.125 3.546875 0.125 C 3.253906 0.125 3.019531 0.046875 2.84375 -0.109375 C 2.769531 -0.179688 2.710938 -0.257812 2.671875 -0.34375 C 2.640625 -0.425781 2.617188 -0.5 2.609375 -0.5625 C 2.609375 -0.632812 2.609375 -0.75 2.609375 -0.90625 C 2.609375 -1.125 2.597656 -1.28125 2.578125 -1.375 C 2.554688 -1.46875 2.5 -1.5625 2.40625 -1.65625 C 2.269531 -1.78125 2.097656 -1.84375 1.890625 -1.84375 L 1.25 -1.84375 L 1.25 -0.4375 C 1.25 -0.332031 1.269531 -0.257812 1.3125 -0.21875 C 1.363281 -0.1875 1.488281 -0.171875 1.6875 -0.171875 L 1.8125 -0.171875 L 1.8125 0 C 1.6875 -0.0078125 1.414062 -0.015625 1 -0.015625 C 0.59375 -0.015625 0.328125 -0.0078125 0.203125 0 Z M 1.25 -1.96875 L 1.859375 -1.96875 C 2.054688 -1.96875 2.222656 -1.988281 2.359375 -2.03125 C 2.492188 -2.082031 2.59375 -2.148438 2.65625 -2.234375 C 2.71875 -2.328125 2.757812 -2.414062 2.78125 -2.5 C 2.800781 -2.582031 2.8125 -2.679688 2.8125 -2.796875 C 2.8125 -2.929688 2.796875 -3.046875 2.765625 -3.140625 C 2.742188 -3.234375 2.703125 -3.304688 2.640625 -3.359375 C 2.578125 -3.421875 2.515625 -3.472656 2.453125 -3.515625 C 2.390625 -3.554688 2.304688 -3.582031 2.203125 -3.59375 C 2.109375 -3.601562 2.023438 -3.609375 1.953125 -3.609375 C 1.890625 -3.617188 1.804688 -3.625 1.703125 -3.625 C 1.515625 -3.625 1.40625 -3.617188 1.375 -3.609375 C 1.332031 -3.609375 1.300781 -3.597656 1.28125 -3.578125 C 1.257812 -3.554688 1.25 -3.535156 1.25 -3.515625 C 1.25 -3.492188 1.25 -3.457031 1.25 -3.40625 Z M 1.25 -1.96875 "/></g></g></g><g fill="#000000" fill-opacity="1"><g transform="translate(119.415884, 91.992279)"><g><path d="M 0.5625 -0.078125 C 0.507812 -0.140625 0.484375 -0.207031 0.484375 -0.28125 C 0.484375 -0.363281 0.507812 -0.4375 0.5625 -0.5 C 0.613281 -0.5625 0.6875 -0.59375 0.78125 -0.59375 C 0.882812 -0.59375 0.96875 -0.535156 1.03125 -0.421875 C 1.09375 -0.316406 1.125 -0.175781 1.125 0 C 1.125 0.1875 1.082031 0.367188 1 0.546875 C 0.925781 0.722656 0.851562 0.851562 0.78125 0.9375 C 0.707031 1.03125 0.65625 1.078125 0.625 1.078125 C 0.582031 1.078125 0.5625 1.054688 0.5625 1.015625 C 0.5625 0.992188 0.578125 0.972656 0.609375 0.953125 C 0.867188 0.660156 1 0.34375 1 0 C 1 -0.0625 1 -0.09375 1 -0.09375 L 0.984375 -0.078125 C 0.921875 -0.0234375 0.851562 0 0.78125 0 C 0.6875 0 0.613281 -0.0234375 0.5625 -0.078125 Z M 0.5625 -0.078125 "/></g></g></g><g fill="#000000" fill-opacity="1"><g transform="translate(124.011491, 91.992279)"><g><path d="M 0.3125 -0.015625 L 0.3125 -1.125 C 0.3125 -1.164062 0.3125 -1.191406 0.3125 -1.203125 C 0.3125 -1.222656 0.316406 -1.238281 0.328125 -1.25 C 0.335938 -1.257812 0.359375 -1.265625 0.390625 -1.265625 C 0.429688 -1.265625 0.453125 -1.242188 0.453125 -1.203125 C 0.460938 -0.835938 0.578125 -0.550781 0.796875 -0.34375 C 1.015625 -0.144531 1.304688 -0.046875 1.671875 -0.046875 C 1.890625 -0.046875 2.066406 -0.125 2.203125 -0.28125 C 2.347656 -0.445312 2.421875 -0.632812 2.421875 -0.84375 C 2.421875 -1.039062 2.363281 -1.210938 2.25 -1.359375 C 2.195312 -1.421875 2.140625 -1.472656 2.078125 -1.515625 C 2.015625 -1.554688 1.960938 -1.582031 1.921875 -1.59375 C 1.890625 -1.601562 1.84375 -1.617188 1.78125 -1.640625 C 1.3125 -1.753906 1.066406 -1.816406 1.046875 -1.828125 C 0.828125 -1.898438 0.648438 -2.03125 0.515625 -2.21875 C 0.378906 -2.40625 0.3125 -2.613281 0.3125 -2.84375 C 0.3125 -3.144531 0.414062 -3.398438 0.625 -3.609375 C 0.832031 -3.816406 1.085938 -3.921875 1.390625 -3.921875 C 1.546875 -3.921875 1.6875 -3.894531 1.8125 -3.84375 C 1.9375 -3.800781 2.023438 -3.753906 2.078125 -3.703125 C 2.140625 -3.660156 2.207031 -3.601562 2.28125 -3.53125 L 2.484375 -3.84375 C 2.503906 -3.894531 2.53125 -3.921875 2.5625 -3.921875 C 2.59375 -3.921875 2.609375 -3.910156 2.609375 -3.890625 C 2.617188 -3.878906 2.625 -3.84375 2.625 -3.78125 L 2.625 -2.671875 C 2.625 -2.628906 2.625 -2.597656 2.625 -2.578125 C 2.625 -2.566406 2.613281 -2.554688 2.59375 -2.546875 C 2.582031 -2.535156 2.566406 -2.53125 2.546875 -2.53125 C 2.515625 -2.53125 2.492188 -2.554688 2.484375 -2.609375 C 2.378906 -3.378906 2.019531 -3.765625 1.40625 -3.765625 C 1.1875 -3.765625 1.007812 -3.691406 0.875 -3.546875 C 0.738281 -3.410156 0.671875 -3.238281 0.671875 -3.03125 C 0.671875 -2.875 0.71875 -2.726562 0.8125 -2.59375 C 0.914062 -2.457031 1.054688 -2.367188 1.234375 -2.328125 L 1.9375 -2.15625 C 2.175781 -2.101562 2.375 -1.96875 2.53125 -1.75 C 2.695312 -1.539062 2.78125 -1.300781 2.78125 -1.03125 C 2.78125 -0.71875 2.675781 -0.445312 2.46875 -0.21875 C 2.257812 0.0078125 1.992188 0.125 1.671875 0.125 C 1.441406 0.125 1.238281 0.0820312 1.0625 0 C 0.882812 -0.0703125 0.75 -0.160156 0.65625 -0.265625 C 0.582031 -0.140625 0.519531 -0.046875 0.46875 0.015625 L 0.453125 0.046875 C 0.421875 0.0976562 0.394531 0.125 0.375 0.125 C 0.34375 0.125 0.320312 0.113281 0.3125 0.09375 C 0.3125 0.0703125 0.3125 0.0351562 0.3125 -0.015625 Z M 0.3125 -0.015625 "/></g></g></g><g fill="#000000" fill-opacity="1"><g transform="translate(130.151268, 91.992279)"><g><path d="M 0.203125 0 L 0.203125 -0.171875 L 0.328125 -0.171875 C 0.523438 -0.171875 0.644531 -0.1875 0.6875 -0.21875 C 0.738281 -0.25 0.765625 -0.320312 0.765625 -0.4375 L 0.765625 -3.359375 C 0.765625 -3.472656 0.738281 -3.546875 0.6875 -3.578125 C 0.644531 -3.609375 0.523438 -3.625 0.328125 -3.625 L 0.203125 -3.625 L 0.203125 -3.796875 L 2.15625 -3.796875 C 2.53125 -3.796875 2.84375 -3.691406 3.09375 -3.484375 C 3.34375 -3.285156 3.46875 -3.046875 3.46875 -2.765625 C 3.46875 -2.492188 3.335938 -2.253906 3.078125 -2.046875 C 2.828125 -1.847656 2.535156 -1.75 2.203125 -1.75 L 1.265625 -1.75 L 1.265625 -0.4375 C 1.265625 -0.332031 1.285156 -0.257812 1.328125 -0.21875 C 1.378906 -0.1875 1.503906 -0.171875 1.703125 -0.171875 L 1.84375 -0.171875 L 1.84375 0 C 1.707031 -0.0078125 1.429688 -0.015625 1.015625 -0.015625 C 0.597656 -0.015625 0.328125 -0.0078125 0.203125 0 Z M 1.25 -1.90625 L 2.015625 -1.90625 C 2.179688 -1.90625 2.320312 -1.925781 2.4375 -1.96875 C 2.5625 -2.019531 2.648438 -2.070312 2.703125 -2.125 C 2.765625 -2.1875 2.8125 -2.265625 2.84375 -2.359375 C 2.875 -2.453125 2.890625 -2.519531 2.890625 -2.5625 C 2.890625 -2.613281 2.890625 -2.679688 2.890625 -2.765625 C 2.890625 -2.847656 2.890625 -2.914062 2.890625 -2.96875 C 2.890625 -3.019531 2.875 -3.09375 2.84375 -3.1875 C 2.8125 -3.28125 2.765625 -3.351562 2.703125 -3.40625 C 2.648438 -3.46875 2.5625 -3.519531 2.4375 -3.5625 C 2.320312 -3.601562 2.179688 -3.625 2.015625 -3.625 L 1.515625 -3.625 C 1.390625 -3.625 1.3125 -3.609375 1.28125 -3.578125 C 1.257812 -3.554688 1.25 -3.5 1.25 -3.40625 Z M 1.25 -1.90625 "/></g></g></g><g fill="#000000" fill-opacity="1"><g transform="translate(136.985787, 91.992279)"><g><path d="M 0.171875 0 L 0.171875 -0.171875 C 0.503906 -0.179688 0.710938 -0.304688 0.796875 -0.546875 L 1.953125 -3.875 C 1.960938 -3.914062 1.976562 -3.941406 2 -3.953125 C 2.019531 -3.972656 2.050781 -3.984375 2.09375 -3.984375 C 2.113281 -3.984375 2.128906 -3.976562 2.140625 -3.96875 C 2.148438 -3.96875 2.160156 -3.960938 2.171875 -3.953125 C 2.179688 -3.941406 2.1875 -3.929688 2.1875 -3.921875 C 2.195312 -3.910156 2.207031 -3.894531 2.21875 -3.875 L 3.421875 -0.390625 C 3.441406 -0.296875 3.484375 -0.234375 3.546875 -0.203125 C 3.609375 -0.179688 3.722656 -0.171875 3.890625 -0.171875 L 3.984375 -0.171875 L 3.984375 0 C 3.753906 -0.0078125 3.515625 -0.015625 3.265625 -0.015625 C 2.859375 -0.015625 2.585938 -0.0078125 2.453125 0 L 2.453125 -0.171875 C 2.765625 -0.171875 2.921875 -0.226562 2.921875 -0.34375 C 2.921875 -0.34375 2.914062 -0.367188 2.90625 -0.421875 L 2.609375 -1.265625 L 1.234375 -1.265625 L 0.984375 -0.546875 C 0.972656 -0.523438 0.96875 -0.492188 0.96875 -0.453125 C 0.96875 -0.378906 1.003906 -0.3125 1.078125 -0.25 C 1.148438 -0.195312 1.253906 -0.171875 1.390625 -0.171875 L 1.390625 0 C 1.023438 -0.0078125 0.8125 -0.015625 0.75 -0.015625 C 0.625 -0.015625 0.429688 -0.0078125 0.171875 0 Z M 1.296875 -1.4375 L 2.546875 -1.4375 L 1.921875 -3.25 Z M 1.296875 -1.4375 "/></g></g></g></svg>