<svg width="22" height="22" viewBox="0 0 22 22" fill="none" xmlns="http://www.w3.org/2000/svg">
<path d="M21.6016 10.8135C21.6 13.3896 20.6854 15.8806 19.0222 17.839C17.3589 19.7975 15.0559 21.0949 12.5272 21.4981V13.9612H15.0251L15.5006 10.8409H12.5272V8.81748C12.5067 8.58476 12.5385 8.35038 12.6202 8.13167C12.7019 7.91297 12.8314 7.71553 12.9991 7.55395C13.1668 7.39236 13.3685 7.27077 13.5892 7.19816C13.8099 7.12554 14.044 7.10376 14.2742 7.13442H15.6256V4.47935C14.8317 4.35023 14.0295 4.27975 13.2254 4.2685C10.7764 4.2685 9.1769 5.7615 9.1769 8.4648V10.8419H6.45157V13.9622H9.1769V21.5C7.14741 21.178 5.25215 20.2775 3.71555 18.9053C2.17894 17.5331 1.06536 15.7465 0.506656 13.7572C-0.0520443 11.7679 -0.0324559 9.65923 0.563101 7.68079C1.15866 5.70236 2.30524 3.93707 3.86707 2.59398C5.42889 1.25088 7.34055 0.386239 9.37566 0.102429C11.4108 -0.181381 13.4841 0.127533 15.3501 0.992591C17.2161 1.85765 18.7967 3.24262 19.9046 4.98349C21.0126 6.72436 21.6014 8.74822 21.6016 10.8154V10.8135Z" fill="white"/>
</svg>
