<svg width="23" height="22" viewBox="0 0 23 22" fill="none" xmlns="http://www.w3.org/2000/svg">
<path d="M11.5014 1.9372C14.3722 1.9372 14.7125 1.94754 15.8461 2.00017C17.033 1.9731 18.1868 2.392 19.0798 3.17415C19.8648 4.0651 20.2844 5.21955 20.2548 6.40657C20.3065 7.54013 20.3178 7.88039 20.3178 10.7509C20.3178 13.6215 20.3074 13.9617 20.2548 15.0953C20.2793 16.2818 19.8604 17.4347 19.0798 18.3287C18.1888 19.1137 17.0342 19.5333 15.8471 19.5036C14.7134 19.5553 14.3731 19.5666 11.5023 19.5666C8.63153 19.5666 8.29124 19.5562 7.15759 19.5036C5.97155 19.5249 4.81963 19.1063 3.92394 18.3287C3.1412 17.4364 2.72188 16.2828 2.74892 15.0962C2.69722 13.9627 2.68594 13.6224 2.68594 10.7519C2.68594 7.88133 2.69628 7.54107 2.74892 6.40751C2.72616 5.22162 3.14493 4.06958 3.92394 3.17509C4.81549 2.39105 5.96968 1.97156 7.15665 2.00017C8.2903 1.94848 8.63059 1.9372 11.5014 1.9372ZM11.5014 0C8.58171 0 8.21134 0.0122191 7.06829 0.0648553C5.39846 0.0570774 3.78692 0.678216 2.55434 1.80467C1.42727 3.03607 0.805957 4.64711 0.814373 6.31634C0.761732 7.46494 0.749512 7.83151 0.749512 10.7509C0.749512 13.6704 0.761732 14.0407 0.814373 15.1837C0.807805 16.8526 1.42887 18.4629 2.55434 19.6953C3.78614 20.8218 5.39713 21.443 7.06641 21.4351C8.21322 21.4868 8.57983 21.5 11.4995 21.5C14.4192 21.5 14.7896 21.4878 15.9326 21.4351C17.6017 21.442 19.2123 20.8209 20.4447 19.6953C21.572 18.4641 22.1933 16.8529 22.1847 15.1837C22.2364 14.0369 22.2495 13.6704 22.2495 10.7509C22.2495 7.83151 22.2373 7.46118 22.1847 6.31822C22.1917 4.64924 21.5706 3.03869 20.4447 1.80655C19.2125 0.680616 17.6018 0.0595225 15.9326 0.0667352C14.7886 0.0122191 14.422 0 11.5014 0Z" fill="white"/>
<path d="M11.5026 5.23074C10.4105 5.23074 9.34297 5.55455 8.43494 6.16123C7.52691 6.7679 6.81919 7.63019 6.40127 8.63905C5.98335 9.64791 5.874 10.758 6.08706 11.829C6.30011 12.9 6.826 13.8838 7.59821 14.656C8.37043 15.4281 9.35429 15.9539 10.4254 16.167C11.4965 16.38 12.6067 16.2707 13.6156 15.8528C14.6246 15.4349 15.487 14.7272 16.0937 13.8193C16.7004 12.9113 17.0242 11.8439 17.0242 10.7519C17.0242 9.2876 16.4425 7.88327 15.407 6.84785C14.3715 5.81244 12.967 5.23074 11.5026 5.23074ZM11.5026 14.3349C10.7937 14.3349 10.1007 14.1247 9.51129 13.7309C8.92186 13.3371 8.46245 12.7774 8.19116 12.1225C7.91988 11.4676 7.8489 10.747 7.9872 10.0518C8.1255 9.35655 8.46687 8.71795 8.96814 8.21672C9.46941 7.71549 10.1081 7.37416 10.8033 7.23587C11.4986 7.09758 12.2193 7.16855 12.8742 7.43982C13.5292 7.71108 14.089 8.17044 14.4828 8.75982C14.8767 9.3492 15.0869 10.0421 15.0869 10.751C15.0869 11.2216 14.9942 11.6877 14.814 12.1225C14.6339 12.5573 14.3699 12.9524 14.0371 13.2852C13.7042 13.618 13.3091 13.882 12.8742 14.0621C12.4394 14.2422 11.9733 14.3349 11.5026 14.3349Z" fill="white"/>
<path d="M17.2423 6.30319C17.9551 6.30319 18.5329 5.7254 18.5329 5.01266C18.5329 4.29993 17.9551 3.72214 17.2423 3.72214C16.5295 3.72214 15.9517 4.29993 15.9517 5.01266C15.9517 5.7254 16.5295 6.30319 17.2423 6.30319Z" fill="white"/>
</svg>
