<svg width="19" height="22" viewBox="0 0 19 22" fill="none" xmlns="http://www.w3.org/2000/svg">
<path fill-rule="evenodd" clip-rule="evenodd" d="M13.8263 0H10.0549C10.0509 1.88161 10.0467 3.76322 10.0417 5.64483L10.0399 6.32566L10.0395 6.46274C10.0376 7.19615 10.0359 7.92956 10.0345 8.66298C10.033 9.41814 10.0312 10.1733 10.029 10.9285C10.0276 11.3939 10.0264 11.8593 10.0257 12.3247C10.0252 12.6466 10.0245 12.9685 10.0234 13.2904L10.0232 13.3519C10.0226 13.5174 10.022 13.6829 10.0218 13.8484C10.0218 14.0205 10.0216 14.1926 10.0208 14.3647L10.02 14.5537C10.0214 15.4119 9.81528 16.1435 9.28124 16.8264C8.67046 17.4925 7.85486 17.8351 6.96036 17.8901C6.14185 17.9079 5.34294 17.5663 4.74827 17.0138C4.09829 16.3148 3.84305 15.5845 3.84496 14.6409C3.86446 13.7841 4.23175 13.0545 4.84761 12.4647C5.57076 11.8447 6.41512 11.6365 7.34717 11.7011L7.87904 11.7978V7.92969C7.1932 7.83171 6.44562 7.82303 5.76101 7.94498L5.60651 7.97804C4.57669 8.19107 3.62203 8.59645 2.78171 9.23424L2.65705 9.33189C2.61241 9.366 2.56833 9.40034 2.52481 9.435L2.512 9.42859C2.37669 9.53933 2.25003 9.6556 2.12827 9.77628C1.98029 9.91497 1.83964 10.0618 1.70591 10.2211L1.64167 10.2989C1.38085 10.6147 1.1364 10.9387 0.929044 11.2924C0.0578207 12.8489 -0.244803 14.7405 0.210733 16.48L0.239465 16.5846C0.480841 17.4813 0.9163 18.3128 1.46431 19.0591C2.55609 20.4261 4.18203 21.3974 5.92401 21.6372C7.74261 21.8358 9.62652 21.4757 11.084 20.3187L11.2153 20.211C11.2324 20.1976 11.2494 20.1843 11.2665 20.1709C11.4809 20.003 11.6917 19.8379 11.8741 19.6338L11.9889 19.4858C13.5407 17.8628 13.8516 15.9368 13.8416 13.7782C13.8406 13.5563 13.8401 13.3344 13.84 13.1125C13.8396 12.6927 13.8387 12.2728 13.8372 11.853C13.8356 11.3718 13.8346 10.8906 13.8338 10.4095C13.8323 9.41447 13.8299 8.4195 13.8267 7.42452L13.8263 7.30111C13.9012 7.34995 13.9761 7.39875 14.0511 7.44739L14.1446 7.50793C14.4485 7.70639 14.7559 7.87883 15.086 8.03149L15.1802 8.07474C15.9611 8.44009 16.7604 8.68554 17.6125 8.8231L17.7398 8.84232C18.0918 8.89672 18.0918 8.89672 18.9999 8.89672V5.17364C17.6021 4.99891 16.275 4.60034 15.2804 3.54516L15.1802 3.43297C14.5526 2.74499 14.226 2.00342 13.9714 1.11209L13.8263 0Z" fill="white"/>
</svg>
