<svg width="12" height="12" viewBox="0 0 12 12" fill="none" xmlns="http://www.w3.org/2000/svg">
    <g clip-path="url(#clip0_322_920)">
    <path d="M6.24297 2.75338L5.90692 2.42284C5.33395 1.881 4.57229 1.5839 3.78377 1.59466C2.99524 1.60541 2.24197 1.92318 1.68399 2.48044C1.12601 3.03771 0.807274 3.79057 0.795504 4.57908C0.783734 5.36759 1.07985 6.12963 1.62096 6.7033L6.24297 11.3253L10.865 6.69779C11.4061 6.12412 11.7022 5.36208 11.6904 4.57357C11.6787 3.78506 11.3599 3.0322 10.8019 2.47493C10.244 1.91767 9.49069 1.5999 8.70217 1.58915C7.91364 1.57839 7.15199 1.87549 6.57901 2.41733L6.24297 2.75338Z" fill="#2D2D2D"/>
    </g>
    <defs>
    <clipPath id="clip0_322_920">
    <rect width="11.0179" height="11.0179" fill="white" transform="translate(0.734131 0.979492)"/>
    </clipPath>
    </defs>
    </svg>
    