<svg width="22" height="22" viewBox="0 0 22 22" fill="none" xmlns="http://www.w3.org/2000/svg">
<path d="M5.1558 3.63382C5.25154 3.63363 5.34728 3.6334 5.44302 3.63314C5.64281 3.63276 5.84259 3.63286 6.04238 3.63329C6.29792 3.63378 6.55344 3.63291 6.80898 3.63166C7.00634 3.63087 7.2037 3.63088 7.40106 3.63113C7.49528 3.63114 7.58951 3.63088 7.68372 3.63034C7.81543 3.6297 7.9471 3.63016 8.0788 3.6309C8.11734 3.63048 8.15587 3.63007 8.19558 3.62964C8.51583 3.63337 8.74234 3.71733 8.97263 3.94249C9.14436 4.19764 9.24743 4.45647 9.19553 4.76964C9.11302 5.05795 8.97151 5.24787 8.72287 5.41417C8.70076 5.42917 8.67865 5.44416 8.65587 5.45961C8.49743 5.5208 8.33897 5.51228 8.17148 5.51177C8.11401 5.5121 8.11401 5.5121 8.05538 5.51245C7.97222 5.51289 7.88906 5.51314 7.8059 5.51322C7.674 5.51337 7.54212 5.51409 7.41022 5.51497C7.03521 5.51735 6.66021 5.51866 6.2852 5.51972C6.0557 5.5204 5.82621 5.5217 5.59672 5.52336C5.50953 5.52386 5.42234 5.52412 5.33514 5.52412C5.21268 5.52413 5.09025 5.52492 4.96779 5.52587C4.93224 5.52567 4.89668 5.52547 4.86006 5.52527C4.55507 5.52899 4.26662 5.58899 4.00168 5.7445C3.74786 6.02071 3.71344 6.29624 3.71667 6.66055C3.71641 6.70728 3.71614 6.754 3.71586 6.80214C3.71518 6.95823 3.71572 7.1143 3.71626 7.27039C3.71603 7.38249 3.71572 7.49459 3.71535 7.60669C3.71458 7.87927 3.71475 8.15184 3.71525 8.42442C3.71564 8.64602 3.71569 8.86761 3.7155 9.0892C3.71547 9.12078 3.71545 9.15235 3.71542 9.18489C3.71537 9.24904 3.71531 9.31319 3.71525 9.37734C3.71476 9.97845 3.71533 10.5796 3.71625 11.1807C3.71702 11.6961 3.71688 12.2115 3.71609 12.727C3.71517 13.326 3.71481 13.925 3.71534 14.524C3.71539 14.5879 3.71545 14.6518 3.7155 14.7157C3.71554 14.7629 3.71554 14.7629 3.71558 14.811C3.71573 15.0322 3.71548 15.2535 3.71507 15.4747C3.71454 15.7727 3.71492 16.0706 3.71592 16.3686C3.71614 16.4779 3.71608 16.5872 3.7157 16.6966C3.71523 16.8458 3.71582 16.9951 3.71667 17.1444C3.71629 17.1876 3.71591 17.2308 3.71551 17.2754C3.71875 17.5664 3.76798 17.8075 3.97104 18.0265C4.24494 18.2692 4.4916 18.2744 4.84047 18.2733C4.88708 18.2735 4.9337 18.2737 4.98173 18.2739C5.13821 18.2745 5.29469 18.2744 5.45118 18.2743C5.56326 18.2746 5.67534 18.2749 5.78742 18.2752C6.06044 18.2759 6.33347 18.2761 6.6065 18.2762C6.82846 18.2762 7.05043 18.2764 7.27239 18.2767C7.90187 18.2774 8.53135 18.2778 9.16083 18.2778C9.21172 18.2778 9.21172 18.2778 9.26365 18.2778C9.29762 18.2778 9.33159 18.2777 9.36658 18.2777C9.91706 18.2777 10.4675 18.2785 11.018 18.2797C11.5834 18.281 12.1488 18.2816 12.7142 18.2815C13.0315 18.2815 13.3489 18.2817 13.6662 18.2826C13.9647 18.2835 14.2632 18.2835 14.5616 18.2828C14.6712 18.2828 14.7807 18.283 14.8903 18.2835C15.0398 18.2841 15.1893 18.2837 15.3389 18.2831C15.4039 18.2837 15.4039 18.2837 15.4702 18.2844C15.733 18.2818 15.939 18.2447 16.1565 18.09C16.4506 17.79 16.4703 17.402 16.4675 17.0011C16.4676 16.9631 16.4677 16.925 16.4678 16.8858C16.468 16.8038 16.4679 16.7219 16.4677 16.64C16.4675 16.5101 16.4679 16.3802 16.4685 16.2503C16.4701 15.8812 16.4709 15.5121 16.4704 15.143C16.4701 14.9166 16.4709 14.6902 16.4723 14.4638C16.4727 14.3778 16.4726 14.2919 16.4722 14.206C16.4716 14.0856 16.4723 13.9654 16.4732 13.8451C16.4727 13.81 16.4722 13.7749 16.4717 13.7387C16.4763 13.4501 16.5798 13.2491 16.777 13.0398C16.9846 12.8531 17.2012 12.7825 17.4794 12.7915C17.7861 12.8343 18.0196 12.9553 18.2123 13.1967C18.3566 13.4312 18.3606 13.6365 18.3604 13.9048C18.3606 13.9462 18.3609 13.9875 18.3612 14.0301C18.362 14.1667 18.3622 14.3033 18.3623 14.44C18.3626 14.5354 18.3629 14.6309 18.3632 14.7263C18.3637 14.9266 18.3638 15.127 18.3638 15.3273C18.3638 15.5825 18.365 15.8376 18.3664 16.0928C18.3674 16.2902 18.3676 16.4875 18.3675 16.6849C18.3676 16.7789 18.368 16.8729 18.3687 16.9668C18.3748 17.9107 18.2331 18.7009 17.5545 19.4086C16.9268 19.9811 16.2052 20.2098 15.3641 20.2066C15.2933 20.2069 15.2933 20.2069 15.2211 20.2071C15.0643 20.2076 14.9074 20.2074 14.7505 20.2072C14.6376 20.2074 14.5246 20.2076 14.4116 20.2079C14.1373 20.2084 13.8631 20.2085 13.5888 20.2084C13.3656 20.2083 13.1425 20.2084 12.9194 20.2086C12.8876 20.2086 12.8557 20.2086 12.8229 20.2087C12.7582 20.2087 12.6935 20.2088 12.6288 20.2088C12.023 20.2093 11.4171 20.2092 10.8112 20.2089C10.2581 20.2087 9.70486 20.2092 9.15166 20.21C8.58248 20.2109 8.0133 20.2112 7.44411 20.211C7.12503 20.211 6.80594 20.2111 6.48685 20.2117C6.21519 20.2122 5.94353 20.2122 5.67187 20.2117C5.5335 20.2115 5.39515 20.2115 5.25679 20.2119C3.9145 20.216 3.9145 20.216 3.34104 19.9081C3.31232 19.8931 3.2836 19.8781 3.25401 19.8626C2.57746 19.4987 2.13023 18.9383 1.8989 18.2054C1.80571 17.8818 1.79852 17.5656 1.79858 17.2313C1.79835 17.1605 1.79835 17.1605 1.7981 17.0884C1.79763 16.9306 1.79746 16.7728 1.7973 16.615C1.79703 16.5018 1.79675 16.3886 1.79645 16.2753C1.7956 15.9357 1.79516 15.5961 1.79478 15.2565C1.79459 15.0962 1.79436 14.936 1.79414 14.7758C1.79341 14.2426 1.79278 13.7094 1.79247 13.1762C1.79239 13.038 1.79231 12.8998 1.79222 12.7616C1.7922 12.7272 1.79218 12.6929 1.79216 12.6575C1.7918 12.1017 1.79072 11.5459 1.78932 10.9901C1.7879 10.4185 1.78712 9.84694 1.78699 9.27533C1.78689 8.95479 1.78652 8.63427 1.78542 8.31373C1.78448 8.04063 1.78414 7.76754 1.78456 7.49445C1.78475 7.35538 1.78459 7.21632 1.78384 7.07726C1.77846 6.01372 1.91703 5.18716 2.6621 4.37789C2.8538 4.1902 3.06379 4.06138 3.30076 3.93981C3.3277 3.92582 3.35465 3.91182 3.38241 3.89741C3.95363 3.61974 4.53531 3.63271 5.1558 3.63382Z" fill="white"/>
<path d="M13.4025 5.38142C13.5046 5.41871 13.5552 5.46089 13.6321 5.53724C13.6588 5.56344 13.6855 5.58964 13.713 5.61664C13.7417 5.64555 13.7705 5.67445 13.8002 5.70424C13.8309 5.73456 13.8616 5.76488 13.8932 5.79613C13.9946 5.89657 14.0956 5.99748 14.1965 6.09845C14.2667 6.16832 14.3369 6.23817 14.407 6.30801C14.5541 6.45448 14.7009 6.60121 14.8475 6.74809C15.0359 6.93667 15.2249 7.12446 15.4143 7.31204C15.5594 7.45605 15.704 7.60056 15.8485 7.7452C15.9181 7.81467 15.9878 7.88397 16.0577 7.9531C16.1551 8.04959 16.2518 8.14674 16.3484 8.24409C16.3776 8.27274 16.4069 8.30138 16.437 8.33089C16.463 8.35746 16.4891 8.38403 16.516 8.4114C16.539 8.43432 16.5619 8.45723 16.5855 8.48085C16.6288 8.55086 16.6288 8.55086 16.6251 8.63353C16.5733 8.75108 16.5037 8.82269 16.4138 8.91459C16.3767 8.95277 16.3396 8.99096 16.3014 9.0303C16.26 9.0723 16.2186 9.11429 16.1771 9.15626C16.1337 9.20072 16.0903 9.2452 16.0469 9.28971C15.9041 9.43589 15.7606 9.58138 15.617 9.7268C15.5674 9.77707 15.5178 9.82734 15.4682 9.87762C15.2616 10.0871 15.0548 10.2963 14.8474 10.5051C14.5515 10.8031 14.2568 11.1021 13.9636 11.4027C13.7567 11.6145 13.5486 11.8251 13.3396 12.0348C13.2152 12.1597 13.0913 12.2851 12.9687 12.4119C12.4462 12.9516 12.0004 13.3988 11.2274 13.5188C11.0788 13.5436 10.9379 13.5856 10.7932 13.6276C10.518 13.702 10.2424 13.7754 9.96681 13.8484C9.84899 13.8797 9.73127 13.9113 9.61361 13.9432C9.46867 13.9824 9.32358 14.0211 9.17837 14.0594C9.09805 14.0807 9.01787 14.1026 8.93771 14.1245C8.63799 14.2028 8.34575 14.2644 8.03502 14.2227C7.90603 14.1453 7.84373 14.098 7.7772 13.9649C7.76488 13.7174 7.79368 13.5089 7.85799 13.2707C7.86658 13.2375 7.87518 13.2044 7.88403 13.1702C7.91229 13.0616 7.94116 12.9532 7.97006 12.8447C7.99001 12.7688 8.00993 12.6928 8.02983 12.6168C8.0715 12.4581 8.11346 12.2994 8.15565 12.1407C8.20959 11.9378 8.2629 11.7348 8.31601 11.5316C8.35704 11.3749 8.39836 11.2183 8.43976 11.0616C8.45952 10.9868 8.4792 10.9119 8.49881 10.837C8.52628 10.7323 8.55413 10.6277 8.58208 10.523C8.59006 10.4924 8.59803 10.4617 8.60625 10.4301C8.70658 10.0584 8.86879 9.84706 9.13781 9.58255C9.17129 9.54912 9.20478 9.51569 9.23927 9.48124C9.34983 9.371 9.46082 9.26121 9.57182 9.15142C9.64898 9.07461 9.72611 8.99777 9.80321 8.9209C9.98553 8.73923 10.1681 8.55784 10.3509 8.37659C10.6969 8.03338 11.0423 7.68956 11.3877 7.34568C11.5008 7.23313 11.6142 7.12074 11.7275 7.00838C11.7974 6.93886 11.8674 6.86935 11.9373 6.79982C11.9686 6.76892 11.9998 6.73801 12.0321 6.70617C12.2042 6.53479 12.3683 6.35906 12.5267 6.1748C12.6652 6.01407 12.8145 5.86365 12.963 5.71224C12.995 5.67859 13.0271 5.64494 13.0601 5.61027C13.1067 5.56296 13.1067 5.56296 13.1542 5.51468C13.182 5.48604 13.2097 5.4574 13.2384 5.4279C13.3202 5.37118 13.3202 5.37118 13.4025 5.38142Z" fill="white"/>
<path d="M17.7031 2.5191C18.065 2.80557 18.3939 3.131 18.7206 3.4564C18.7883 3.52372 18.8565 3.59057 18.9247 3.65744C19.329 4.05743 19.6707 4.45507 19.6958 5.04888C19.6649 5.78098 19.147 6.23237 18.6484 6.70318C18.5606 6.78269 18.4719 6.86042 18.3814 6.93682C18.2338 7.06599 18.0979 7.20747 17.9609 7.34771C17.8354 7.29098 17.7464 7.22979 17.6493 7.13236C17.6227 7.10585 17.5961 7.07934 17.5686 7.05202C17.5399 7.023 17.5112 6.99398 17.4816 6.96408C17.451 6.93347 17.4204 6.90286 17.3888 6.87133C17.2877 6.77016 17.1869 6.6687 17.0861 6.56723C17.0161 6.497 16.946 6.4268 16.8759 6.35662C16.6915 6.17187 16.5073 5.98687 16.3232 5.80181C16.1353 5.61301 15.9471 5.42445 15.759 5.23587C15.3898 4.86583 15.021 4.49553 14.6523 4.12506C14.7099 4.00554 14.7626 3.91866 14.8583 3.82629C14.8934 3.79196 14.8934 3.79196 14.9292 3.75694C14.9539 3.73308 14.9787 3.70921 15.0042 3.68463C15.1598 3.53206 15.314 3.3808 15.4553 3.21466C16.0592 2.51461 16.7999 2.02986 17.7031 2.5191Z" fill="white"/>
<path d="M13.4026 5.38137C13.5051 5.4189 13.5552 5.46129 13.6319 5.53842C13.6586 5.56487 13.6852 5.59132 13.7126 5.61858C13.7557 5.66234 13.7557 5.66234 13.7996 5.70699C13.8303 5.73759 13.8609 5.76819 13.8924 5.79972C13.9936 5.90102 14.0944 6.00276 14.1951 6.10452C14.2652 6.17481 14.3353 6.24508 14.4054 6.31532C14.5899 6.50032 14.774 6.68571 14.9581 6.87118C15.1459 7.06035 15.3341 7.24915 15.5223 7.43798C15.8915 7.80859 16.2603 8.17961 16.6289 8.55089C16.6147 8.59343 16.6005 8.63597 16.5859 8.67979C16.5585 8.64778 16.5585 8.64778 16.5305 8.61512C16.3573 8.41486 16.1784 8.2233 15.9907 8.03669C15.963 8.00898 15.9353 7.98127 15.9067 7.95272C15.8164 7.86241 15.7259 7.77226 15.6354 7.68211C15.5723 7.61903 15.5091 7.55594 15.446 7.49284C15.2807 7.32773 15.1153 7.16276 14.9499 6.99781C14.7807 6.82909 14.6117 6.66024 14.4426 6.49141C14.1116 6.16085 13.7805 5.83044 13.4492 5.50011C13.2849 5.56794 13.1812 5.67177 13.0567 5.79696C13.0353 5.81835 13.0139 5.83974 12.9918 5.86177C12.9214 5.93225 12.8513 6.00302 12.7812 6.07381C12.7323 6.12283 12.6834 6.17184 12.6345 6.22083C12.5061 6.34963 12.3778 6.47869 12.2497 6.6078C12.1188 6.73958 11.9876 6.87111 11.8565 7.00267C11.5994 7.26069 11.3426 7.51899 11.0859 7.77745C11.0576 7.76327 11.0292 7.74909 11 7.73448C11.0375 7.69723 11.0749 7.65998 11.1136 7.6216C11.2539 7.48205 11.3941 7.34236 11.5342 7.20262C11.5947 7.1424 11.6551 7.08223 11.7156 7.0221C11.8031 6.93516 11.8904 6.84808 11.9777 6.76097C12.0044 6.73455 12.031 6.70813 12.0584 6.6809C12.2201 6.51926 12.3729 6.35225 12.5224 6.17929C12.663 6.01751 12.8131 5.86519 12.9631 5.71226C12.9952 5.67862 13.0272 5.64497 13.0602 5.6103C13.1068 5.56298 13.1068 5.56298 13.1543 5.51471C13.196 5.47175 13.196 5.47175 13.2385 5.42792C13.3203 5.3712 13.3203 5.3712 13.4026 5.38137Z" fill="white"/>
<path d="M13.4492 5.37109C13.4492 5.39945 13.4492 5.42781 13.4492 5.45703C13.3907 5.51466 13.3907 5.51466 13.3071 5.58335C13.0689 5.786 12.8504 6.00746 12.6301 6.22896C12.5853 6.27382 12.5406 6.31866 12.4958 6.3635C12.379 6.48045 12.2623 6.59753 12.1457 6.71464C12.0262 6.83456 11.9066 6.95435 11.787 7.07415C11.5532 7.30843 11.3195 7.54284 11.0859 7.77734C11.0576 7.76316 11.0292 7.74898 11 7.73438C11.0375 7.69713 11.0749 7.65988 11.1136 7.6215C11.2539 7.48195 11.3941 7.34225 11.5342 7.20251C11.5947 7.1423 11.6551 7.08212 11.7156 7.02199C11.8031 6.93505 11.8904 6.84797 11.9777 6.76086C12.0044 6.73444 12.031 6.70802 12.0584 6.6808C12.2201 6.51915 12.3728 6.35206 12.5223 6.17909C12.6631 6.01752 12.8149 5.86682 12.9658 5.71484C12.9982 5.68155 13.0306 5.64827 13.064 5.61397C13.0952 5.58256 13.1264 5.55116 13.1585 5.5188C13.1865 5.49038 13.2145 5.46197 13.2434 5.43269C13.3203 5.37109 13.3203 5.37109 13.4492 5.37109Z" fill="white"/>
<path d="M16.1562 2.53516C16.1846 2.54934 16.213 2.56352 16.2422 2.57812C15.7601 3.06023 15.278 3.54234 14.7812 4.03906C14.7529 4.02488 14.7245 4.0107 14.6953 3.99609C14.7352 3.95666 14.7752 3.91722 14.8163 3.87659C15.1808 3.51558 15.1808 3.51558 15.5238 3.13437C15.7149 2.91813 15.9156 2.69557 16.1562 2.53516Z" fill="white"/>
<path d="M2.96484 4.125C2.9932 4.13918 3.02156 4.15336 3.05078 4.16797C2.82391 4.39484 2.59703 4.62172 2.36328 4.85547C2.36328 4.68171 2.42691 4.64057 2.54321 4.5144C2.57661 4.47768 2.61001 4.44096 2.64442 4.40312C2.74579 4.30111 2.85075 4.21235 2.96484 4.125Z" fill="white"/>
</svg>
