<svg width="17" height="20" viewBox="0 0 17 20" fill="none" xmlns="http://www.w3.org/2000/svg">
<mask id="path-1-outside-1_941_614" maskUnits="userSpaceOnUse" x="-1.00049" y="-0.0483398" width="19" height="20" fill="black">
<rect fill="white" x="-1.00049" y="-0.0483398" width="19" height="20"/>
<path d="M0.26077 19.0474C0.0576342 18.9448 -0.00529625 18.7846 -0.000206293 18.567C0.0488424 16.5597 1.39629 14.533 3.44523 13.8327C4.00513 13.6411 4.57196 13.4681 5.13741 13.2916C5.23829 13.2602 5.30168 13.2102 5.34795 13.1182C5.50482 12.8063 5.66446 12.4948 5.8352 12.1896C5.89906 12.0754 5.87962 12.0055 5.78893 11.9161C5.55664 11.687 5.36322 11.4259 5.22348 11.1366C5.15222 10.9888 5.06384 10.9473 4.90235 10.9543C4.39011 10.9778 4.01392 10.7663 3.78811 10.323C3.67613 10.1031 3.69048 9.86466 3.69834 9.63018C3.70158 9.53064 3.67012 9.47976 3.57202 9.43109C3.17315 9.23333 2.9603 8.91435 2.95845 8.48034C2.95521 7.72691 2.9529 6.97347 2.95845 6.22048C2.97511 3.90931 4.54281 1.84632 6.86291 1.20261C9.07149 0.589861 11.0117 1.10218 12.5956 2.70726C13.5687 3.69341 14.0277 4.89545 14.0398 6.25057C14.0462 6.98011 14.0421 7.7101 14.0407 8.44008C14.0393 9.09663 13.5692 9.54214 12.8792 9.54479C12.7316 9.54524 12.5826 9.55674 12.4364 9.5417C12.2865 9.52621 12.2472 9.59434 12.2319 9.71601C12.1232 10.5681 11.7872 11.3229 11.1718 11.9555C11.113 12.0161 11.1015 12.0648 11.1426 12.1409C11.325 12.4802 11.5031 12.8218 11.6766 13.1651C11.7178 13.246 11.7886 13.2655 11.8631 13.2894C12.4438 13.4765 13.0296 13.6513 13.6048 13.8544C14.7806 14.2689 15.6398 15.0422 16.2585 16.0682C16.724 16.8398 16.9693 17.6737 16.9998 18.5665C17.0072 18.7842 16.942 18.9444 16.7388 19.047L0.26077 19.0474ZM5.97448 10.9579C6.25859 11.4091 6.60563 11.7533 7.05124 11.9967C8.7647 12.9319 10.8414 12.0657 11.3717 10.1602C11.6489 9.16476 11.7095 8.13216 11.7891 7.10664C11.7969 7.00621 11.7719 6.96595 11.6577 6.95135C11.2074 6.89428 10.759 6.82527 10.3227 6.69918C9.36763 6.42311 8.51252 5.97671 7.76753 5.33919C7.69859 5.28035 7.64306 5.20647 7.51813 5.21885C7.03504 5.26664 6.60286 5.429 6.21232 5.70242C5.80142 5.99043 5.54137 6.40232 5.2369 6.77748C5.1934 6.83102 5.2059 6.88986 5.21006 6.94693C5.24569 7.40394 5.27484 7.86229 5.32435 8.31798C5.3896 8.91922 5.46456 9.51958 5.60523 10.1106C5.63068 10.2168 5.66816 10.258 5.78523 10.2544C6.04944 10.2465 6.31458 10.2465 6.57926 10.2544C6.68384 10.2575 6.72548 10.2181 6.76944 10.1341C6.9226 9.839 7.16831 9.64434 7.50887 9.57576C7.84342 9.50852 8.18352 9.54745 8.52038 9.54878C9.13211 9.55099 9.61056 10.0288 9.60825 10.6154C9.60547 11.1893 9.12331 11.6547 8.519 11.664C8.29735 11.6671 8.07571 11.6604 7.85406 11.6657C7.34923 11.6781 6.97674 11.4804 6.75371 11.0419C6.72317 10.9822 6.688 10.9548 6.61489 10.9565C6.41268 10.9614 6.21047 10.9583 5.97541 10.9583L5.97448 10.9579ZM7.8226 18.3409C7.79113 18.2878 7.77956 18.2675 7.76753 18.248C7.47185 17.7587 7.11371 17.3087 6.79211 16.8354C6.21139 15.9802 5.73571 15.0732 5.36554 14.1167C5.32343 14.0074 5.27947 13.9915 5.16842 14.0287C4.7404 14.1729 4.30682 14.3016 3.87927 14.4463C2.04596 15.0666 1.09645 16.3655 0.778557 18.148C0.752182 18.2971 0.791051 18.3458 0.963647 18.3449C3.18611 18.3382 5.40857 18.3405 7.63103 18.3405L7.8226 18.3409ZM9.16635 18.3409C10.3717 18.3409 11.5286 18.3409 12.6858 18.3409C13.8061 18.3409 14.9268 18.3369 16.047 18.3449C16.215 18.3462 16.2483 18.2905 16.2201 18.1542C16.1822 17.9702 16.159 17.7821 16.1077 17.6012C15.7255 16.2549 14.9305 15.2192 13.5881 14.6193C13.0268 14.3685 12.4174 14.2344 11.8358 14.0304C11.7169 13.9884 11.6729 14.0119 11.628 14.1273C11.1574 15.3409 10.5129 16.4655 9.72069 17.5149C9.52773 17.7702 9.36393 18.0449 9.16635 18.3409ZM5.20682 5.61039C5.248 5.57942 5.26883 5.56792 5.2841 5.55199C5.84862 4.95783 6.55242 4.62248 7.37977 4.50966C7.69257 4.46719 7.97206 4.48754 8.19925 4.74193C8.32141 4.87864 8.48244 4.98526 8.63422 5.09542C9.543 5.75462 10.573 6.11563 11.7025 6.23243C11.7844 6.24083 11.8224 6.23862 11.8261 6.14262C11.8737 4.82334 11.0964 3.73544 9.92383 3.28771C9.25704 3.03332 8.56203 3.04571 7.86887 3.10809C6.9226 3.19303 6.19196 3.64297 5.66631 4.39331C5.41458 4.75255 5.26096 5.15117 5.20682 5.61039ZM8.49679 2.37634C8.77211 2.38518 9.04743 2.37014 9.3246 2.40553C10.9844 2.61878 12.3101 3.87966 12.5276 5.46351C12.5475 5.6073 12.5151 5.81612 12.6002 5.87805C12.7029 5.95282 12.9047 5.90548 13.0639 5.90681C13.2915 5.90858 13.2906 5.90681 13.261 5.69578C13.1754 5.09011 12.9824 4.51895 12.6632 3.98806C11.5327 2.1069 9.21632 1.22429 7.08039 1.88835C5.16333 2.48428 4.06297 3.78676 3.74045 5.6887C3.70343 5.90681 3.7076 5.9077 3.94683 5.9077C4.05742 5.9077 4.1694 5.89885 4.27906 5.90991C4.41325 5.92362 4.43407 5.86876 4.44286 5.75197C4.53495 4.54771 5.10872 3.60581 6.16096 2.93953C6.86754 2.49225 7.65602 2.32988 8.49679 2.37634ZM8.51483 17.9834C8.52779 17.9671 8.54815 17.9463 8.56249 17.9224C8.93452 17.307 9.3954 16.7469 9.78501 16.1421C9.84701 16.0461 9.81 16.0001 9.74336 15.9368C9.35468 15.5687 8.96645 15.2002 8.58424 14.8264C8.49864 14.7423 8.44912 14.725 8.35612 14.8219C7.99103 15.2033 7.61761 15.5776 7.24327 15.9505C7.17756 16.016 7.1646 16.0625 7.21736 16.1443C7.60604 16.7495 8.06877 17.3087 8.44033 17.9246C8.45422 17.9476 8.46301 17.9817 8.51483 17.9834ZM10.5517 12.6094C10.0381 13.1279 9.53699 13.6358 9.03308 14.141C8.9845 14.1897 9.00254 14.2171 9.04234 14.2543C9.4338 14.6268 9.82434 14.9998 10.2269 15.3842C10.5439 14.806 10.8076 14.2211 11.0293 13.6186C11.0455 13.5743 11.0395 13.5416 11.0191 13.5031C10.8655 13.2111 10.7128 12.9178 10.5517 12.6094ZM6.77638 15.3847C7.1461 15.0108 7.50424 14.6472 7.86517 14.2857C7.91931 14.2313 7.9207 14.1941 7.86378 14.1402C7.39643 13.6964 6.93047 13.2514 6.46728 12.8036C6.38908 12.728 6.36132 12.7682 6.32661 12.8373C6.25211 12.9855 6.18826 13.1412 6.0934 13.2766C5.95643 13.4726 5.96661 13.6526 6.0587 13.865C6.27849 14.3746 6.49597 14.8839 6.77638 15.3847ZM13.3031 7.57604C13.3031 7.29953 13.2975 7.02347 13.3059 6.7474C13.3091 6.63591 13.2716 6.6045 13.1601 6.61114C13.013 6.61954 12.8649 6.61866 12.7178 6.61114C12.6067 6.60539 12.5609 6.62928 12.5526 6.75094C12.5151 7.3075 12.4933 7.86538 12.423 8.41973C12.4063 8.55246 12.3059 8.73562 12.4161 8.81569C12.5104 8.88471 12.6992 8.83958 12.8459 8.83781C13.1513 8.83427 13.2985 8.69536 13.3022 8.40469C13.3059 8.12862 13.3031 7.85211 13.3031 7.57604ZM4.07269 6.61291C3.98662 6.61291 3.90009 6.61689 3.81449 6.61158C3.73027 6.60671 3.6951 6.6306 3.69557 6.71864C3.69881 7.29467 3.69325 7.87069 3.69973 8.44672C3.70204 8.66571 3.81911 8.79932 4.03382 8.82587C4.20317 8.84666 4.37716 8.83472 4.54883 8.83781C4.63999 8.83914 4.62379 8.7772 4.61685 8.72721C4.53865 8.13836 4.49238 7.54729 4.46045 6.95489C4.44194 6.61246 4.42945 6.61291 4.07269 6.61291ZM8.13818 10.9601C8.29041 10.9464 8.44357 10.976 8.59581 10.9331C8.76794 10.8844 8.85586 10.7663 8.8591 10.611C8.86234 10.4553 8.78136 10.3164 8.60738 10.2836C8.29273 10.2248 7.97252 10.2261 7.65741 10.2823C7.4825 10.3137 7.40059 10.4509 7.40198 10.6066C7.40337 10.7619 7.49036 10.8813 7.66157 10.9313C7.81936 10.9773 7.97992 10.9459 8.13818 10.9601ZM7.79761 13.0713C7.99751 13.2602 8.19787 13.4482 8.39637 13.638C8.43478 13.6747 8.46254 13.6787 8.50141 13.6393C8.68789 13.4487 8.87622 13.2593 9.08722 13.0456C8.63699 13.1005 8.22748 13.0903 7.79761 13.0713ZM4.584 9.54789C4.47387 9.52621 4.42065 9.55984 4.43454 9.67442C4.44379 9.74963 4.42991 9.8275 4.44101 9.90271C4.46646 10.073 4.55392 10.1925 4.74225 10.2367C4.84358 10.2606 4.86163 10.2332 4.84497 10.146C4.81489 9.99075 4.78528 9.83546 4.76168 9.67929C4.74595 9.57532 4.69968 9.51913 4.584 9.54789Z"/>
</mask>
<path d="M0.26077 19.0474C0.0576342 18.9448 -0.00529625 18.7846 -0.000206293 18.567C0.0488424 16.5597 1.39629 14.533 3.44523 13.8327C4.00513 13.6411 4.57196 13.4681 5.13741 13.2916C5.23829 13.2602 5.30168 13.2102 5.34795 13.1182C5.50482 12.8063 5.66446 12.4948 5.8352 12.1896C5.89906 12.0754 5.87962 12.0055 5.78893 11.9161C5.55664 11.687 5.36322 11.4259 5.22348 11.1366C5.15222 10.9888 5.06384 10.9473 4.90235 10.9543C4.39011 10.9778 4.01392 10.7663 3.78811 10.323C3.67613 10.1031 3.69048 9.86466 3.69834 9.63018C3.70158 9.53064 3.67012 9.47976 3.57202 9.43109C3.17315 9.23333 2.9603 8.91435 2.95845 8.48034C2.95521 7.72691 2.9529 6.97347 2.95845 6.22048C2.97511 3.90931 4.54281 1.84632 6.86291 1.20261C9.07149 0.589861 11.0117 1.10218 12.5956 2.70726C13.5687 3.69341 14.0277 4.89545 14.0398 6.25057C14.0462 6.98011 14.0421 7.7101 14.0407 8.44008C14.0393 9.09663 13.5692 9.54214 12.8792 9.54479C12.7316 9.54524 12.5826 9.55674 12.4364 9.5417C12.2865 9.52621 12.2472 9.59434 12.2319 9.71601C12.1232 10.5681 11.7872 11.3229 11.1718 11.9555C11.113 12.0161 11.1015 12.0648 11.1426 12.1409C11.325 12.4802 11.5031 12.8218 11.6766 13.1651C11.7178 13.246 11.7886 13.2655 11.8631 13.2894C12.4438 13.4765 13.0296 13.6513 13.6048 13.8544C14.7806 14.2689 15.6398 15.0422 16.2585 16.0682C16.724 16.8398 16.9693 17.6737 16.9998 18.5665C17.0072 18.7842 16.942 18.9444 16.7388 19.047L0.26077 19.0474ZM5.97448 10.9579C6.25859 11.4091 6.60563 11.7533 7.05124 11.9967C8.7647 12.9319 10.8414 12.0657 11.3717 10.1602C11.6489 9.16476 11.7095 8.13216 11.7891 7.10664C11.7969 7.00621 11.7719 6.96595 11.6577 6.95135C11.2074 6.89428 10.759 6.82527 10.3227 6.69918C9.36763 6.42311 8.51252 5.97671 7.76753 5.33919C7.69859 5.28035 7.64306 5.20647 7.51813 5.21885C7.03504 5.26664 6.60286 5.429 6.21232 5.70242C5.80142 5.99043 5.54137 6.40232 5.2369 6.77748C5.1934 6.83102 5.2059 6.88986 5.21006 6.94693C5.24569 7.40394 5.27484 7.86229 5.32435 8.31798C5.3896 8.91922 5.46456 9.51958 5.60523 10.1106C5.63068 10.2168 5.66816 10.258 5.78523 10.2544C6.04944 10.2465 6.31458 10.2465 6.57926 10.2544C6.68384 10.2575 6.72548 10.2181 6.76944 10.1341C6.9226 9.839 7.16831 9.64434 7.50887 9.57576C7.84342 9.50852 8.18352 9.54745 8.52038 9.54878C9.13211 9.55099 9.61056 10.0288 9.60825 10.6154C9.60547 11.1893 9.12331 11.6547 8.519 11.664C8.29735 11.6671 8.07571 11.6604 7.85406 11.6657C7.34923 11.6781 6.97674 11.4804 6.75371 11.0419C6.72317 10.9822 6.688 10.9548 6.61489 10.9565C6.41268 10.9614 6.21047 10.9583 5.97541 10.9583L5.97448 10.9579ZM7.8226 18.3409C7.79113 18.2878 7.77956 18.2675 7.76753 18.248C7.47185 17.7587 7.11371 17.3087 6.79211 16.8354C6.21139 15.9802 5.73571 15.0732 5.36554 14.1167C5.32343 14.0074 5.27947 13.9915 5.16842 14.0287C4.7404 14.1729 4.30682 14.3016 3.87927 14.4463C2.04596 15.0666 1.09645 16.3655 0.778557 18.148C0.752182 18.2971 0.791051 18.3458 0.963647 18.3449C3.18611 18.3382 5.40857 18.3405 7.63103 18.3405L7.8226 18.3409ZM9.16635 18.3409C10.3717 18.3409 11.5286 18.3409 12.6858 18.3409C13.8061 18.3409 14.9268 18.3369 16.047 18.3449C16.215 18.3462 16.2483 18.2905 16.2201 18.1542C16.1822 17.9702 16.159 17.7821 16.1077 17.6012C15.7255 16.2549 14.9305 15.2192 13.5881 14.6193C13.0268 14.3685 12.4174 14.2344 11.8358 14.0304C11.7169 13.9884 11.6729 14.0119 11.628 14.1273C11.1574 15.3409 10.5129 16.4655 9.72069 17.5149C9.52773 17.7702 9.36393 18.0449 9.16635 18.3409ZM5.20682 5.61039C5.248 5.57942 5.26883 5.56792 5.2841 5.55199C5.84862 4.95783 6.55242 4.62248 7.37977 4.50966C7.69257 4.46719 7.97206 4.48754 8.19925 4.74193C8.32141 4.87864 8.48244 4.98526 8.63422 5.09542C9.543 5.75462 10.573 6.11563 11.7025 6.23243C11.7844 6.24083 11.8224 6.23862 11.8261 6.14262C11.8737 4.82334 11.0964 3.73544 9.92383 3.28771C9.25704 3.03332 8.56203 3.04571 7.86887 3.10809C6.9226 3.19303 6.19196 3.64297 5.66631 4.39331C5.41458 4.75255 5.26096 5.15117 5.20682 5.61039ZM8.49679 2.37634C8.77211 2.38518 9.04743 2.37014 9.3246 2.40553C10.9844 2.61878 12.3101 3.87966 12.5276 5.46351C12.5475 5.6073 12.5151 5.81612 12.6002 5.87805C12.7029 5.95282 12.9047 5.90548 13.0639 5.90681C13.2915 5.90858 13.2906 5.90681 13.261 5.69578C13.1754 5.09011 12.9824 4.51895 12.6632 3.98806C11.5327 2.1069 9.21632 1.22429 7.08039 1.88835C5.16333 2.48428 4.06297 3.78676 3.74045 5.6887C3.70343 5.90681 3.7076 5.9077 3.94683 5.9077C4.05742 5.9077 4.1694 5.89885 4.27906 5.90991C4.41325 5.92362 4.43407 5.86876 4.44286 5.75197C4.53495 4.54771 5.10872 3.60581 6.16096 2.93953C6.86754 2.49225 7.65602 2.32988 8.49679 2.37634ZM8.51483 17.9834C8.52779 17.9671 8.54815 17.9463 8.56249 17.9224C8.93452 17.307 9.3954 16.7469 9.78501 16.1421C9.84701 16.0461 9.81 16.0001 9.74336 15.9368C9.35468 15.5687 8.96645 15.2002 8.58424 14.8264C8.49864 14.7423 8.44912 14.725 8.35612 14.8219C7.99103 15.2033 7.61761 15.5776 7.24327 15.9505C7.17756 16.016 7.1646 16.0625 7.21736 16.1443C7.60604 16.7495 8.06877 17.3087 8.44033 17.9246C8.45422 17.9476 8.46301 17.9817 8.51483 17.9834ZM10.5517 12.6094C10.0381 13.1279 9.53699 13.6358 9.03308 14.141C8.9845 14.1897 9.00254 14.2171 9.04234 14.2543C9.4338 14.6268 9.82434 14.9998 10.2269 15.3842C10.5439 14.806 10.8076 14.2211 11.0293 13.6186C11.0455 13.5743 11.0395 13.5416 11.0191 13.5031C10.8655 13.2111 10.7128 12.9178 10.5517 12.6094ZM6.77638 15.3847C7.1461 15.0108 7.50424 14.6472 7.86517 14.2857C7.91931 14.2313 7.9207 14.1941 7.86378 14.1402C7.39643 13.6964 6.93047 13.2514 6.46728 12.8036C6.38908 12.728 6.36132 12.7682 6.32661 12.8373C6.25211 12.9855 6.18826 13.1412 6.0934 13.2766C5.95643 13.4726 5.96661 13.6526 6.0587 13.865C6.27849 14.3746 6.49597 14.8839 6.77638 15.3847ZM13.3031 7.57604C13.3031 7.29953 13.2975 7.02347 13.3059 6.7474C13.3091 6.63591 13.2716 6.6045 13.1601 6.61114C13.013 6.61954 12.8649 6.61866 12.7178 6.61114C12.6067 6.60539 12.5609 6.62928 12.5526 6.75094C12.5151 7.3075 12.4933 7.86538 12.423 8.41973C12.4063 8.55246 12.3059 8.73562 12.4161 8.81569C12.5104 8.88471 12.6992 8.83958 12.8459 8.83781C13.1513 8.83427 13.2985 8.69536 13.3022 8.40469C13.3059 8.12862 13.3031 7.85211 13.3031 7.57604ZM4.07269 6.61291C3.98662 6.61291 3.90009 6.61689 3.81449 6.61158C3.73027 6.60671 3.6951 6.6306 3.69557 6.71864C3.69881 7.29467 3.69325 7.87069 3.69973 8.44672C3.70204 8.66571 3.81911 8.79932 4.03382 8.82587C4.20317 8.84666 4.37716 8.83472 4.54883 8.83781C4.63999 8.83914 4.62379 8.7772 4.61685 8.72721C4.53865 8.13836 4.49238 7.54729 4.46045 6.95489C4.44194 6.61246 4.42945 6.61291 4.07269 6.61291ZM8.13818 10.9601C8.29041 10.9464 8.44357 10.976 8.59581 10.9331C8.76794 10.8844 8.85586 10.7663 8.8591 10.611C8.86234 10.4553 8.78136 10.3164 8.60738 10.2836C8.29273 10.2248 7.97252 10.2261 7.65741 10.2823C7.4825 10.3137 7.40059 10.4509 7.40198 10.6066C7.40337 10.7619 7.49036 10.8813 7.66157 10.9313C7.81936 10.9773 7.97992 10.9459 8.13818 10.9601ZM7.79761 13.0713C7.99751 13.2602 8.19787 13.4482 8.39637 13.638C8.43478 13.6747 8.46254 13.6787 8.50141 13.6393C8.68789 13.4487 8.87622 13.2593 9.08722 13.0456C8.63699 13.1005 8.22748 13.0903 7.79761 13.0713ZM4.584 9.54789C4.47387 9.52621 4.42065 9.55984 4.43454 9.67442C4.44379 9.74963 4.42991 9.8275 4.44101 9.90271C4.46646 10.073 4.55392 10.1925 4.74225 10.2367C4.84358 10.2606 4.86163 10.2332 4.84497 10.146C4.81489 9.99075 4.78528 9.83546 4.76168 9.67929C4.74595 9.57532 4.69968 9.51913 4.584 9.54789Z" fill="black"/>
<path d="M0.26077 19.0474C0.0576342 18.9448 -0.00529625 18.7846 -0.000206293 18.567C0.0488424 16.5597 1.39629 14.533 3.44523 13.8327C4.00513 13.6411 4.57196 13.4681 5.13741 13.2916C5.23829 13.2602 5.30168 13.2102 5.34795 13.1182C5.50482 12.8063 5.66446 12.4948 5.8352 12.1896C5.89906 12.0754 5.87962 12.0055 5.78893 11.9161C5.55664 11.687 5.36322 11.4259 5.22348 11.1366C5.15222 10.9888 5.06384 10.9473 4.90235 10.9543C4.39011 10.9778 4.01392 10.7663 3.78811 10.323C3.67613 10.1031 3.69048 9.86466 3.69834 9.63018C3.70158 9.53064 3.67012 9.47976 3.57202 9.43109C3.17315 9.23333 2.9603 8.91435 2.95845 8.48034C2.95521 7.72691 2.9529 6.97347 2.95845 6.22048C2.97511 3.90931 4.54281 1.84632 6.86291 1.20261C9.07149 0.589861 11.0117 1.10218 12.5956 2.70726C13.5687 3.69341 14.0277 4.89545 14.0398 6.25057C14.0462 6.98011 14.0421 7.7101 14.0407 8.44008C14.0393 9.09663 13.5692 9.54214 12.8792 9.54479C12.7316 9.54524 12.5826 9.55674 12.4364 9.5417C12.2865 9.52621 12.2472 9.59434 12.2319 9.71601C12.1232 10.5681 11.7872 11.3229 11.1718 11.9555C11.113 12.0161 11.1015 12.0648 11.1426 12.1409C11.325 12.4802 11.5031 12.8218 11.6766 13.1651C11.7178 13.246 11.7886 13.2655 11.8631 13.2894C12.4438 13.4765 13.0296 13.6513 13.6048 13.8544C14.7806 14.2689 15.6398 15.0422 16.2585 16.0682C16.724 16.8398 16.9693 17.6737 16.9998 18.5665C17.0072 18.7842 16.942 18.9444 16.7388 19.047L0.26077 19.0474ZM5.97448 10.9579C6.25859 11.4091 6.60563 11.7533 7.05124 11.9967C8.7647 12.9319 10.8414 12.0657 11.3717 10.1602C11.6489 9.16476 11.7095 8.13216 11.7891 7.10664C11.7969 7.00621 11.7719 6.96595 11.6577 6.95135C11.2074 6.89428 10.759 6.82527 10.3227 6.69918C9.36763 6.42311 8.51252 5.97671 7.76753 5.33919C7.69859 5.28035 7.64306 5.20647 7.51813 5.21885C7.03504 5.26664 6.60286 5.429 6.21232 5.70242C5.80142 5.99043 5.54137 6.40232 5.2369 6.77748C5.1934 6.83102 5.2059 6.88986 5.21006 6.94693C5.24569 7.40394 5.27484 7.86229 5.32435 8.31798C5.3896 8.91922 5.46456 9.51958 5.60523 10.1106C5.63068 10.2168 5.66816 10.258 5.78523 10.2544C6.04944 10.2465 6.31458 10.2465 6.57926 10.2544C6.68384 10.2575 6.72548 10.2181 6.76944 10.1341C6.9226 9.839 7.16831 9.64434 7.50887 9.57576C7.84342 9.50852 8.18352 9.54745 8.52038 9.54878C9.13211 9.55099 9.61056 10.0288 9.60825 10.6154C9.60547 11.1893 9.12331 11.6547 8.519 11.664C8.29735 11.6671 8.07571 11.6604 7.85406 11.6657C7.34923 11.6781 6.97674 11.4804 6.75371 11.0419C6.72317 10.9822 6.688 10.9548 6.61489 10.9565C6.41268 10.9614 6.21047 10.9583 5.97541 10.9583L5.97448 10.9579ZM7.8226 18.3409C7.79113 18.2878 7.77956 18.2675 7.76753 18.248C7.47185 17.7587 7.11371 17.3087 6.79211 16.8354C6.21139 15.9802 5.73571 15.0732 5.36554 14.1167C5.32343 14.0074 5.27947 13.9915 5.16842 14.0287C4.7404 14.1729 4.30682 14.3016 3.87927 14.4463C2.04596 15.0666 1.09645 16.3655 0.778557 18.148C0.752182 18.2971 0.791051 18.3458 0.963647 18.3449C3.18611 18.3382 5.40857 18.3405 7.63103 18.3405L7.8226 18.3409ZM9.16635 18.3409C10.3717 18.3409 11.5286 18.3409 12.6858 18.3409C13.8061 18.3409 14.9268 18.3369 16.047 18.3449C16.215 18.3462 16.2483 18.2905 16.2201 18.1542C16.1822 17.9702 16.159 17.7821 16.1077 17.6012C15.7255 16.2549 14.9305 15.2192 13.5881 14.6193C13.0268 14.3685 12.4174 14.2344 11.8358 14.0304C11.7169 13.9884 11.6729 14.0119 11.628 14.1273C11.1574 15.3409 10.5129 16.4655 9.72069 17.5149C9.52773 17.7702 9.36393 18.0449 9.16635 18.3409ZM5.20682 5.61039C5.248 5.57942 5.26883 5.56792 5.2841 5.55199C5.84862 4.95783 6.55242 4.62248 7.37977 4.50966C7.69257 4.46719 7.97206 4.48754 8.19925 4.74193C8.32141 4.87864 8.48244 4.98526 8.63422 5.09542C9.543 5.75462 10.573 6.11563 11.7025 6.23243C11.7844 6.24083 11.8224 6.23862 11.8261 6.14262C11.8737 4.82334 11.0964 3.73544 9.92383 3.28771C9.25704 3.03332 8.56203 3.04571 7.86887 3.10809C6.9226 3.19303 6.19196 3.64297 5.66631 4.39331C5.41458 4.75255 5.26096 5.15117 5.20682 5.61039ZM8.49679 2.37634C8.77211 2.38518 9.04743 2.37014 9.3246 2.40553C10.9844 2.61878 12.3101 3.87966 12.5276 5.46351C12.5475 5.6073 12.5151 5.81612 12.6002 5.87805C12.7029 5.95282 12.9047 5.90548 13.0639 5.90681C13.2915 5.90858 13.2906 5.90681 13.261 5.69578C13.1754 5.09011 12.9824 4.51895 12.6632 3.98806C11.5327 2.1069 9.21632 1.22429 7.08039 1.88835C5.16333 2.48428 4.06297 3.78676 3.74045 5.6887C3.70343 5.90681 3.7076 5.9077 3.94683 5.9077C4.05742 5.9077 4.1694 5.89885 4.27906 5.90991C4.41325 5.92362 4.43407 5.86876 4.44286 5.75197C4.53495 4.54771 5.10872 3.60581 6.16096 2.93953C6.86754 2.49225 7.65602 2.32988 8.49679 2.37634ZM8.51483 17.9834C8.52779 17.9671 8.54815 17.9463 8.56249 17.9224C8.93452 17.307 9.3954 16.7469 9.78501 16.1421C9.84701 16.0461 9.81 16.0001 9.74336 15.9368C9.35468 15.5687 8.96645 15.2002 8.58424 14.8264C8.49864 14.7423 8.44912 14.725 8.35612 14.8219C7.99103 15.2033 7.61761 15.5776 7.24327 15.9505C7.17756 16.016 7.1646 16.0625 7.21736 16.1443C7.60604 16.7495 8.06877 17.3087 8.44033 17.9246C8.45422 17.9476 8.46301 17.9817 8.51483 17.9834ZM10.5517 12.6094C10.0381 13.1279 9.53699 13.6358 9.03308 14.141C8.9845 14.1897 9.00254 14.2171 9.04234 14.2543C9.4338 14.6268 9.82434 14.9998 10.2269 15.3842C10.5439 14.806 10.8076 14.2211 11.0293 13.6186C11.0455 13.5743 11.0395 13.5416 11.0191 13.5031C10.8655 13.2111 10.7128 12.9178 10.5517 12.6094ZM6.77638 15.3847C7.1461 15.0108 7.50424 14.6472 7.86517 14.2857C7.91931 14.2313 7.9207 14.1941 7.86378 14.1402C7.39643 13.6964 6.93047 13.2514 6.46728 12.8036C6.38908 12.728 6.36132 12.7682 6.32661 12.8373C6.25211 12.9855 6.18826 13.1412 6.0934 13.2766C5.95643 13.4726 5.96661 13.6526 6.0587 13.865C6.27849 14.3746 6.49597 14.8839 6.77638 15.3847ZM13.3031 7.57604C13.3031 7.29953 13.2975 7.02347 13.3059 6.7474C13.3091 6.63591 13.2716 6.6045 13.1601 6.61114C13.013 6.61954 12.8649 6.61866 12.7178 6.61114C12.6067 6.60539 12.5609 6.62928 12.5526 6.75094C12.5151 7.3075 12.4933 7.86538 12.423 8.41973C12.4063 8.55246 12.3059 8.73562 12.4161 8.81569C12.5104 8.88471 12.6992 8.83958 12.8459 8.83781C13.1513 8.83427 13.2985 8.69536 13.3022 8.40469C13.3059 8.12862 13.3031 7.85211 13.3031 7.57604ZM4.07269 6.61291C3.98662 6.61291 3.90009 6.61689 3.81449 6.61158C3.73027 6.60671 3.6951 6.6306 3.69557 6.71864C3.69881 7.29467 3.69325 7.87069 3.69973 8.44672C3.70204 8.66571 3.81911 8.79932 4.03382 8.82587C4.20317 8.84666 4.37716 8.83472 4.54883 8.83781C4.63999 8.83914 4.62379 8.7772 4.61685 8.72721C4.53865 8.13836 4.49238 7.54729 4.46045 6.95489C4.44194 6.61246 4.42945 6.61291 4.07269 6.61291ZM8.13818 10.9601C8.29041 10.9464 8.44357 10.976 8.59581 10.9331C8.76794 10.8844 8.85586 10.7663 8.8591 10.611C8.86234 10.4553 8.78136 10.3164 8.60738 10.2836C8.29273 10.2248 7.97252 10.2261 7.65741 10.2823C7.4825 10.3137 7.40059 10.4509 7.40198 10.6066C7.40337 10.7619 7.49036 10.8813 7.66157 10.9313C7.81936 10.9773 7.97992 10.9459 8.13818 10.9601ZM7.79761 13.0713C7.99751 13.2602 8.19787 13.4482 8.39637 13.638C8.43478 13.6747 8.46254 13.6787 8.50141 13.6393C8.68789 13.4487 8.87622 13.2593 9.08722 13.0456C8.63699 13.1005 8.22748 13.0903 7.79761 13.0713ZM4.584 9.54789C4.47387 9.52621 4.42065 9.55984 4.43454 9.67442C4.44379 9.74963 4.42991 9.8275 4.44101 9.90271C4.46646 10.073 4.55392 10.1925 4.74225 10.2367C4.84358 10.2606 4.86163 10.2332 4.84497 10.146C4.81489 9.99075 4.78528 9.83546 4.76168 9.67929C4.74595 9.57532 4.69968 9.51913 4.584 9.54789Z" stroke="black" stroke-width="0.4" mask="url(#path-1-outside-1_941_614)"/>
</svg>
