<svg width="22" height="22" viewBox="0 0 22 22" fill="none" xmlns="http://www.w3.org/2000/svg">
<g clip-path="url(#clip0_869_417)">
<path d="M10.9997 11.0001C11.9968 11.0001 12.9716 10.7044 13.8007 10.1504C14.6298 9.59642 15.276 8.80902 15.6576 7.88778C16.0392 6.96654 16.139 5.95282 15.9445 4.97484C15.7499 3.99685 15.2698 3.09851 14.5647 2.39342C13.8596 1.68833 12.9612 1.20816 11.9833 1.01362C11.0053 0.819091 9.99156 0.918933 9.07031 1.30052C8.14907 1.68212 7.36167 2.32832 6.80768 3.15742C6.2537 3.98651 5.95801 4.96127 5.95801 5.95842C5.95934 7.29514 6.49095 8.57673 7.43615 9.52194C8.38136 10.4671 9.66295 10.9987 10.9997 11.0001ZM10.9997 2.59731C11.6644 2.59731 12.3143 2.79443 12.867 3.16376C13.4197 3.53308 13.8505 4.05801 14.1049 4.67218C14.3593 5.28634 14.4259 5.96215 14.2962 6.61414C14.1665 7.26613 13.8464 7.86502 13.3763 8.33508C12.9063 8.80514 12.3074 9.12526 11.6554 9.25495C11.0034 9.38463 10.3276 9.31807 9.71343 9.06368C9.09927 8.80928 8.57434 8.37848 8.20501 7.82575C7.83569 7.27302 7.63856 6.62318 7.63856 5.95842C7.63856 5.067 7.99268 4.21208 8.62301 3.58175C9.25334 2.95142 10.1083 2.59731 10.9997 2.59731Z" fill="black"/>
<path d="M11 12.6807C8.99498 12.6829 7.07272 13.4804 5.65496 14.8981C4.2372 16.3159 3.43972 18.2381 3.4375 20.2432C3.4375 20.466 3.52603 20.6797 3.68361 20.8373C3.84119 20.9949 4.05492 21.0834 4.27778 21.0834C4.50063 21.0834 4.71436 20.9949 4.87194 20.8373C5.02953 20.6797 5.11806 20.466 5.11806 20.2432C5.11806 18.6832 5.73776 17.1871 6.84084 16.084C7.94392 14.9809 9.44001 14.3612 11 14.3612C12.56 14.3612 14.0561 14.9809 15.1592 16.084C16.2622 17.1871 16.8819 18.6832 16.8819 20.2432C16.8819 20.466 16.9705 20.6797 17.1281 20.8373C17.2856 20.9949 17.4994 21.0834 17.7222 21.0834C17.9451 21.0834 18.1588 20.9949 18.3164 20.8373C18.474 20.6797 18.5625 20.466 18.5625 20.2432C18.5603 18.2381 17.7628 16.3159 16.345 14.8981C14.9273 13.4804 13.005 12.6829 11 12.6807Z" fill="black"/>
</g>
<defs>
<clipPath id="clip0_869_417">
<rect width="20.1667" height="20.1667" fill="white" transform="translate(0.916504 0.916748)"/>
</clipPath>
</defs>
</svg>
