<svg width="26" height="27" viewBox="0 0 26 27" fill="none" xmlns="http://www.w3.org/2000/svg">
<path fill-rule="evenodd" clip-rule="evenodd" d="M20.6576 1.7659C20.6469 1.5306 20.641 1.39893 20.5 1.18745C19.9715 0.860302 19.3436 0.853941 18.8125 1.18745C18.709 1.34158 18.6859 1.45111 18.6638 1.6374L18.6615 1.68177L18.6614 1.682L18.6614 1.68207L18.6614 1.68213L18.6614 1.6822C18.6515 1.87171 18.6416 2.06083 18.625 2.24995C18.5972 2.28338 18.5805 2.30341 18.5592 2.31456C18.5275 2.33122 18.4853 2.3281 18.3802 2.32031L18.1307 2.32038C17.9838 2.3207 17.837 2.32091 17.6902 2.32074C17.5822 2.3206 17.4742 2.32058 17.3662 2.32066C17.0727 2.32102 16.7793 2.32115 16.4859 2.32097C16.1737 2.32076 15.8615 2.32077 15.5493 2.32087C15.0274 2.32103 14.5054 2.32099 13.9834 2.32071C13.3743 2.32037 12.7652 2.32026 12.1561 2.3206C11.63 2.32089 11.104 2.32104 10.5779 2.32093L10.4501 2.32089C10.1795 2.3208 9.90892 2.32071 9.63833 2.32084C9.33836 2.32104 9.0384 2.32115 8.73843 2.32087L8.40805 2.32053L8.4044 2.32054C8.25135 2.32073 8.0983 2.32093 7.94525 2.32068L7.80679 2.32038C7.66282 2.32034 7.5188 2.31865 7.37497 2.31245L7.37497 2.31244L7.37496 2.31242L7.37495 2.31241L7.37495 2.3124C7.32768 2.21188 7.3032 2.15981 7.29144 2.10501C7.27881 2.04612 7.28086 1.98409 7.28513 1.85542L7.2843 1.83964C7.27407 1.64453 7.2653 1.47719 7.19431 1.29316C7.07404 1.1098 7.07404 1.1098 6.74997 0.999947C6.30658 0.957774 5.8829 0.940671 5.49997 1.18745C5.41187 1.35912 5.37491 1.50043 5.35129 1.69233L5.34881 1.7352C5.33891 1.90706 5.32903 2.07851 5.31247 2.24995C5.284 2.28475 5.26884 2.30328 5.24929 2.31281C5.22701 2.32367 5.19904 2.32284 5.1392 2.32107L4.99284 2.3223L4.82699 2.32425C4.70429 2.32518 4.58159 2.32652 4.4589 2.32822C4.26035 2.33107 4.06181 2.3336 3.86325 2.33588C3.75647 2.33678 3.64896 2.33674 3.5411 2.3367C2.57617 2.33638 1.58216 2.33604 0.812469 2.99995C0.244412 3.59962 0.0359869 4.31772 0.0299072 5.13308C0.0309709 5.25126 0.0319744 5.36945 0.0317574 5.48763C0.030791 5.7113 0.0307205 5.93494 0.0318279 6.15861C0.0330454 6.40238 0.0331584 6.64614 0.0328751 6.88991C0.0322686 7.36815 0.032767 7.84637 0.0341263 8.32461C0.0357258 8.88609 0.0362704 9.44757 0.0364056 10.0091C0.0366051 11.0096 0.03773 12.0102 0.0397987 13.0108C0.0418289 13.9846 0.0434114 14.9585 0.0439301 15.9323L0.0440216 16.1146L0.044384 16.8404C0.0448369 17.7734 0.0457414 18.7064 0.0468044 19.6393L0.0477409 20.4809C0.0482973 21.0762 0.0489297 21.6714 0.0501633 22.2667L0.0503744 22.3614C0.0508556 22.5764 0.0513367 22.7914 0.0515499 23.0063C0.051716 23.2348 0.0519499 23.4633 0.0525742 23.6917L0.0532722 23.9416L0.053236 24.1753L0.054081 24.3898C0.0550128 24.8977 0.159674 25.3524 0.374969 25.8124C0.756382 26.39 1.30313 26.691 1.95212 26.8867L2.12497 26.9374C2.49997 26.9999 2.99997 26.9999 3.2978 26.9999C3.2978 26.9999 3.36358 26.9926 3.49997 26.9999C3.53158 26.9999 3.58707 27.0001 3.64246 27.0004L3.64315 27.0004L3.64452 27.0004C3.69977 27.0007 3.75461 27.0009 3.78522 27.0009L3.99997 26.9999C4.12094 26.9999 4.24192 26.9999 4.36289 26.9995C4.58836 26.9987 4.81383 26.9982 5.0393 26.9979C5.16525 26.9978 5.30151 26.9951 5.43756 26.9924L5.43779 26.9924H5.43783H5.43787H5.43792H5.43797C5.56829 26.9898 5.6984 26.9873 5.81904 26.987C6.24607 26.9858 6.6731 26.9848 7.10014 26.984C7.72414 26.9828 8.34814 26.9814 8.97215 26.9798C9.98316 26.9771 10.9942 26.9746 12.0052 26.9724L12.1892 26.972L13.4828 26.9691L14.961 26.9658L15.145 26.9654C16.1594 26.9632 17.1738 26.9607 18.1883 26.9581C18.8135 26.9564 19.4387 26.9549 20.0639 26.9537C20.4962 26.9529 20.9286 26.952 21.361 26.9509L21.4366 26.9506C21.661 26.95 21.8854 26.9494 22.1098 26.9491C22.3411 26.9488 22.5725 26.9484 22.8038 26.9477L23.0568 26.9469L23.2936 26.9469L23.5108 26.9459C24.2288 26.9444 24.7673 26.7113 25.3125 26.2499C25.8127 25.7039 25.9645 24.9599 25.9706 24.24C25.9697 24.1214 25.9688 24.0028 25.9692 23.8842C25.9704 23.6597 25.9707 23.4353 25.9698 23.2108C25.9688 22.9662 25.969 22.7215 25.9695 22.4769C25.9706 21.9968 25.9706 21.5167 25.9696 21.0367C25.9685 20.4728 25.9684 19.9088 25.9686 19.3449C25.969 18.3395 25.9684 17.3341 25.9669 16.3288C25.9654 15.3509 25.9646 14.373 25.9652 13.3951C25.9659 12.325 25.9663 11.2549 25.9654 10.1848L25.9651 9.84211L25.965 9.67175C25.9647 9.27742 25.9646 8.88309 25.9648 8.48877C25.9651 8.00385 25.9651 7.51894 25.964 7.03402L25.9638 6.94525C25.9632 6.72696 25.9626 6.50868 25.9629 6.2904C25.9634 6.0612 25.9636 5.83203 25.9627 5.60284L25.9617 5.35067L25.9619 5.31362C25.9637 4.97203 25.9654 4.6383 25.8975 4.3018C25.7386 3.70201 25.4723 3.17634 24.9424 2.82539L24.8125 2.74995C24.6255 2.64086 24.4922 2.56314 24.3504 2.5071C23.9991 2.36826 23.5953 2.36245 22.1909 2.34225C22.0092 2.33976 21.8275 2.33699 21.6458 2.33405L21.2995 2.32783C21.1158 2.32562 20.9335 2.32095 20.75 2.31245L20.75 2.31243C20.7015 2.20338 20.6764 2.14694 20.6646 2.08785C20.652 2.02445 20.6546 1.958 20.6601 1.82026L20.6576 1.7659ZM2.07492 4.82392L2.16794 4.71479C2.44176 4.3834 2.75531 4.29125 3.17041 4.288L3.32907 4.28974C3.44121 4.28968 3.55335 4.28972 3.6655 4.28986C3.84136 4.29145 4.01716 4.29291 4.19302 4.29272C4.3084 4.29245 4.42378 4.29248 4.53915 4.29284L4.70407 4.29365C4.88812 4.29345 5.06602 4.29916 5.24997 4.31245C5.32064 4.37054 5.35632 4.39987 5.37505 4.43761C5.39415 4.47607 5.39564 4.52328 5.39865 4.6186L5.40118 4.66679C5.41606 4.95187 5.43007 5.22037 5.49997 5.49995H7.12497C7.18244 5.27007 7.20179 5.07136 7.21481 4.83588L7.21481 4.83586C7.21925 4.72387 7.22133 4.67112 7.22628 4.61864C7.23069 4.57191 7.23735 4.5254 7.24996 4.43749L7.24996 4.43748L7.24997 4.43745C7.30775 4.36648 7.33726 4.33025 7.37538 4.31225C7.41515 4.29347 7.46429 4.29453 7.56472 4.29672L7.81388 4.29657C7.96054 4.29595 8.10717 4.29552 8.25383 4.29586C8.36161 4.29614 8.4694 4.29619 8.57719 4.29602C8.87021 4.2953 9.16322 4.29505 9.45624 4.29541C9.76798 4.29582 10.0797 4.2958 10.3915 4.2956C10.9128 4.29527 11.4342 4.29536 11.9556 4.29592C12.5638 4.29661 13.1719 4.29683 13.7801 4.29615C14.3055 4.29556 14.8309 4.29526 15.3563 4.29548L15.4844 4.29557C15.7545 4.29575 16.0247 4.29593 16.2948 4.29566C16.5943 4.29526 16.8937 4.29504 17.1932 4.29561L17.5233 4.29627L17.5262 4.29627C17.6792 4.29588 17.8321 4.29549 17.9851 4.29598L18.1236 4.29657C18.254 4.29479 18.3134 4.29398 18.3726 4.2967C18.4222 4.29898 18.4716 4.30373 18.5625 4.31245C18.6331 4.37054 18.6688 4.39987 18.6876 4.43761C18.7066 4.47607 18.7081 4.52328 18.7112 4.6186L18.7137 4.66676C18.7286 4.95186 18.7426 5.22036 18.8125 5.49995H20.5C20.5574 5.27007 20.5768 5.07136 20.5898 4.83588L20.5898 4.83575C20.5942 4.72384 20.5963 4.6711 20.6013 4.61864C20.6057 4.57194 20.6123 4.52545 20.6249 4.43763L20.625 4.43752L20.625 4.43745C20.7389 4.36215 20.7971 4.32364 20.8612 4.30551C20.9282 4.28653 21.0015 4.28986 21.1516 4.29668L21.3183 4.29804L21.6657 4.29841C21.8489 4.29959 22.032 4.30073 22.2151 4.30087C22.3345 4.30086 22.4538 4.301 22.5732 4.30132L22.7441 4.30195C23.1669 4.30248 23.3717 4.31957 23.7104 4.58466C24.0328 4.90938 24.0911 5.13348 24.0924 5.58611L24.0891 5.78974C24.0887 5.93293 24.0881 6.07612 24.0875 6.21931C24.0847 6.4444 24.082 6.66945 24.0809 6.89455C24.0804 7.04192 24.0798 7.18929 24.0789 7.33666L24.0774 7.54755L24.076 7.75234L24.0735 7.94201C24.0699 8.27076 24.0064 8.467 23.7843 8.71978C23.4312 9.05768 23.0571 9.09153 22.5905 9.09501C22.4706 9.09395 22.3506 9.09294 22.2306 9.09316C22.005 9.09413 21.7795 9.09419 21.5539 9.09309C21.3076 9.09188 21.0614 9.09176 20.8151 9.09204C20.3324 9.09265 19.8497 9.09215 19.367 9.09079C18.8001 9.08919 18.2333 9.08865 17.6665 9.08851C16.6571 9.08831 15.6477 9.08719 14.6383 9.08512C13.655 9.08309 12.6716 9.08151 11.6882 9.08099L11.5043 9.0809L10.7717 9.08053C9.83078 9.08008 8.88989 9.07917 7.949 9.07811L7.09978 9.07718C6.49853 9.07662 5.89729 9.07599 5.29604 9.07475L5.19835 9.07454C4.98206 9.07406 4.76576 9.07358 4.54947 9.07337C4.31855 9.0732 4.08763 9.07297 3.85671 9.07234L3.60517 9.07165L3.36762 9.07168L3.15235 9.07084C2.89787 9.07037 2.71603 9.06659 2.50388 8.91132L2.37497 8.80073L2.24606 8.69257C1.95925 8.38437 1.91591 8.09954 1.91462 7.69398L1.91696 7.50337L1.91794 7.10029C1.91991 6.88933 1.92185 6.67841 1.92245 6.46745C1.9227 6.32928 1.9231 6.19111 1.92369 6.05294L1.92477 5.85493L1.92558 5.66355L1.9274 5.48527C1.92942 5.24121 1.9378 5.03161 2.07492 4.82392ZM2.08859 11.5039L2.19919 11.3749C2.54076 10.9678 2.88171 10.9158 3.39182 10.9121C3.51181 10.9127 3.6318 10.9132 3.75179 10.9128C3.97686 10.9117 4.2019 10.9113 4.42697 10.9117C4.67284 10.9122 4.9187 10.9119 5.16457 10.9113C5.64645 10.91 6.12832 10.9097 6.6102 10.91C7.00571 10.9102 7.40122 10.9104 7.79673 10.9101L7.96679 10.9099L8.30896 10.9096C9.37879 10.9087 10.4486 10.9089 11.5184 10.9096C12.5007 10.9102 13.4829 10.9098 14.4652 10.9083C15.4775 10.9067 16.4898 10.9059 17.502 10.9062C18.0694 10.9065 18.6368 10.9067 19.2042 10.9056C19.6913 10.9047 20.1785 10.9042 20.6657 10.9051L20.7506 10.9053C20.9712 10.9058 21.1918 10.9063 21.4124 10.9057C21.6428 10.9048 21.8733 10.9042 22.1037 10.9051C22.1879 10.9055 22.2721 10.9059 22.3564 10.9061C22.9354 10.9016 23.3577 10.9197 23.8168 11.2924C23.973 11.6389 24.052 11.8142 24.089 11.9979C24.1268 12.186 24.1206 12.383 24.108 12.7817C24.1067 12.9012 24.106 13.0207 24.106 13.1402C24.1069 13.4663 24.1063 13.7925 24.104 14.1186C24.1015 14.4651 24.1006 14.8116 24.1003 15.1582C24.0998 15.7384 24.0983 16.3186 24.0954 16.8988C24.091 17.724 24.0884 18.5491 24.087 19.3743C24.086 20.0194 24.0843 20.6646 24.0824 21.3097L24.0818 21.517C24.0806 21.9191 24.0793 22.3212 24.0774 22.7233L24.0755 23.0901C24.075 23.261 24.0745 23.4318 24.0735 23.6027L24.0725 23.7566C24.0719 24.1814 24.0525 24.3982 23.7414 24.7126L23.625 24.8124C23.3219 25.0858 23.0663 25.092 22.6656 25.095C22.5445 25.094 22.4233 25.0929 22.3022 25.0932C22.0751 25.0941 21.8479 25.0942 21.6208 25.0931C21.3726 25.0919 21.1245 25.0918 20.8763 25.092C20.3901 25.0926 19.9039 25.0921 19.4176 25.0908C18.8466 25.0892 18.2756 25.0886 17.7046 25.0885C16.688 25.0883 15.6714 25.0872 14.6548 25.0851C13.6641 25.0831 12.6733 25.0815 11.6826 25.081L11.4973 25.0809L10.7594 25.0805C9.81193 25.0801 8.86444 25.0792 7.91696 25.0781L7.06162 25.0772C6.4558 25.0766 5.84999 25.076 5.24418 25.0748L5.1484 25.0745C4.92964 25.0741 4.71087 25.0736 4.49211 25.0734C4.25938 25.0732 4.02666 25.073 3.79393 25.0723L3.54074 25.0716L3.30091 25.0717L3.08446 25.0708C2.83452 25.0704 2.71021 25.0656 2.50998 24.9113L2.37888 24.8007L2.24826 24.6926C1.99977 24.4303 1.91636 24.1758 1.91298 23.816L1.9145 23.6738C1.91385 23.5118 1.91349 23.3498 1.91428 23.1877C1.91489 23.0691 1.91517 22.9504 1.91512 22.8317C1.91457 22.5084 1.91471 22.1851 1.91574 21.8617C1.91685 21.518 1.91722 21.1742 1.91729 20.8305C1.91737 20.2552 1.918 19.6799 1.91935 19.1045C1.92116 18.3599 1.92226 17.6152 1.92254 16.8706C1.92278 16.2258 1.92338 15.5811 1.92424 14.9364L1.92496 14.318C1.92523 13.9879 1.92564 13.6579 1.92646 13.3278L1.9274 12.9638C1.92749 12.7942 1.92759 12.6247 1.92813 12.4551L1.92869 12.3023C1.92866 12.2739 1.92843 12.2459 1.9282 12.2182C1.92605 11.9587 1.92415 11.7285 2.08859 11.5039ZM7.94016 13.9664C7.80941 13.9695 7.67882 13.9726 7.54804 13.9733C7.49008 13.9735 7.43237 13.9723 7.37506 13.9711C7.08792 13.9651 6.81075 13.9594 6.56247 14.1249C6.45522 14.2376 6.389 14.3072 6.34824 14.3894C6.28244 14.522 6.28298 14.6876 6.2844 15.1205L6.28903 15.3515C6.2891 15.4185 6.28726 15.4862 6.28541 15.554C6.27702 15.8613 6.26854 16.1721 6.43747 16.4374C6.54306 16.5417 6.60948 16.6073 6.68855 16.6488C6.82258 16.7189 6.99299 16.7197 7.45221 16.7216H7.45222H7.45223H7.45223H7.45224L7.69138 16.7187L7.93125 16.7216L8.16232 16.7206C8.40417 16.7196 8.52665 16.7101 8.73201 16.5799C8.92949 16.3831 9.04846 16.2303 9.08574 15.95L9.08518 15.7614L9.08505 15.5542L9.082 15.3398C9.08218 15.2775 9.08408 15.2147 9.08599 15.1519C9.09489 14.8587 9.10383 14.5641 8.93747 14.3124C8.77129 14.1065 8.68391 14.0107 8.42035 13.9625L8.19089 13.965C8.10731 13.9653 8.02373 13.9658 7.94016 13.9664ZM7.6445 19.2968L7.87875 19.2929L8.10471 19.2919L8.31157 19.2902C8.58016 19.3219 8.74511 19.423 8.92184 19.6249C9.09003 19.894 9.0865 20.1908 9.08288 20.4951C9.08218 20.5538 9.08148 20.6127 9.082 20.6718L9.08749 20.8749C9.09077 21.2843 9.06769 21.5478 8.81247 21.8749C8.56179 22.0422 8.26346 22.0356 7.96954 22.029H7.96951H7.96947H7.96943C7.90923 22.0277 7.84921 22.0264 7.78983 22.0265C7.66487 22.0273 7.53993 22.0304 7.41501 22.0335C6.95684 22.0361 6.80966 22.0369 6.69021 21.9797C6.63369 21.9527 6.58337 21.9127 6.50925 21.8537C6.27698 21.5661 6.28073 21.2312 6.28463 20.8819V20.8818V20.8818V20.8818C6.28541 20.8123 6.2862 20.7422 6.28513 20.6718L6.27646 20.4416C6.2715 20.0463 6.26966 19.8992 6.32477 19.7781C6.35742 19.7063 6.41005 19.6437 6.49387 19.5439C6.76949 19.2764 7.08086 19.2845 7.43061 19.2935H7.43068H7.43075H7.43082C7.50051 19.2953 7.57173 19.2971 7.6445 19.2968ZM18.4542 13.9729C18.3697 13.9753 18.2852 13.977 18.2007 13.978C18.1395 13.9786 18.0803 13.9779 18.0227 13.9772H18.0226H18.0226C17.6976 13.9733 17.4241 13.97 17.1504 14.1967C17.0892 14.272 17.0479 14.3229 17.0201 14.3802C16.9621 14.4997 16.9624 14.6474 16.9634 15.1025C16.966 15.2274 16.9687 15.3523 16.9687 15.4773C16.9685 15.5319 16.967 15.587 16.9655 15.6424C16.9584 15.8996 16.9513 16.1611 17.076 16.3887C17.2682 16.5805 17.4212 16.6784 17.6941 16.7097L17.9089 16.7079L18.1434 16.707L18.3867 16.703C18.4626 16.7027 18.5368 16.7048 18.6094 16.7067C18.9487 16.716 19.2542 16.7243 19.5376 16.4911C19.5983 16.4164 19.6405 16.3645 19.6693 16.3059C19.7347 16.1725 19.73 16.0046 19.7145 15.4541C19.7121 15.3696 19.7104 15.2851 19.7094 15.2006C19.7088 15.1397 19.7095 15.0807 19.7102 15.0233V15.0233V15.0233C19.714 14.698 19.7172 14.4245 19.4912 14.1498L19.4912 14.1498L19.4911 14.1498C19.4164 14.0891 19.3645 14.0468 19.306 14.0181C19.1725 13.9527 19.0046 13.9574 18.4542 13.9729H18.4542ZM13.0234 19.2968L13.2568 19.2929L13.4819 19.2919L13.6876 19.2902C13.9006 19.3155 14.0155 19.3738 14.1875 19.4999C14.4182 19.8069 14.4114 20.1671 14.4046 20.5332C14.4036 20.5846 14.4026 20.636 14.4023 20.6874L14.4061 20.9077C14.4059 21.3082 14.4044 21.5759 14.125 21.8749C13.8799 22.0383 13.6208 22.031 13.3412 22.0231C13.2837 22.0215 13.2254 22.0199 13.1661 22.0197C13.0399 22.0195 12.9138 22.0209 12.7876 22.0225L12.5454 22.0226L12.3239 22.0232C12.102 21.9973 11.9875 21.9496 11.8125 21.8124C11.6406 21.5752 11.6492 21.2697 11.6574 20.9791C11.6593 20.915 11.661 20.8516 11.6609 20.7898C11.6601 20.6648 11.657 20.5399 11.6539 20.415C11.6513 19.9568 11.6505 19.8096 11.7077 19.6902C11.7347 19.6337 11.7747 19.5834 11.8337 19.5092L11.8337 19.5092C12.1219 19.2765 12.4559 19.2848 12.8049 19.2935H12.805C12.8772 19.2953 12.9501 19.2971 13.0234 19.2968ZM13.2315 13.9804L12.9883 13.9843C12.9122 13.9846 12.8378 13.9826 12.765 13.9806C12.426 13.9712 12.1203 13.9628 11.8379 14.1967C11.7767 14.272 11.7354 14.3229 11.7076 14.3803C11.6496 14.4997 11.6499 14.6474 11.6508 15.1025C11.6535 15.2274 11.6562 15.3524 11.6562 15.4773C11.656 15.5319 11.6545 15.5871 11.653 15.6424C11.6459 15.8997 11.6388 16.1611 11.7635 16.3887C11.952 16.5769 12.1067 16.6774 12.3739 16.7107L12.5783 16.7102L12.8026 16.71L13.0351 16.707C13.1033 16.7072 13.1722 16.7094 13.2414 16.7116C13.5486 16.7216 13.8604 16.7317 14.125 16.5624C14.2314 16.4534 14.2975 16.3856 14.3386 16.3051C14.4058 16.1734 14.4059 16.0075 14.4061 15.5699L14.4023 15.3398C14.4027 15.2813 14.404 15.2236 14.4053 15.1666C14.4134 14.8123 14.4208 14.4881 14.1875 14.1874C14.0126 14.0499 13.9025 14.0031 13.6808 13.9777L13.466 13.9794L13.2315 13.9804Z" fill="white"/>
</svg>
