<svg width="26" height="27" viewBox="0 0 26 27" fill="none" xmlns="http://www.w3.org/2000/svg">
<path fill-rule="evenodd" clip-rule="evenodd" d="M20.6577 1.7659C20.6471 1.5306 20.6411 1.39893 20.5001 1.18745C19.9716 0.860302 19.3437 0.853941 18.8126 1.18745C18.7091 1.34158 18.686 1.45111 18.6639 1.6374L18.6616 1.68177L18.6616 1.682L18.6616 1.68207L18.6616 1.68213L18.6616 1.6822C18.6516 1.87171 18.6417 2.06083 18.6251 2.24995C18.5973 2.28338 18.5807 2.30341 18.5594 2.31456C18.5276 2.33122 18.4854 2.3281 18.3804 2.32031L18.1308 2.32038C17.984 2.3207 17.8372 2.32091 17.6903 2.32074C17.5823 2.3206 17.4743 2.32058 17.3663 2.32066C17.0729 2.32102 16.7794 2.32115 16.486 2.32097C16.1738 2.32076 15.8616 2.32077 15.5494 2.32087C15.0275 2.32103 14.5055 2.32099 13.9835 2.32071C13.3744 2.32037 12.7653 2.32026 12.1562 2.3206C11.6301 2.32089 11.1041 2.32104 10.578 2.32093L10.4502 2.32089C10.1796 2.3208 9.90904 2.32071 9.63845 2.32084C9.33849 2.32104 9.03852 2.32115 8.73856 2.32087L8.40817 2.32053L8.40452 2.32054C8.25147 2.32073 8.09842 2.32093 7.94537 2.32068L7.80691 2.32038C7.66294 2.32034 7.51892 2.31865 7.37509 2.31245L7.37509 2.31244L7.37508 2.31242L7.37508 2.31241L7.37507 2.3124C7.32781 2.21188 7.30332 2.15981 7.29156 2.10501C7.27893 2.04612 7.28099 1.98409 7.28525 1.85542L7.28442 1.83964C7.27419 1.64453 7.26543 1.47719 7.19443 1.29316C7.07417 1.1098 7.07417 1.1098 6.75009 0.999947C6.3067 0.957774 5.88302 0.940671 5.50009 1.18745C5.41199 1.35912 5.37503 1.50043 5.35141 1.69233L5.34894 1.7352C5.33903 1.90706 5.32916 2.07851 5.31259 2.24995C5.28412 2.28475 5.26896 2.30328 5.24941 2.31281C5.22713 2.32367 5.19916 2.32284 5.13932 2.32107L4.99297 2.3223L4.82712 2.32425C4.70441 2.32518 4.58172 2.32652 4.45902 2.32822C4.26048 2.33107 4.06193 2.3336 3.86337 2.33588C3.75659 2.33678 3.64909 2.33674 3.54122 2.3367C2.57629 2.33638 1.58229 2.33604 0.812592 2.99995C0.244534 3.59962 0.036109 4.31772 0.0300293 5.13308C0.031093 5.25126 0.0320965 5.36945 0.0318794 5.48763C0.030913 5.7113 0.0308426 5.93494 0.03195 6.15861C0.0331675 6.40238 0.0332804 6.64614 0.0329971 6.88991C0.0323906 7.36815 0.0328891 7.84637 0.0342484 8.32461C0.0358479 8.88609 0.0363925 9.44757 0.0365276 10.0091C0.0367272 11.0096 0.037852 12.0102 0.0399208 13.0108C0.0419509 13.9846 0.0435335 14.9585 0.0440521 15.9323L0.0441437 16.1146L0.0445061 16.8404C0.044959 17.7734 0.0458634 18.7064 0.0469265 19.6393L0.047863 20.4809C0.0484193 21.0762 0.0490518 21.6714 0.0502853 22.2667L0.0504965 22.3614C0.0509776 22.5764 0.0514588 22.7914 0.051672 23.0063C0.0518381 23.2348 0.052072 23.4633 0.0526962 23.6917L0.0533943 23.9416L0.0533581 24.1753L0.054203 24.3898C0.0551348 24.8977 0.159796 25.3524 0.375092 25.8124C0.756504 26.39 1.30325 26.691 1.95224 26.8867L2.12509 26.9374C2.50009 26.9999 3.00009 26.9999 3.29793 26.9999C3.29793 26.9999 3.3637 26.9926 3.50009 26.9999C3.5317 26.9999 3.5872 27.0001 3.64258 27.0004L3.64327 27.0004L3.64465 27.0004C3.69989 27.0007 3.75473 27.0009 3.78534 27.0009L4.00009 26.9999C4.12107 26.9999 4.24204 26.9999 4.36301 26.9995C4.58848 26.9987 4.81395 26.9982 5.03942 26.9979C5.16537 26.9978 5.30163 26.9951 5.43768 26.9924L5.43792 26.9924H5.43795H5.438H5.43804H5.4381C5.56841 26.9898 5.69852 26.9873 5.81916 26.987C6.24619 26.9858 6.67322 26.9848 7.10026 26.984C7.72426 26.9828 8.34826 26.9814 8.97227 26.9798C9.98329 26.9771 10.9943 26.9746 12.0053 26.9724L12.1893 26.972L13.4829 26.9691L14.9611 26.9658L15.1451 26.9654C16.1595 26.9632 17.174 26.9607 18.1884 26.9581C18.8136 26.9564 19.4388 26.9549 20.064 26.9537C20.4964 26.9529 20.9287 26.952 21.3611 26.9509L21.4367 26.9506C21.6611 26.95 21.8855 26.9494 22.1099 26.9491C22.3413 26.9488 22.5726 26.9484 22.8039 26.9477L23.0569 26.9469L23.2937 26.9469L23.5109 26.9459C24.2289 26.9444 24.7674 26.7113 25.3126 26.2499C25.8128 25.7039 25.9646 24.9599 25.9707 24.24C25.9698 24.1214 25.9689 24.0028 25.9693 23.8842C25.9705 23.6597 25.9708 23.4353 25.9699 23.2108C25.969 22.9662 25.9691 22.7215 25.9696 22.4769C25.9707 21.9968 25.9707 21.5167 25.9698 21.0367C25.9687 20.4728 25.9685 19.9088 25.9687 19.3449C25.9692 18.3395 25.9686 17.3341 25.967 16.3288C25.9655 15.3509 25.9647 14.373 25.9653 13.3951C25.9661 12.325 25.9664 11.2549 25.9655 10.1848L25.9653 9.84211L25.9651 9.67175C25.9648 9.27742 25.9647 8.88309 25.9649 8.48877C25.9653 8.00385 25.9652 7.51894 25.9641 7.03402L25.9639 6.94525C25.9633 6.72696 25.9628 6.50868 25.963 6.2904C25.9635 6.0612 25.9637 5.83203 25.9628 5.60284L25.9618 5.35067L25.962 5.31362C25.9638 4.97203 25.9655 4.6383 25.8976 4.3018C25.7387 3.70201 25.4724 3.17634 24.9425 2.82539L24.8126 2.74995C24.6256 2.64086 24.4924 2.56314 24.3506 2.5071C23.9993 2.36826 23.5954 2.36245 22.191 2.34225C22.0093 2.33976 21.8276 2.33699 21.646 2.33405L21.2997 2.32783C21.116 2.32562 20.9337 2.32095 20.7501 2.31245L20.7501 2.31243C20.7016 2.20338 20.6765 2.14694 20.6647 2.08785C20.6521 2.02445 20.6547 1.958 20.6602 1.82026L20.6577 1.7659ZM2.07504 4.82392L2.16806 4.71479C2.44188 4.3834 2.75543 4.29125 3.17054 4.288L3.32919 4.28974C3.44133 4.28968 3.55348 4.28972 3.66562 4.28986C3.84148 4.29145 4.01728 4.29291 4.19315 4.29272C4.30852 4.29245 4.4239 4.29248 4.53927 4.29284L4.70419 4.29365C4.88824 4.29345 5.06615 4.29916 5.25009 4.31245C5.32076 4.37054 5.35644 4.39987 5.37517 4.43761C5.39427 4.47607 5.39576 4.52328 5.39877 4.6186L5.4013 4.66679C5.41618 4.95187 5.4302 5.22037 5.50009 5.49995H7.12509C7.18256 5.27007 7.20191 5.07136 7.21494 4.83588L7.21494 4.83586C7.21937 4.72387 7.22146 4.67112 7.2264 4.61864C7.23081 4.57191 7.23748 4.5254 7.25008 4.43749L7.25009 4.43748L7.25009 4.43745C7.30788 4.36648 7.33738 4.33025 7.3755 4.31225C7.41527 4.29347 7.46442 4.29453 7.56484 4.29672L7.814 4.29657C7.96066 4.29595 8.10729 4.29552 8.25395 4.29586C8.36173 4.29614 8.46952 4.29619 8.57731 4.29602C8.87033 4.2953 9.16335 4.29505 9.45637 4.29541C9.7681 4.29582 10.0798 4.2958 10.3916 4.2956C10.913 4.29527 11.4344 4.29536 11.9557 4.29592C12.5639 4.29661 13.1721 4.29683 13.7802 4.29615C14.3056 4.29556 14.831 4.29526 15.3565 4.29548L15.4845 4.29557C15.7547 4.29575 16.0248 4.29593 16.295 4.29566C16.5944 4.29526 16.8938 4.29504 17.1933 4.29561L17.5234 4.29627L17.5263 4.29627C17.6793 4.29588 17.8322 4.29549 17.9852 4.29598L18.1237 4.29657C18.2541 4.29479 18.3135 4.29398 18.3727 4.2967C18.4223 4.29898 18.4718 4.30373 18.5626 4.31245C18.6333 4.37054 18.6689 4.39987 18.6877 4.43761C18.7068 4.47607 18.7083 4.52328 18.7113 4.6186L18.7138 4.66676C18.7287 4.95186 18.7427 5.22036 18.8126 5.49995H20.5001C20.5576 5.27007 20.5769 5.07136 20.5899 4.83588L20.5899 4.83575C20.5944 4.72384 20.5965 4.6711 20.6014 4.61864C20.6058 4.57194 20.6125 4.52545 20.6251 4.43763L20.6251 4.43752L20.6251 4.43745C20.739 4.36215 20.7973 4.32364 20.8613 4.30551C20.9283 4.28653 21.0016 4.28986 21.1517 4.29668L21.3185 4.29804L21.6659 4.29841C21.849 4.29959 22.0321 4.30073 22.2152 4.30087C22.3346 4.30086 22.4539 4.301 22.5733 4.30132L22.7442 4.30195C23.167 4.30248 23.3719 4.31957 23.7105 4.58466C24.0329 4.90938 24.0912 5.13348 24.0925 5.58611L24.0892 5.78974C24.0888 5.93293 24.0882 6.07612 24.0876 6.21931C24.0849 6.4444 24.0821 6.66945 24.081 6.89455C24.0805 7.04192 24.0799 7.18929 24.079 7.33666L24.0775 7.54755L24.0761 7.75234L24.0737 7.94201C24.07 8.27076 24.0065 8.467 23.7844 8.71978C23.4313 9.05768 23.0572 9.09153 22.5906 9.09501C22.4707 9.09395 22.3507 9.09294 22.2307 9.09316C22.0051 9.09413 21.7796 9.09419 21.554 9.09309C21.3077 9.09188 21.0615 9.09176 20.8152 9.09204C20.3325 9.09265 19.8498 9.09215 19.3671 9.09079C18.8003 9.08919 18.2334 9.08865 17.6666 9.08851C16.6572 9.08831 15.6478 9.08719 14.6385 9.08512C13.6551 9.08309 12.6717 9.08151 11.6883 9.08099L11.5044 9.0809L10.7718 9.08053C9.8309 9.08008 8.89001 9.07917 7.94912 9.07811L7.0999 9.07718C6.49865 9.07662 5.89741 9.07599 5.29616 9.07475L5.19848 9.07454C4.98218 9.07406 4.76588 9.07358 4.54959 9.07337C4.31867 9.0732 4.08775 9.07297 3.85683 9.07234L3.60529 9.07165L3.36774 9.07168L3.15247 9.07084C2.89799 9.07037 2.71615 9.06659 2.504 8.91132L2.37509 8.80073L2.24619 8.69257C1.95938 8.38437 1.91603 8.09954 1.91475 7.69398L1.91708 7.50337L1.91806 7.10029C1.92003 6.88933 1.92197 6.67841 1.92258 6.46745C1.92282 6.32928 1.92323 6.19111 1.92382 6.05294L1.9249 5.85493L1.9257 5.66355L1.92752 5.48527C1.92954 5.24121 1.93793 5.03161 2.07504 4.82392ZM2.08871 11.5039L2.19931 11.3749C2.54088 10.9678 2.88183 10.9158 3.39194 10.9121C3.51193 10.9127 3.63193 10.9132 3.75192 10.9128C3.97698 10.9117 4.20202 10.9113 4.42709 10.9117C4.67296 10.9122 4.91882 10.9119 5.16469 10.9113C5.64657 10.91 6.12844 10.9097 6.61032 10.91C7.00584 10.9102 7.40134 10.9104 7.79685 10.9101L7.96691 10.9099L8.30909 10.9096C9.37891 10.9087 10.4487 10.9089 11.5186 10.9096C12.5008 10.9102 13.4831 10.9098 14.4653 10.9083C15.4776 10.9067 16.4899 10.9059 17.5022 10.9062C18.0695 10.9065 18.6369 10.9067 19.2043 10.9056C19.6915 10.9047 20.1786 10.9042 20.6658 10.9051L20.7507 10.9053C20.9713 10.9058 21.1919 10.9063 21.4125 10.9057C21.643 10.9048 21.8734 10.9042 22.1039 10.9051C22.1881 10.9055 22.2723 10.9059 22.3565 10.9061C22.9355 10.9016 23.3578 10.9197 23.8169 11.2924C23.9731 11.6389 24.0521 11.8142 24.0891 11.9979C24.1269 12.186 24.1207 12.383 24.1081 12.7817C24.1068 12.9012 24.1062 13.0207 24.1061 13.1402C24.107 13.4663 24.1065 13.7925 24.1042 14.1186C24.1017 14.4651 24.1007 14.8116 24.1004 15.1582C24.1 15.7384 24.0984 16.3186 24.0955 16.8988C24.0911 17.724 24.0885 18.5491 24.0872 19.3743C24.0861 20.0194 24.0844 20.6646 24.0825 21.3097L24.0819 21.517C24.0807 21.9191 24.0795 22.3212 24.0775 22.7233L24.0756 23.0901C24.0751 23.261 24.0746 23.4318 24.0736 23.6027L24.0726 23.7566C24.072 24.1814 24.0526 24.3982 23.7415 24.7126L23.6251 24.8124C23.3221 25.0858 23.0664 25.092 22.6657 25.095C22.5446 25.094 22.4235 25.0929 22.3023 25.0932C22.0752 25.0941 21.848 25.0942 21.6209 25.0931C21.3727 25.0919 21.1246 25.0918 20.8764 25.092C20.3902 25.0926 19.904 25.0921 19.4177 25.0908C18.8467 25.0892 18.2757 25.0886 17.7047 25.0885C16.6881 25.0883 15.6715 25.0872 14.6549 25.0851C13.6642 25.0831 12.6735 25.0815 11.6827 25.081L11.4975 25.0809L10.7595 25.0805C9.81205 25.0801 8.86456 25.0792 7.91708 25.0781L7.06174 25.0772C6.45593 25.0766 5.85011 25.076 5.2443 25.0748L5.14852 25.0745C4.92976 25.0741 4.711 25.0736 4.49223 25.0734C4.25951 25.0732 4.02678 25.073 3.79406 25.0723L3.54086 25.0716L3.30103 25.0717L3.08458 25.0708C2.83465 25.0704 2.71033 25.0656 2.5101 24.9113L2.379 24.8007L2.24838 24.6926C1.99989 24.4303 1.91648 24.1758 1.9131 23.816L1.91462 23.6738C1.91397 23.5118 1.91361 23.3498 1.9144 23.1877C1.91502 23.0691 1.91529 22.9504 1.91524 22.8317C1.91469 22.5084 1.91483 22.1851 1.91586 21.8617C1.91697 21.518 1.91734 21.1742 1.91741 20.8305C1.91749 20.2552 1.91812 19.6799 1.91947 19.1045C1.92128 18.3599 1.92238 17.6152 1.92266 16.8706C1.9229 16.2258 1.92351 15.5811 1.92436 14.9364L1.92508 14.318C1.92536 13.9879 1.92576 13.6579 1.92658 13.3278L1.92752 12.9638C1.92761 12.7942 1.92771 12.6247 1.92825 12.4551L1.92881 12.3023C1.92878 12.2739 1.92855 12.2459 1.92832 12.2182C1.92618 11.9587 1.92427 11.7285 2.08871 11.5039ZM7.94028 13.9664C7.80954 13.9695 7.67894 13.9726 7.54816 13.9733C7.4902 13.9735 7.43249 13.9723 7.37518 13.9711C7.08804 13.9651 6.81087 13.9594 6.56259 14.1249C6.45535 14.2376 6.38912 14.3072 6.34836 14.3894C6.28256 14.522 6.2831 14.6876 6.28452 15.1205L6.28916 15.3515C6.28923 15.4185 6.28738 15.4862 6.28553 15.554C6.27714 15.8613 6.26866 16.1721 6.43759 16.4374C6.54319 16.5417 6.6096 16.6073 6.68867 16.6488C6.8227 16.7189 6.99311 16.7197 7.45234 16.7216H7.45234H7.45235H7.45236H7.45236L7.6915 16.7187L7.93137 16.7216L8.16245 16.7206C8.40429 16.7196 8.52677 16.7101 8.73213 16.5799C8.92961 16.3831 9.04858 16.2303 9.08586 15.95L9.0853 15.7614L9.08518 15.5542L9.08212 15.3398C9.0823 15.2775 9.08421 15.2147 9.08611 15.1519C9.09501 14.8587 9.10395 14.5641 8.93759 14.3124C8.77142 14.1065 8.68403 14.0107 8.42047 13.9625L8.19101 13.965C8.10743 13.9653 8.02386 13.9658 7.94028 13.9664ZM7.64462 19.2968L7.87888 19.2929L8.10483 19.2919L8.31169 19.2902C8.58029 19.3219 8.74523 19.423 8.92197 19.6249C9.09015 19.894 9.08662 20.1908 9.083 20.4951C9.0823 20.5538 9.0816 20.6127 9.08212 20.6718L9.08762 20.8749C9.09089 21.2843 9.06781 21.5478 8.81259 21.8749C8.56191 22.0422 8.26358 22.0356 7.96967 22.029H7.96963H7.96959H7.96955C7.90935 22.0277 7.84933 22.0264 7.78995 22.0265C7.66499 22.0273 7.54005 22.0304 7.41513 22.0335C6.95696 22.0361 6.80978 22.0369 6.69034 21.9797C6.63381 21.9527 6.5835 21.9127 6.50937 21.8537C6.2771 21.5661 6.28085 21.2312 6.28476 20.8819V20.8818V20.8818V20.8818C6.28553 20.8123 6.28632 20.7422 6.28525 20.6718L6.27658 20.4416C6.27162 20.0463 6.26978 19.8992 6.32489 19.7781C6.35754 19.7063 6.41017 19.6437 6.49399 19.5439C6.76962 19.2764 7.08098 19.2845 7.43074 19.2935H7.4308H7.43087H7.43094C7.50064 19.2953 7.57186 19.2971 7.64462 19.2968ZM18.4543 13.9729C18.3698 13.9753 18.2853 13.977 18.2008 13.978C18.1397 13.9786 18.0804 13.9779 18.0228 13.9772H18.0228H18.0227C17.6977 13.9733 17.4242 13.97 17.1505 14.1967C17.0893 14.272 17.048 14.3229 17.0202 14.3802C16.9622 14.4997 16.9625 14.6474 16.9635 15.1025C16.9662 15.2274 16.9688 15.3523 16.9688 15.4773C16.9686 15.5319 16.9671 15.587 16.9656 15.6424C16.9585 15.8996 16.9514 16.1611 17.0761 16.3887C17.2683 16.5805 17.4214 16.6784 17.6942 16.7097L17.909 16.7079L18.1435 16.707L18.3868 16.703C18.4627 16.7027 18.5369 16.7048 18.6096 16.7067C18.9488 16.716 19.2543 16.7243 19.5377 16.4911C19.5984 16.4164 19.6407 16.3645 19.6694 16.3059C19.7348 16.1725 19.7301 16.0046 19.7146 15.4541C19.7122 15.3696 19.7105 15.2851 19.7095 15.2006C19.7089 15.1397 19.7096 15.0807 19.7103 15.0233V15.0233V15.0233C19.7141 14.698 19.7173 14.4245 19.4913 14.1498L19.4913 14.1498L19.4913 14.1498C19.4166 14.0891 19.3646 14.0468 19.3061 14.0181C19.1726 13.9527 19.0048 13.9574 18.4543 13.9729H18.4543ZM13.0235 19.2968L13.2569 19.2929L13.482 19.2919L13.6877 19.2902C13.9008 19.3155 14.0157 19.3738 14.1876 19.4999C14.4183 19.8069 14.4115 20.1671 14.4047 20.5332C14.4037 20.5846 14.4027 20.636 14.4024 20.6874L14.4062 20.9077C14.406 21.3082 14.4045 21.5759 14.1251 21.8749C13.88 22.0383 13.6209 22.031 13.3413 22.0231C13.2838 22.0215 13.2255 22.0199 13.1662 22.0197C13.04 22.0195 12.9139 22.0209 12.7877 22.0225L12.5455 22.0226L12.324 22.0232C12.1022 21.9973 11.9877 21.9496 11.8126 21.8124C11.6407 21.5752 11.6494 21.2697 11.6576 20.9791C11.6594 20.915 11.6612 20.8516 11.661 20.7898C11.6603 20.6648 11.6571 20.5399 11.654 20.415C11.6515 19.9568 11.6506 19.8096 11.7078 19.6902C11.7348 19.6337 11.7749 19.5834 11.8338 19.5092L11.8338 19.5092C12.122 19.2765 12.456 19.2848 12.805 19.2935H12.8051C12.8774 19.2953 12.9503 19.2971 13.0235 19.2968ZM13.2317 13.9804L12.9884 13.9843C12.9123 13.9846 12.838 13.9826 12.7651 13.9806C12.4261 13.9712 12.1204 13.9628 11.838 14.1967C11.7768 14.272 11.7355 14.3229 11.7077 14.3803C11.6497 14.4997 11.65 14.6474 11.651 15.1025C11.6537 15.2274 11.6563 15.3524 11.6563 15.4773C11.6561 15.5319 11.6546 15.5871 11.6531 15.6424C11.646 15.8997 11.6389 16.1611 11.7636 16.3887C11.9522 16.5769 12.1068 16.6774 12.374 16.7107L12.5785 16.7102L12.8027 16.71L13.0352 16.707C13.1034 16.7072 13.1724 16.7094 13.2416 16.7116C13.5487 16.7216 13.8605 16.7317 14.1251 16.5624C14.2316 16.4534 14.2977 16.3856 14.3387 16.3051C14.4059 16.1734 14.406 16.0075 14.4062 15.5699L14.4024 15.3398C14.4028 15.2813 14.4041 15.2236 14.4054 15.1666C14.4135 14.8123 14.4209 14.4881 14.1876 14.1874C14.0127 14.0499 13.9026 14.0031 13.681 13.9777L13.4662 13.9794L13.2317 13.9804Z" fill="url(#paint0_linear_1005_253)"/>
<defs>
<linearGradient id="paint0_linear_1005_253" x1="13.0004" y1="0.939697" x2="13.0004" y2="27.0009" gradientUnits="userSpaceOnUse">
<stop stop-color="#F8C294"/>
<stop offset="1" stop-color="#C9742F"/>
</linearGradient>
</defs>
</svg>
