<svg width="24" height="27" viewBox="0 0 24 27" fill="none" xmlns="http://www.w3.org/2000/svg">
<path d="M11.0812 0.818771C10.8687 0.881271 10.5625 1.03127 10.3937 1.14377C10.0375 1.38752 1.3625 8.68752 0.887495 9.15002C0.506245 9.51877 0.156245 10.1688 0.0624953 10.6938C0.0187453 10.9188 0.00624531 13.4813 0.0124953 17.975L0.0312453 24.9063L0.237495 25.325C0.462495 25.7875 0.893745 26.2188 1.3375 26.4375C1.8125 26.6625 2.3 26.7 4.95 26.675C7.34375 26.6563 7.4875 26.65 7.79375 26.5188C8.4625 26.25 8.96875 25.7375 9.1875 25.1063C9.30625 24.7688 9.3125 24.575 9.3125 20.8563C9.3125 17.4375 9.325 16.95 9.4125 16.825L9.50625 16.6875H12H14.4937L14.5875 16.825C14.675 16.95 14.6875 17.4375 14.6875 20.875C14.6937 24.4563 14.7 24.8063 14.8 25.1063C15.0125 25.7125 15.55 26.2563 16.2 26.5188C16.5187 26.65 16.6437 26.6563 19.0562 26.675C21.775 26.7 22.175 26.6688 22.725 26.4C23.1312 26.2063 23.5812 25.725 23.8 25.2625L23.9687 24.9063L23.9875 17.975C23.9937 13.425 23.9812 10.925 23.9375 10.6938C23.8562 10.25 23.575 9.66252 23.2875 9.33127C23.025 9.02502 14.0687 1.45627 13.6062 1.14377C12.9437 0.693771 11.8937 0.562521 11.0812 0.818771ZM12.5062 2.83127C12.6312 2.90627 14.7687 4.69377 17.2625 6.79377C20.4812 9.51252 21.825 10.6875 21.9 10.8375C21.9875 11.0313 22 11.7 22 17.7313C22 23.4 21.9875 24.4313 21.9125 24.5375C21.825 24.65 21.7125 24.6563 19.4062 24.675C17.3 24.6875 16.9625 24.6813 16.8375 24.5938L16.6875 24.5V20.725C16.6875 18.4563 16.6625 16.825 16.625 16.625C16.475 15.8438 16.0187 15.2313 15.325 14.8938L14.9687 14.7188H12H9.03125L8.6625 14.9C7.975 15.2375 7.51875 15.8375 7.38125 16.5938C7.3375 16.8313 7.3125 18.275 7.3125 20.725V24.4938L7.175 24.5875C7.05625 24.675 6.70625 24.6875 4.64375 24.6875C2.33125 24.6875 2.24375 24.6813 2.125 24.5625C2 24.4375 2 24.3563 2 17.7438C2 11.7438 2.0125 11.0313 2.1 10.8375C2.16875 10.6938 3.55 9.48752 6.725 6.81252C9.2125 4.71252 11.35 2.92502 11.475 2.84377C11.775 2.63752 12.1937 2.63127 12.5062 2.83127Z" fill="white"/>
</svg>
