<svg width="28" height="28" viewBox="0 0 28 28" fill="none" xmlns="http://www.w3.org/2000/svg">
<path fill-rule="evenodd" clip-rule="evenodd" d="M15.0292 2.88366C16.2909 1.59538 17.7851 0.831706 19.5249 0.586003C20.0695 0.506315 21.1585 0.55944 21.7628 0.685612C24.0273 1.1571 25.7671 2.47194 26.7234 4.40436C27.248 5.46686 27.4273 6.23053 27.4339 7.35944C27.4406 8.37546 27.3542 8.85358 26.9956 9.80319C26.6105 10.8258 26.2253 11.3969 25.2027 12.4462L24.2863 13.3891L24.2929 20.1028C24.2986 26.4783 24.3139 27.1378 24.0301 27.3131C23.9811 27.3434 23.9231 27.3592 23.8546 27.3876C23.7218 27.4473 23.5359 27.4739 23.4495 27.4473C23.3566 27.4274 21.723 26.511 19.8038 25.4219C17.4464 24.0673 16.2644 23.4298 16.1316 23.4298C16.0054 23.4298 14.8035 24.0805 12.3995 25.4551C10.4472 26.5708 8.7804 27.4805 8.69408 27.4805C8.60775 27.4805 6.78157 26.4778 4.61673 25.2426C1.13704 23.2505 0.692122 22.9782 0.612435 22.7856C0.466341 22.4536 0.479622 3.40827 0.619075 3.0696C0.738607 2.77077 1.11048 2.59811 1.41595 2.69772C1.5222 2.73092 3.16243 3.64733 5.06165 4.72975C7.39251 6.05788 8.5679 6.69538 8.70072 6.69538C8.82689 6.69538 9.78978 6.18405 11.6292 5.12819L14.3652 3.561L15.0292 2.88366ZM25.8667 6.03131C25.3687 4.24499 23.8148 2.711 21.962 2.17975C21.3976 2.01374 19.9167 1.94733 19.3124 2.05358C18.2433 2.23952 17.1941 2.79069 16.3773 3.59421C15.1753 4.7696 14.6706 6.03131 14.7503 7.68483C14.7968 8.76725 15.1089 9.67038 15.7066 10.5005C15.8394 10.6731 16.8952 11.7423 18.064 12.8712C19.8304 14.5844 20.2222 14.9298 20.3749 14.9298C20.5343 14.9298 20.9261 14.5844 22.6859 12.8712C24.8706 10.7594 25.1296 10.4739 25.4749 9.78327C25.88 8.96647 25.9863 8.48835 25.9863 7.42585C25.9863 6.70202 25.9531 6.35671 25.8667 6.03131ZM7.81087 7.97702C7.72454 7.90397 6.49603 7.18014 5.07493 6.37663C3.66048 5.56647 2.43197 4.90241 2.34564 4.90241C2.26595 4.90241 2.15306 4.95553 2.09329 5.02194C1.98704 5.13483 1.9804 5.82546 1.9804 13.5817V22.0153L2.13314 22.1481C2.39212 22.3805 7.43236 25.2227 7.59173 25.2227C7.67142 25.2227 7.78431 25.1696 7.84408 25.1032C7.95033 24.9903 7.95697 24.2997 7.95697 16.5434V8.10983L7.81087 7.97702ZM13.296 7.03405C13.3359 6.44303 13.3226 6.33014 13.2296 6.22389C13.1699 6.15085 13.037 6.09772 12.9441 6.09772C12.7781 6.10436 9.81634 7.75124 9.55072 7.9903C9.4179 8.10983 9.4179 8.21608 9.4179 16.5567C9.4179 24.6516 9.42454 25.0102 9.53744 25.1098C9.60384 25.1762 9.72337 25.2227 9.79642 25.2227C9.94915 25.2227 15.0159 22.354 15.2417 22.1415L15.3878 22.002L15.4011 17.1676L15.4077 12.3333L15.0757 11.9813C13.8937 10.7329 13.1898 8.77389 13.296 7.03405ZM20.1027 16.7692C19.9765 16.7161 19.3058 16.1184 18.6019 15.4344C17.8449 14.6973 17.2804 14.1993 17.2007 14.1993C17.1343 14.1993 17.0281 14.2524 16.9683 14.3188C16.8687 14.4317 16.8554 14.7969 16.8554 18.2301V22.0153L17.0081 22.1481C17.2671 22.3805 22.3074 25.2227 22.4667 25.2227C22.5464 25.2227 22.6593 25.1696 22.7191 25.1032C22.8253 24.9903 22.832 24.5587 22.832 20.229C22.832 15.7133 22.8253 15.4743 22.7124 15.3747C22.646 15.3083 22.5398 15.2618 22.4734 15.2618C22.407 15.2618 21.9886 15.6005 21.5437 16.0188C20.6671 16.8356 20.4812 16.9286 20.1027 16.7692ZM17.8449 6.39655C18.1968 5.63288 18.8476 5.10827 19.7175 4.87585C20.3949 4.68991 21.0456 4.78952 21.7827 5.18132C22.7523 5.69928 23.3765 6.97428 23.1773 8.03678C23.071 8.62116 22.6992 9.33835 22.3273 9.67702C21.7097 10.2548 20.7136 10.5669 19.9699 10.4274C19.0136 10.2481 18.2699 9.71686 17.8847 8.92663C17.4331 8.0235 17.4265 7.28639 17.8449 6.39655ZM21.6964 7.11374C21.6035 6.86139 21.1851 6.43639 20.9261 6.3235C20.6538 6.20397 20.0695 6.21061 19.8105 6.3235C19.5581 6.43639 19.1398 6.86803 19.0534 7.11374C18.9538 7.37936 18.9605 7.92389 19.0734 8.17624C19.1863 8.43522 19.6113 8.85358 19.8636 8.94655C20.1292 9.04616 20.6738 9.03952 20.9261 8.92663C21.1851 8.81374 21.6035 8.38874 21.6964 8.13639C21.7363 8.03014 21.7695 7.80436 21.7695 7.62507C21.7695 7.44577 21.7363 7.21999 21.6964 7.11374Z" fill="url(#paint0_linear_1005_162)"/>
<defs>
<linearGradient id="paint0_linear_1005_162" x1="13.9714" y1="0.54834" x2="13.9714" y2="27.4805" gradientUnits="userSpaceOnUse">
<stop stop-color="#F9C294"/>
<stop offset="1" stop-color="#C8732D"/>
</linearGradient>
</defs>
</svg>
