<svg width="28" height="28" viewBox="0 0 28 28" fill="none" xmlns="http://www.w3.org/2000/svg">
<path d="M10.6641 3.71866C10.7329 3.73657 10.8017 3.75448 10.8726 3.77293C12.078 4.12881 13.0924 4.83603 13.9454 5.7421C14.1438 5.65949 14.2582 5.54326 14.4034 5.38663C15.6787 4.09467 17.4551 3.49192 19.2398 3.47599C19.9041 3.47862 20.5254 3.53451 21.1641 3.71866C21.204 3.73009 21.2439 3.74152 21.285 3.7533C22.4269 4.09344 23.363 4.71122 24.2266 5.52335C24.2589 5.55211 24.2912 5.58088 24.3245 5.61051C25.2315 6.45302 25.7604 7.63351 26.086 8.8046C26.0966 8.84259 26.1072 8.88058 26.1181 8.91972C26.3926 9.9687 26.3768 11.2608 26.086 12.3046C26.0737 12.349 26.0613 12.3934 26.0486 12.4392C25.547 14.1806 24.4946 15.3268 23.237 16.5817C23.1367 16.682 23.0364 16.7823 22.9362 16.8826C22.7211 17.0976 22.506 17.3126 22.2908 17.5275C21.9797 17.8381 21.6687 18.149 21.3578 18.4598C20.8532 18.9643 20.3484 19.4687 19.8436 19.973C19.3536 20.4626 18.8635 20.9522 18.3736 21.4419C18.3434 21.4721 18.3131 21.5024 18.2819 21.5335C18.1302 21.6852 17.9784 21.837 17.8266 21.9887C16.5695 23.2452 15.3122 24.5015 14.0548 25.7577C13.89 25.6838 13.7753 25.6013 13.6476 25.4741C13.6112 25.438 13.5747 25.4019 13.5372 25.3647C13.4976 25.3249 13.458 25.2851 13.4172 25.2442C13.3748 25.202 13.3324 25.1598 13.2887 25.1164C13.1461 24.9746 13.004 24.8323 12.8619 24.6901C12.7599 24.5885 12.658 24.4869 12.556 24.3853C12.3074 24.1376 12.059 23.8896 11.8109 23.6415C11.6088 23.4395 11.4067 23.2376 11.2046 23.0358C10.6306 22.4628 10.0569 21.8896 9.48353 21.3161C9.45261 21.2852 9.42169 21.2543 9.38984 21.2224C9.35888 21.1915 9.32793 21.1605 9.29603 21.1286C8.79561 20.6282 8.29466 20.1282 7.79345 19.6286C7.27806 19.1148 6.76309 18.6006 6.24854 18.0859C5.95997 17.7973 5.67123 17.5089 5.38205 17.2209C5.13551 16.9753 4.88937 16.7294 4.6437 16.483C4.51863 16.3576 4.39334 16.2324 4.26768 16.1076C3.60516 15.4492 2.95974 14.778 2.52937 13.9384C2.50984 13.9008 2.4903 13.8631 2.47017 13.8243C2.22771 13.3383 2.06247 12.8259 1.91414 12.3046C1.89433 12.2366 1.87452 12.1687 1.85411 12.0987C1.43766 10.3399 1.81335 8.35605 2.73122 6.81892C3.02733 6.34629 3.39248 5.92856 3.77351 5.52335C3.80228 5.49107 3.83104 5.45878 3.86067 5.42551C4.62762 4.59987 5.75521 4.00178 6.83601 3.71866C6.87403 3.7081 6.91204 3.69753 6.95121 3.68665C8.15208 3.3622 9.46828 3.38741 10.6641 3.71866ZM5.25008 6.6171C5.20425 6.65792 5.15843 6.69874 5.11122 6.74079C4.09582 7.69175 3.56284 9.03315 3.50136 10.4089C3.47932 11.3174 3.69307 12.16 4.08797 12.9745C4.10363 13.0074 4.11929 13.0402 4.13542 13.0741C4.5146 13.8169 5.12265 14.3875 5.70682 14.9675C5.7969 15.0575 5.88695 15.1476 5.97697 15.2377C6.21983 15.4806 6.4632 15.723 6.70666 15.9653C6.96161 16.2192 7.21609 16.4736 7.47061 16.728C7.89735 17.1543 8.3244 17.5803 8.75167 18.0061C9.19146 18.4444 9.63108 18.8828 10.0705 19.3215C10.0976 19.3486 10.1248 19.3757 10.1527 19.4036C10.289 19.5397 10.4252 19.6757 10.5614 19.8117C11.6889 20.9375 12.8169 22.0626 13.9454 23.1874C14.0996 23.1171 14.2123 23.0437 14.3322 22.9242C14.3641 22.8927 14.396 22.8612 14.4289 22.8287C14.4634 22.7941 14.4979 22.7594 14.5335 22.7237C14.5706 22.6869 14.6077 22.6501 14.6459 22.6121C14.7704 22.4885 14.8945 22.3644 15.0187 22.2403C15.1078 22.1516 15.1969 22.0629 15.286 21.9743C15.5285 21.7331 15.7705 21.4915 16.0125 21.2498C16.1638 21.0986 16.3153 20.9475 16.4667 20.7965C16.8867 20.3776 17.3066 19.9586 17.7261 19.5392C17.7664 19.499 17.7664 19.499 17.8074 19.4579C17.8619 19.4035 17.9163 19.3491 17.9707 19.2947C17.9977 19.2677 18.0247 19.2407 18.0526 19.2129C18.0931 19.1723 18.0931 19.1723 18.1345 19.131C18.5716 18.6941 19.0093 18.2578 19.4473 17.8219C19.8978 17.3734 20.3479 16.9245 20.7974 16.475C21.0494 16.223 21.3017 15.9712 21.5545 15.72C21.7927 15.4832 22.0303 15.2457 22.2674 15.0078C22.354 14.921 22.4409 14.8345 22.5281 14.7482C23.7104 13.577 24.4607 12.272 24.5018 10.577C24.5069 9.11956 23.8989 7.79736 22.9073 6.74699C21.8588 5.73491 20.5246 5.26521 19.0807 5.27886C17.1995 5.33532 15.9658 6.38813 14.6973 7.66642C14.6345 7.72956 14.5716 7.79268 14.5087 7.8558C14.3572 8.00785 14.206 8.16008 14.0548 8.31242C13.8979 8.24143 13.7873 8.16721 13.6677 8.04368C13.6363 8.01151 13.6048 7.97934 13.5724 7.9462C13.5388 7.9114 13.5053 7.87659 13.4707 7.84074C13.3977 7.76631 13.3246 7.6919 13.2515 7.6175C13.1377 7.50099 13.0241 7.38431 12.9108 7.26729C10.8317 5.12465 7.60404 4.43764 5.25008 6.6171Z" fill="#2C2C2C"/>
</svg>
