<svg width="14" height="16" viewBox="0 0 14 16" fill="none" xmlns="http://www.w3.org/2000/svg">
<path fill-rule="evenodd" clip-rule="evenodd" d="M12.6953 3.78123C12.3055 3.11461 11.838 2.55608 11.2586 2.04454C9.79779 0.789169 7.63748 0.153793 5.73679 0.599594L5.66406 0.617172C3.92761 1.01122 2.44959 2.00304 1.46619 3.49571C0.587617 4.86998 0.201996 6.6591 0.547608 8.2672L0.566407 8.35155C0.733002 9.1317 1.00925 9.86913 1.44168 10.542L1.48047 10.6015C1.53745 10.6894 1.59515 10.7755 1.65704 10.8599L1.72656 10.9531C1.9661 11.2757 2.22315 11.5685 2.50845 11.8514L2.5878 11.9296C2.63107 11.9723 2.67429 12.015 2.71738 12.0578C2.89072 12.2306 3.06232 12.4059 3.24518 12.5687C3.41089 12.7185 3.49377 12.7934 3.57443 12.8706C3.65512 12.9479 3.73358 13.0275 3.89056 13.1867C3.94208 13.2388 3.99332 13.2912 4.04459 13.3438C4.23016 13.5339 4.4162 13.7245 4.61774 13.897C4.72272 13.9915 4.77521 14.0387 4.82629 14.0874C4.87744 14.1362 4.92712 14.1864 5.02655 14.287C5.08762 14.3489 5.14807 14.4115 5.20841 14.474C5.71625 14.9999 6.21591 15.5173 7.00659 15.5344C7.61374 15.5162 8.0578 15.2182 8.47492 14.7944C8.5101 14.758 8.54517 14.7214 8.58026 14.6847C8.71655 14.5422 8.8533 14.3993 9.00043 14.2688C9.05902 14.2192 9.10159 14.1832 9.14328 14.1462C9.25427 14.0475 9.35895 13.9418 9.74219 13.5547C9.96066 13.334 10.1736 13.1047 10.4106 12.9036C10.5601 12.7769 10.5601 12.7769 10.9315 12.4053C11.0013 12.3353 11.0711 12.2653 11.1411 12.1955C12.2279 11.1122 13.0811 9.97606 13.4136 8.44719L13.4336 8.35155C13.607 7.53654 13.6149 6.61467 13.4511 5.79698L13.4336 5.71483C13.2953 5.06273 13.0703 4.42229 12.7333 3.84557L12.6953 3.78123ZM5.72281 1.79851L5.80469 1.77733C6.17835 1.6768 6.54379 1.66289 6.92871 1.66112L7.00879 1.66087C7.46094 1.65855 7.89285 1.6895 8.33054 1.81261L8.41943 1.83885C9.29175 2.09471 10.1284 2.50835 10.7614 3.17632L10.832 3.25389C10.8792 3.30449 10.926 3.35527 10.9724 3.40642C11.0058 3.4431 11.0389 3.47996 11.0718 3.51714L11.1484 3.60545C11.7637 4.31364 12.1416 5.17302 12.3254 6.08897C12.575 7.49431 12.2318 8.94011 11.439 10.1147L11.3945 10.1797C11.0319 10.7121 10.5387 11.1889 10.0566 11.6147C9.99487 11.6671 9.95099 11.7044 9.90805 11.7428C9.80219 11.8374 9.70215 11.9386 9.35547 12.289C9.2901 12.3551 9.2247 12.4212 9.15918 12.4871L9.09619 12.5505C8.99808 12.6501 8.90003 12.7488 8.7952 12.8414C8.65555 12.962 8.521 13.0848 8.39121 13.216C8.35947 13.2483 8.32764 13.2806 8.29578 13.3129L8.25598 13.3531C8.18292 13.4268 8.10999 13.5006 8.03711 13.5744C7.96426 13.6485 7.89136 13.7225 7.81824 13.7962L7.74817 13.8668L7.70602 13.91C7.49738 14.1246 7.29019 14.3375 6.98132 14.3768C6.76691 14.3435 6.59384 14.2193 6.44391 14.0683L6.38806 14.0099C6.32584 13.9468 6.26367 13.8837 6.20197 13.82C6.13901 13.755 6.07581 13.6902 6.01245 13.6256L5.88928 13.5002C5.79425 13.4019 5.69937 13.3047 5.59699 13.214C5.52347 13.1506 5.45136 13.0864 5.38052 13.0209C5.31299 12.9584 5.24661 12.8946 5.18127 12.8289L5.11145 12.7582C5.03473 12.681 4.95798 12.6039 4.88138 12.5266L4.82636 12.4711C4.74057 12.3846 4.65479 12.298 4.56882 12.2115L4.49402 12.1363C4.35864 11.9993 4.2225 11.8653 4.077 11.7389C4.02426 11.6933 3.9726 11.6476 3.92154 11.6009C3.89468 11.5763 3.86798 11.5514 3.8414 11.5262L3.75067 11.4363C3.69925 11.3853 3.64789 11.3343 3.59668 11.2831L3.5437 11.23C3.04813 10.7338 2.56101 10.2134 2.23618 9.58488L2.18359 9.47655C1.99536 9.09087 1.8421 8.70671 1.74426 8.28819L1.72656 8.21092C1.58453 7.62212 1.5647 6.96709 1.63675 6.36589L1.65625 6.24217C1.7627 5.54527 2.01138 4.90489 2.35703 4.29387C3.10635 3.03197 4.31009 2.16869 5.72281 1.79851ZM9.27857 7.05956C9.20926 6.41447 8.91061 5.87975 8.42273 5.45775C7.43518 4.65721 6.01138 4.88396 5.20703 5.8203C4.82282 6.32439 4.66779 6.91722 4.73584 7.54601L4.75 7.64842C4.8197 8.17961 5.13089 8.66606 5.53003 9.01292C6.0773 9.43407 6.67218 9.56932 7.35156 9.5117C7.87933 9.4279 8.4122 9.16252 8.74518 8.73552L8.79297 8.66795C9.14124 8.18163 9.31207 7.6613 9.27857 7.05956ZM5.89917 7.43748C5.84213 7.10094 5.93451 6.82878 6.12988 6.55199C6.49951 6.17393 6.91928 6.04204 7.43066 6.20921C7.69034 6.32658 7.89597 6.53905 8.02185 6.79216C8.14627 7.10606 8.15308 7.40495 8.01953 7.71873C7.85703 8.00279 7.61496 8.21715 7.30679 8.32878C7.00479 8.40056 6.71594 8.36449 6.44299 8.22343C6.14548 8.03642 5.97788 7.77385 5.89917 7.43748Z" fill="white"/>
</svg>
