<svg width="17" height="15" viewBox="0 0 17 15" fill="none" xmlns="http://www.w3.org/2000/svg">
<path fill-rule="evenodd" clip-rule="evenodd" d="M3.41041 0.0137661L3.29357 0.0142644C2.97421 0.014894 2.81471 0.218949 2.67264 0.483624L2.62279 0.580161C2.56553 0.688166 2.50854 0.79628 2.45226 0.9048L2.39217 1.02132C2.2868 1.22511 2.1817 1.42902 2.07765 1.63348C1.99091 1.80404 1.90411 1.97452 1.81498 2.14384C1.76095 2.24567 1.70536 2.3476 1.64957 2.4499C1.27036 3.14526 0.881905 3.85755 0.913864 4.66636C0.950111 5.35915 1.18838 6.0349 1.71065 6.51107C1.82135 6.57206 1.92431 6.63384 2.02654 6.70845C2.10093 6.84155 2.1387 6.90912 2.1565 6.9816C2.17485 7.05634 2.17197 7.1363 2.16612 7.29871C2.16474 7.35532 2.16412 7.41195 2.16418 7.46858C2.16528 7.62333 2.16495 7.77796 2.16274 7.9327C2.16038 8.09732 2.15981 8.26188 2.15999 8.42651C2.16045 8.73807 2.15929 9.04959 2.15668 9.36114C2.15195 9.92429 2.15044 10.4874 2.14957 11.0506C2.14931 11.2487 2.14881 11.4469 2.14715 11.645C2.14604 11.7702 2.14517 11.8954 2.1446 12.0205L2.14377 12.1959C2.13649 12.7606 2.2012 13.2285 2.60512 13.6553C2.97334 13.997 3.36793 14.1977 3.87679 14.2028L3.99216 14.2017C4.12493 14.2024 4.25767 14.2028 4.39044 14.2023C4.51257 14.2018 4.63467 14.2018 4.7568 14.2022C4.99648 14.2028 5.23615 14.2028 5.47582 14.2022C5.75736 14.2016 6.03889 14.2015 6.32043 14.2016C6.82246 14.2019 7.32447 14.2015 7.8265 14.2006C8.31467 14.1997 8.80283 14.1993 9.291 14.1996C9.82535 14.2001 10.3597 14.2003 10.894 14.1998L11.0652 14.1996L11.1503 14.1995C11.3471 14.1993 11.544 14.1992 11.7408 14.1994C11.9829 14.1996 12.225 14.1996 12.467 14.1989L12.7659 14.1982C12.9045 14.1984 13.043 14.1987 13.1815 14.1982L13.3075 14.1976C13.8098 14.2005 14.2359 14.0846 14.6091 13.7314C15.0152 13.2936 15.1606 12.8629 15.153 12.2695C15.1522 12.2129 15.1517 12.1564 15.1515 12.0998C15.1513 11.9769 15.151 11.8541 15.1501 11.7312C15.1484 11.5346 15.1474 11.338 15.1473 11.1414C15.1471 10.5804 15.1455 10.0194 15.1419 9.45843C15.1398 9.14465 15.1384 8.8309 15.1386 8.51711C15.1388 8.31894 15.1388 8.12082 15.1364 7.92265C15.1349 7.79753 15.1343 7.67246 15.1346 7.54733C15.1349 7.48915 15.1351 7.43096 15.1351 7.37278C15.1349 7.36178 15.1347 7.3508 15.1344 7.33984C15.1306 7.15888 15.1268 6.98325 15.1739 6.80615C15.2516 6.72 15.3198 6.67399 15.4236 6.62325L15.5058 6.58484C15.8658 6.29205 16.1004 5.88351 16.2432 5.44849C16.5922 4.28242 16.1313 3.38821 15.5868 2.36932C15.4816 2.17292 15.3788 1.97541 15.2769 1.77731C15.1245 1.48081 14.9712 1.18478 14.8151 0.890226L14.7638 0.793721C14.7189 0.70892 14.6738 0.624344 14.6275 0.540296L14.5837 0.461841L14.5393 0.380894L14.4941 0.302778C14.4549 0.234051 14.4549 0.234048 14.3993 0.166768L14.3993 0.166757C14.2283 0.0103436 14.0878 0.00184917 13.8601 0L13.7317 0.00122441C13.5866 0.0007374 13.4415 0.00036336 13.2964 0.00113098C13.1625 0.00184534 13.0286 0.00191715 12.8947 0.00174924C12.6323 0.00139009 12.3699 0.00168844 12.1075 0.00248817C11.7994 0.00342949 11.4912 0.00375313 11.1831 0.00383306C10.6345 0.00395099 10.0859 0.00461598 9.53728 0.00583512C9.00267 0.00703289 8.46806 0.00796756 7.93344 0.0082738L7.83347 0.00832787L7.43524 0.00854128C6.92391 0.00880835 6.41257 0.00934299 5.90124 0.00997055L5.43966 0.0105234C5.11276 0.0108515 4.78587 0.0112224 4.45897 0.0119519L4.40653 0.0120779C4.28873 0.012362 4.17094 0.012646 4.05314 0.0127713C3.92757 0.012869 3.802 0.0130387 3.67642 0.0133758L3.53978 0.0137867L3.41041 0.0137661ZM2.5885 3.06611C2.77232 2.56728 3.08041 2.11426 3.70247 1.19955H13.5878L15.137 4.29794C15.137 4.31838 15.137 4.33868 15.137 4.35886C15.1376 4.73819 15.1381 5.0717 14.9354 5.40205C14.7519 5.64901 14.5154 5.81405 14.2148 5.88401C13.8571 5.92389 13.5619 5.88488 13.2574 5.69036C12.9644 5.46569 12.8428 5.17608 12.7878 4.82125C12.7745 4.71927 12.7588 4.62052 12.7394 4.51925C12.6563 4.35246 12.5781 4.2681 12.4074 4.18728C12.2202 4.16444 12.0433 4.15277 11.8681 4.22978C11.6866 4.37076 11.6202 4.52452 11.59 4.74483C11.5643 4.95015 11.5376 5.14982 11.4415 5.33534C11.2595 5.61536 10.9998 5.80813 10.6738 5.88401C10.3161 5.92389 10.0209 5.88488 9.71639 5.69036C9.42342 5.46569 9.30184 5.17608 9.24682 4.82125C9.23353 4.71927 9.2178 4.62052 9.19841 4.51925C9.11524 4.35246 9.03706 4.2681 8.86644 4.18728C8.67915 4.16444 8.50232 4.15277 8.32713 4.22978C8.14563 4.37076 8.07916 4.52452 8.04895 4.74483C8.02328 4.95015 7.99663 5.14982 7.9005 5.33534C7.71852 5.61536 7.45881 5.80813 7.13282 5.88401C6.7751 5.92389 6.47992 5.88488 6.17538 5.69036C5.88241 5.46569 5.76083 5.17608 5.70581 4.82125C5.69252 4.71927 5.67679 4.62052 5.6574 4.51925C5.57423 4.35246 5.49605 4.2681 5.32543 4.18728C5.13814 4.16444 4.96131 4.15277 4.78612 4.22978C4.60462 4.37076 4.53815 4.52452 4.50794 4.74483C4.48633 4.91772 4.46106 5.08742 4.40272 5.25191C4.26677 5.5143 4.05641 5.7013 3.79007 5.82638C3.49538 5.93111 3.16884 5.93057 2.87485 5.82407C2.56332 5.67723 2.36911 5.45993 2.22705 5.1463C2.34738 4.08915 2.40811 3.55558 2.5885 3.06611ZM3.52917 7.08388C4.05817 7.03694 4.53483 6.85141 4.93122 6.49262C4.94371 6.48025 4.95543 6.46803 4.96663 6.45636C5.04306 6.37669 5.09516 6.32238 5.20137 6.4177C5.53731 6.75044 5.99386 7.01186 6.46888 7.06435C7.17833 7.10358 7.80595 7.03578 8.3754 6.57331C8.47445 6.48623 8.56113 6.41728 8.68201 6.36352C9.03198 6.72013 9.50615 7.00868 10.0099 7.06435C10.7193 7.10358 11.347 7.03578 11.9164 6.57331C12.0155 6.48623 12.1021 6.41728 12.223 6.36352C12.606 6.73605 13.0596 6.99493 13.5951 7.05936L13.675 7.06838L13.8351 7.08737L13.9566 7.10123C13.9583 7.75773 13.9596 8.41423 13.9604 9.07072C13.9607 9.38998 13.9611 9.70924 13.962 10.0285C13.9627 10.3088 13.9633 10.5892 13.9635 10.8695L13.9636 10.9131C13.9636 11.0468 13.9637 11.1804 13.9641 11.314C13.9646 11.4556 13.9651 11.5972 13.965 11.7388L13.965 11.8959C13.9652 11.9324 13.9658 11.969 13.9664 12.0056C13.9714 12.3078 13.9763 12.6063 13.7568 12.8452C13.5509 13.0111 13.2781 13.0157 13.0255 13.0167L12.8954 13.0155C12.7492 13.0155 12.6031 13.0155 12.457 13.0146C12.3263 13.0138 12.1957 13.0135 12.065 13.0133C11.8181 13.0131 11.5712 13.0124 11.3243 13.0113C11.0411 13.01 10.7579 13.0092 10.4747 13.0086C9.86483 13.0075 9.25498 13.0055 8.64513 13.0029C8.6423 12.6138 8.63918 12.2246 8.63562 11.8355L8.63518 11.7889C8.63348 11.6058 8.63177 11.4228 8.63041 11.2398C8.62903 11.0455 8.62757 10.8511 8.62568 10.6568L8.62351 10.4346C8.62289 10.3282 8.62226 10.2219 8.62113 10.1155L8.62 10.0173C8.61875 9.54239 8.46675 9.15064 8.13694 8.80171C7.72673 8.41385 7.29613 8.29783 6.74516 8.30189C6.65612 8.30329 6.56714 8.30463 6.47809 8.30479C6.41898 8.30477 6.35986 8.30495 6.30075 8.30532L6.21573 8.30606C5.75448 8.3075 5.3679 8.47423 5.03409 8.78975C4.59649 9.25258 4.52893 9.73308 4.5284 10.3448C4.52837 10.4173 4.52808 10.4899 4.52753 10.5624C4.52578 10.7532 4.52451 10.9441 4.52394 11.1349C4.52337 11.3324 4.52218 11.5299 4.52073 11.7273C4.51786 12.1115 4.51572 12.4957 4.51436 12.8799L4.51395 13.0029C4.44823 13.0043 4.3825 13.0057 4.31677 13.0065L4.235 13.0075C3.9615 13.014 3.70403 12.9991 3.4913 12.8029C3.40585 12.6247 3.36268 12.5347 3.34101 12.4398C3.31888 12.3428 3.3192 12.2407 3.31984 12.0344C3.32046 11.9596 3.32105 11.8848 3.3211 11.81C3.32093 11.6714 3.32116 11.5327 3.32191 11.394C3.32272 11.2468 3.32306 11.0997 3.3232 10.9525C3.32345 10.6745 3.32416 10.3964 3.32526 10.1184C3.32653 9.79947 3.32731 9.48056 3.32788 9.16164C3.32907 8.47484 3.33102 7.78803 3.33361 7.10123L3.41825 7.09378L3.52917 7.08388ZM5.68591 10.3523C5.68341 10.1012 5.70705 9.89001 5.84413 9.674C6.02423 9.48044 6.25118 9.45697 6.50587 9.45101L6.58415 9.45038C6.84901 9.44815 7.10515 9.47401 7.3071 9.66254C7.40278 9.88755 7.4514 10.0019 7.47311 10.1211C7.49554 10.2443 7.48926 10.3727 7.47649 10.6337C7.47589 10.6983 7.47549 10.763 7.47529 10.8277C7.475 10.9978 7.47435 11.1678 7.47314 11.3379C7.47163 11.5486 7.47085 11.7594 7.47019 11.9702C7.4691 12.2284 7.46856 12.3575 7.46788 12.4866C7.46721 12.6156 7.4664 12.7447 7.46479 13.0029H5.69429C5.69408 12.9528 5.69387 12.9026 5.69367 12.8524C5.69257 12.5882 5.69148 12.3239 5.69088 12.0597L5.69069 11.9695C5.69034 11.7923 5.68998 11.615 5.68922 11.4377C5.6884 11.2652 5.68768 11.0927 5.6874 10.9202L5.68708 10.7228C5.6865 10.6284 5.68593 10.534 5.68588 10.4396L5.68591 10.3523ZM10.8386 8.85172L10.6923 8.85214C10.6636 8.85196 10.6355 8.85151 10.6078 8.85107C10.3679 8.84724 10.1633 8.84397 9.973 9.01928C9.83917 9.16016 9.81403 9.27316 9.80702 9.46191C9.81403 9.65066 9.83917 9.76366 9.973 9.90453C10.0423 9.96839 10.0846 10.0073 10.1341 10.0314C10.2117 10.069 10.3069 10.07 10.5511 10.0726L10.6923 10.0717L10.7231 10.0718C10.8376 10.0721 10.9522 10.0724 11.0667 10.0718C11.1969 10.071 11.3271 10.0705 11.4574 10.0713C11.5593 10.072 11.6612 10.0723 11.7632 10.0721L11.9095 10.0717C11.9381 10.0719 11.9663 10.0723 11.994 10.0727C12.2339 10.0766 12.4385 10.0798 12.6288 9.90453C12.7626 9.76366 12.7877 9.65066 12.7947 9.46191C12.7877 9.27316 12.7626 9.16016 12.6288 9.01928C12.5594 8.95542 12.5172 8.91647 12.4676 8.89245C12.3901 8.85486 12.2949 8.85384 12.0506 8.85124L11.9095 8.85214L11.879 8.85205C11.7643 8.85171 11.6497 8.85137 11.5351 8.85198C11.4048 8.85286 11.2746 8.85334 11.1444 8.8525C11.0425 8.85181 10.9405 8.8515 10.8386 8.85172Z" fill="white"/>
</svg>
