<svg width="14" height="15" viewBox="0 0 14 15" fill="none" xmlns="http://www.w3.org/2000/svg">
<path d="M6.94795 0.000523779C6.99521 0.000790738 7.04248 0.000790738 7.08974 0.000790738C7.46675 0.00132466 7.46675 0.00132465 7.58165 0.0300227C7.60993 0.0320249 7.6382 0.0336267 7.66648 0.0349615C7.74895 0.0401672 7.82934 0.0501781 7.91084 0.0633926C7.9272 0.0659287 7.9272 0.0659287 7.94383 0.0685983C8.02145 0.0815458 8.02145 0.0815458 8.05291 0.0967624C8.08521 0.100767 8.1175 0.103436 8.14993 0.106239C8.17766 0.11011 8.17766 0.11011 8.19152 0.123458C8.21189 0.127196 8.2324 0.130399 8.25306 0.133469C8.50726 0.176316 8.75384 0.265213 8.99543 0.350373C9.01067 0.355712 9.02592 0.361052 9.04172 0.366524C9.1332 0.39936 9.21997 0.436868 9.30646 0.480649C9.33723 0.494932 9.36398 0.504142 9.39738 0.510549C9.39738 0.519358 9.39738 0.528168 9.39738 0.537244C9.40736 0.538846 9.41734 0.540448 9.42774 0.542183C9.46599 0.550459 9.49981 0.562339 9.53599 0.577288C9.53599 0.586098 9.53599 0.594908 9.53599 0.603984C9.54611 0.605452 9.55622 0.606787 9.56662 0.608389C9.60765 0.617866 9.63398 0.631481 9.66933 0.653105C9.71687 0.681669 9.76455 0.708232 9.81403 0.733192C9.97093 0.815015 10.1183 0.91379 10.2645 1.0119C10.2748 1.0187 10.2851 1.02551 10.2958 1.03259C10.3202 1.04914 10.3441 1.06676 10.3676 1.08451C10.3676 1.09332 10.3676 1.10213 10.3676 1.11121C10.3825 1.11614 10.3825 1.11614 10.3977 1.12122C10.4412 1.13964 10.4735 1.16246 10.5105 1.19129C10.5227 1.20064 10.5351 1.20998 10.5477 1.21959C10.5568 1.22787 10.566 1.23614 10.5755 1.24469C10.5755 1.25349 10.5755 1.2623 10.5755 1.27138C10.5868 1.27605 10.5868 1.27605 10.5983 1.28086C10.6397 1.30262 10.6741 1.32944 10.7107 1.35814C10.731 1.37403 10.731 1.37403 10.752 1.39018C10.7624 1.39939 10.7728 1.4086 10.7834 1.41821C10.7834 1.42702 10.7834 1.43583 10.7834 1.4449C10.7926 1.4449 10.8017 1.4449 10.8112 1.4449C10.8336 1.46319 10.8336 1.46319 10.8527 1.48495C10.8527 1.49376 10.8527 1.50257 10.8527 1.51164C10.866 1.51698 10.866 1.51698 10.8796 1.52246C10.9082 1.53834 10.9082 1.53834 10.922 1.57838C10.9312 1.58279 10.9403 1.58719 10.9498 1.59173C10.9589 1.59614 10.9681 1.60054 10.9775 1.60508C10.9821 1.61829 10.9866 1.63151 10.9913 1.64512C11.0005 1.64512 11.0096 1.64512 11.0191 1.64512C11.0415 1.66341 11.0415 1.66341 11.0606 1.68517C11.0606 1.69398 11.0606 1.70279 11.0606 1.71186C11.0698 1.71186 11.0789 1.71186 11.0884 1.71186C11.11 1.73442 11.1306 1.75791 11.1507 1.78194C11.1617 1.79489 11.1728 1.80784 11.184 1.82132C11.2074 1.85122 11.2253 1.87791 11.2408 1.91208C11.25 1.91208 11.2591 1.91208 11.2686 1.91208C11.2934 1.93998 11.3167 1.96774 11.3395 1.99711C11.346 2.00512 11.3525 2.01326 11.3592 2.02154C11.4072 2.082 11.4072 2.082 11.4072 2.1123C11.4163 2.1123 11.4255 2.1123 11.4349 2.1123C11.4604 2.1434 11.4842 2.17464 11.5076 2.20734C11.5185 2.22242 11.5185 2.22242 11.5295 2.23764C11.6223 2.36685 11.7092 2.49953 11.7953 2.63287C11.8032 2.64502 11.8032 2.64502 11.8112 2.6573C11.8792 2.76248 11.9332 2.87353 11.9874 2.98566C12.0113 3.03531 12.0363 3.08443 12.0621 3.13342C12.1134 3.23126 12.1626 3.32897 12.1972 3.43375C12.2034 3.44696 12.2098 3.46018 12.2162 3.47379C12.245 3.53653 12.2617 3.60313 12.2806 3.66907C12.2937 3.71219 12.3088 3.75343 12.3258 3.79521C12.3572 3.87583 12.3795 3.95886 12.3978 4.04295C12.4028 4.06417 12.4082 4.08526 12.4141 4.10622C12.4455 4.21767 12.4643 4.33046 12.4833 4.44445C12.4855 4.45794 12.4877 4.47142 12.4901 4.4853C12.492 4.49745 12.4941 4.50946 12.496 4.52201C12.5016 4.55431 12.5016 4.55431 12.5096 4.58354C12.5188 4.61918 12.5199 4.65428 12.5221 4.69086C12.5264 4.75786 12.5339 4.823 12.5439 4.88947C12.5665 5.05966 12.5616 5.23145 12.5615 5.4027C12.5615 5.45396 12.5617 5.50521 12.5619 5.55647C12.562 5.6451 12.5622 5.73373 12.5622 5.82236C12.5623 5.95064 12.5626 6.07891 12.5629 6.20718C12.5634 6.41568 12.5637 6.62404 12.5641 6.83253C12.5641 6.84495 12.5641 6.85736 12.5641 6.87017C12.5642 6.97122 12.5644 7.07226 12.5645 7.17317C12.5647 7.26154 12.5648 7.3499 12.5649 7.43826C12.5649 7.45695 12.5649 7.45695 12.5649 7.47604C12.5653 7.68387 12.5658 7.89169 12.5662 8.09939C12.5665 8.22739 12.5667 8.35527 12.5667 8.48327C12.5669 8.57084 12.567 8.65853 12.5673 8.74623C12.5674 8.79668 12.5674 8.84714 12.5674 8.89759C12.5674 8.95245 12.5676 9.00731 12.5677 9.06217C12.5677 9.08593 12.5677 9.08593 12.5676 9.11009C12.5684 9.25759 12.5856 9.38786 12.6546 9.52041C12.6962 9.60704 12.6962 9.60704 12.6962 9.65389C12.7053 9.65389 12.7145 9.65389 12.7239 9.65389C12.7358 9.67444 12.7358 9.67444 12.7482 9.69553C12.7676 9.7285 12.7881 9.76027 12.8105 9.79151C12.8348 9.82741 12.8348 9.82741 12.8348 9.85411C12.8439 9.85411 12.8531 9.85411 12.8625 9.85411C12.8804 9.87653 12.8804 9.87653 12.8988 9.90576C12.9051 9.91537 12.9112 9.92498 12.9175 9.93486C12.9318 9.96089 12.9318 9.96089 12.9318 9.98759C12.941 9.98759 12.9501 9.98759 12.9595 9.98759C12.9776 10.0116 12.9776 10.0116 12.9993 10.0467C13.0512 10.1279 13.108 10.2052 13.1662 10.2822C13.2014 10.3293 13.2318 10.3721 13.2506 10.4281C13.2598 10.4281 13.2689 10.4281 13.2783 10.4281C13.2964 10.4521 13.2963 10.4521 13.3181 10.4872C13.3702 10.5689 13.4275 10.6464 13.4862 10.7239C13.4932 10.7331 13.5001 10.7424 13.5073 10.752C13.5135 10.7603 13.5199 10.7687 13.5263 10.7773C13.5425 10.8031 13.5496 10.8256 13.5555 10.8552C13.5647 10.8552 13.5738 10.8552 13.5833 10.8552C13.6018 10.8807 13.6018 10.8807 13.624 10.9169C13.6648 10.9807 13.7094 11.0389 13.7582 11.0971C13.9431 11.3204 14.021 11.5865 13.9952 11.8723C13.9661 12.1103 13.868 12.3352 13.6941 12.5103C13.685 12.5103 13.6759 12.5103 13.6664 12.5103C13.6664 12.5192 13.6664 12.528 13.6664 12.537C13.5905 12.6038 13.5905 12.6038 13.5555 12.6038C13.5555 12.6126 13.5555 12.6214 13.5555 12.6305C13.3113 12.8284 13.0086 12.8501 12.7055 12.8498C12.673 12.8499 12.6405 12.8501 12.6079 12.8502C12.5202 12.8506 12.4323 12.8507 12.3444 12.8507C12.2618 12.8509 12.1792 12.8511 12.0964 12.8514C11.9329 12.8521 11.7693 12.8525 11.6058 12.8527C11.4471 12.853 11.2882 12.8534 11.1295 12.8538C11.1148 12.8539 11.1148 12.8539 11.0997 12.8539C11.0505 12.8541 11.0013 12.8542 10.9523 12.8543C10.5448 12.8557 10.1374 12.8566 9.73004 12.8574C9.72823 12.8663 9.72643 12.8753 9.72463 12.8845C9.72103 12.9024 9.72103 12.9024 9.71728 12.9205C9.71493 12.9321 9.71257 12.9439 9.71021 12.956C9.70065 12.9979 9.68721 13.0377 9.67224 13.0782C9.66392 13.1019 9.6563 13.126 9.64909 13.15C9.596 13.3288 9.51076 13.4862 9.41124 13.6449C9.40196 13.6607 9.39267 13.6766 9.38352 13.6924C9.27375 13.8741 9.27375 13.8741 9.2172 13.9386C9.20805 13.9386 9.1989 13.9386 9.18947 13.9386C9.18684 13.9474 9.18421 13.9563 9.18144 13.9655C9.15344 14.0219 9.11199 14.0614 9.06736 14.1062C9.05808 14.1156 9.04879 14.1249 9.03936 14.1345C8.97935 14.1946 8.91822 14.2535 8.85502 14.3106C8.84781 14.3171 8.84061 14.3238 8.83326 14.3306C8.79279 14.3662 8.75675 14.3896 8.70436 14.4058C8.70436 14.4146 8.70436 14.4234 8.70436 14.4324C8.62715 14.4944 8.54288 14.5463 8.45487 14.5926C8.44544 14.5982 8.43602 14.604 8.42645 14.6097C8.26179 14.7094 8.0823 14.7816 7.90044 14.8462C7.88839 14.8509 7.87633 14.8556 7.86385 14.8605C7.82712 14.8744 7.78984 14.8833 7.75144 14.892C7.73065 14.8971 7.70986 14.9027 7.68935 14.9087C7.04941 15.0962 6.29041 14.9819 5.70785 14.6843C5.64132 14.6495 5.57742 14.6114 5.51519 14.5699C5.49024 14.5535 5.46487 14.5391 5.4384 14.525C5.38725 14.4968 5.34124 14.4672 5.29466 14.4324C5.29466 14.4236 5.29466 14.4148 5.29466 14.4058C5.28524 14.403 5.27581 14.4001 5.26611 14.3973C5.21261 14.3733 5.16881 14.3402 5.12834 14.299C5.12834 14.2902 5.12834 14.2814 5.12834 14.2723C5.12085 14.2693 5.11337 14.2665 5.10561 14.2635C5.06125 14.2392 5.02785 14.2061 4.99237 14.1712C4.98128 14.1606 4.98128 14.1606 4.97019 14.1497C4.80955 13.9913 4.80955 13.9913 4.80955 13.9386C4.8004 13.9386 4.79125 13.9386 4.78182 13.9386C4.71737 13.8642 4.66346 13.7831 4.6155 13.6983C4.60192 13.6768 4.58833 13.6555 4.57475 13.634C4.50753 13.5261 4.45458 13.4151 4.40759 13.2979C4.39775 13.2741 4.38791 13.2505 4.37807 13.2269C4.36947 13.206 4.36074 13.1852 4.35215 13.1644C4.34716 13.1531 4.34217 13.1417 4.33704 13.13C4.32096 13.0887 4.31694 13.0477 4.31057 13.0042C4.30142 12.9818 4.29227 12.9596 4.28285 12.9375C4.27786 12.9108 4.27328 12.8841 4.26899 12.8574C4.25208 12.8573 4.2353 12.8573 4.21798 12.8573C3.81824 12.8569 3.4185 12.8561 3.01877 12.855C2.96956 12.8549 2.92022 12.8547 2.87101 12.8546C2.86117 12.8546 2.85133 12.8545 2.84121 12.8545C2.68279 12.8541 2.52422 12.8538 2.3658 12.8537C2.20293 12.8535 2.04007 12.8531 1.87721 12.8526C1.78587 12.8523 1.69439 12.8521 1.60305 12.8521C1.51698 12.8521 1.43076 12.8519 1.34469 12.8514C1.31323 12.8514 1.28163 12.8513 1.25016 12.8514C1.07843 12.8518 0.925409 12.8455 0.762271 12.7907C0.748965 12.7861 0.735658 12.7817 0.721937 12.7772C0.62117 12.7421 0.532324 12.6875 0.443478 12.6305C0.443478 12.6217 0.443478 12.6129 0.443478 12.6038C0.432806 12.6002 0.422272 12.5966 0.411461 12.5928C0.3757 12.5776 0.356573 12.5661 0.332594 12.537C0.332594 12.5282 0.332594 12.5194 0.332594 12.5103C0.323446 12.5103 0.314298 12.5103 0.304873 12.5103C0.28131 12.4843 0.259549 12.4586 0.238204 12.4311C0.228779 12.419 0.228779 12.419 0.219215 12.4069C0.0340384 12.1672 -0.0266708 11.8835 0.0103368 11.5884C0.0233657 11.5069 0.0473444 11.437 0.0831046 11.3624C0.0925298 11.3392 0.0925297 11.3392 0.102093 11.3157C0.151991 11.2123 0.215334 11.1243 0.290597 11.0367C0.330099 10.9879 0.36281 10.9357 0.395659 10.8826C0.402312 10.8735 0.408966 10.8644 0.415757 10.8552C0.424905 10.8552 0.434053 10.8552 0.443478 10.8552C0.443478 10.842 0.443478 10.8288 0.443478 10.8152C0.452626 10.8152 0.461774 10.8152 0.4712 10.8152C0.474942 10.8053 0.478684 10.7955 0.482427 10.7855C0.498366 10.7495 0.516385 10.7207 0.539532 10.6888C0.547432 10.6778 0.555194 10.6669 0.563372 10.6557C0.57155 10.6443 0.579728 10.6331 0.588182 10.6216C0.604261 10.5992 0.620477 10.5768 0.636556 10.5543C0.64404 10.5441 0.651525 10.5337 0.659287 10.523C0.675088 10.5004 0.689641 10.4771 0.703779 10.4534C0.709323 10.445 0.714868 10.4366 0.720689 10.4281C0.729837 10.4281 0.738985 10.4281 0.74841 10.4281C0.752014 10.4183 0.755756 10.4084 0.759498 10.3984C0.775992 10.3616 0.794704 10.3326 0.818821 10.3001C0.827138 10.2887 0.835454 10.2774 0.844187 10.2658C0.85278 10.254 0.861512 10.2424 0.870521 10.2303C0.887708 10.2072 0.904757 10.1839 0.921944 10.1608C0.930122 10.1496 0.938299 10.1386 0.946754 10.1271C0.974753 10.0878 1.00026 10.0474 1.02507 10.0061C1.02978 10 1.03463 9.99386 1.03948 9.98759C1.04863 9.98759 1.05778 9.98759 1.0672 9.98759C1.07094 9.97784 1.07455 9.96823 1.07843 9.95836C1.09492 9.92085 1.11253 9.88761 1.13651 9.85411C1.14565 9.85411 1.1548 9.85411 1.16423 9.85411C1.16728 9.84503 1.17046 9.83582 1.17379 9.82648C1.19306 9.7847 1.21703 9.75213 1.24573 9.71582C1.26388 9.69233 1.26388 9.69233 1.27511 9.65389C1.28426 9.65389 1.29341 9.65389 1.30283 9.65389C1.30449 9.64414 1.3063 9.63453 1.3081 9.62466C1.31655 9.58755 1.32847 9.55538 1.34358 9.52041C1.34816 9.50933 1.35287 9.49839 1.35772 9.48704C1.36701 9.46542 1.37643 9.44379 1.38586 9.4223C1.43118 9.30684 1.4316 9.18498 1.43118 9.06324C1.43132 9.04589 1.43132 9.02867 1.43146 9.01092C1.4316 8.9634 1.4316 8.91588 1.43146 8.86836C1.43146 8.81697 1.43173 8.76558 1.43187 8.71433C1.43201 8.6253 1.43215 8.5364 1.43215 8.44737C1.43229 8.31856 1.43257 8.18975 1.43284 8.06095C1.4334 7.85165 1.43367 7.64222 1.43409 7.43292C1.43409 7.42038 1.43409 7.40783 1.43409 7.39502C1.43423 7.30612 1.43437 7.21736 1.43451 7.12859C1.43465 7.02728 1.43478 6.92597 1.43492 6.82466C1.43492 6.81211 1.43492 6.7997 1.43492 6.78675C1.43534 6.57826 1.43575 6.36976 1.43617 6.16127C1.43645 6.03286 1.43672 5.90445 1.43672 5.77604C1.43686 5.68795 1.437 5.59985 1.43728 5.51176C1.43742 5.46103 1.43742 5.41031 1.43742 5.35959C1.43714 4.99132 1.43714 4.99132 1.46264 4.83702C1.46985 4.79043 1.47235 4.74465 1.47429 4.69753C1.47969 4.60663 1.49688 4.52054 1.51822 4.43191C1.53028 4.38092 1.54026 4.33126 1.54553 4.27921C1.5508 4.22848 1.56175 4.18243 1.57741 4.13358C1.59917 4.06364 1.61857 3.99356 1.63632 3.92255C1.65198 3.86075 1.66889 3.80108 1.69398 3.74222C1.70922 3.70231 1.72003 3.6616 1.73168 3.62062C1.74983 3.55762 1.77035 3.50209 1.80278 3.44483C1.8165 3.41866 1.82565 3.39317 1.83466 3.36527C1.85822 3.29359 1.88969 3.22539 1.92101 3.15651C1.93737 3.12007 1.95303 3.0835 1.96814 3.04666C1.97728 3.04666 1.98643 3.04666 1.99586 3.04666C1.99683 3.03798 1.99794 3.02931 1.99905 3.02036C2.01388 2.96403 2.04104 2.91665 2.06946 2.86553C2.07556 2.85445 2.08165 2.84337 2.08803 2.83202C2.19711 2.63688 2.31742 2.44947 2.45035 2.26874C2.46615 2.24698 2.48167 2.22496 2.49719 2.2028C2.50579 2.19052 2.51452 2.17824 2.52339 2.16569C2.53434 2.14994 2.53434 2.14994 2.54557 2.13393C2.55167 2.12672 2.55776 2.11964 2.56414 2.1123C2.57329 2.1123 2.58244 2.1123 2.59186 2.1123C2.59699 2.09789 2.59699 2.09789 2.60226 2.08334C2.62152 2.04129 2.64509 2.01032 2.67502 1.97455C2.68473 1.9628 2.69443 1.95106 2.70441 1.93891C2.713 1.92997 2.7216 1.92116 2.73047 1.91208C2.73961 1.91208 2.74876 1.91208 2.75819 1.91208C2.76138 1.90474 2.76456 1.8974 2.76775 1.88992C2.79104 1.84961 2.82084 1.81971 2.85341 1.78608C2.88889 1.74937 2.92313 1.71347 2.95487 1.67382C2.96318 1.66434 2.97136 1.65487 2.97996 1.64512C2.9891 1.64512 2.99825 1.64512 3.00768 1.64512C3.01142 1.63658 3.01502 1.62804 3.0189 1.61923C3.0354 1.59173 3.0354 1.59173 3.07698 1.57838C3.08155 1.56957 3.08613 1.56076 3.09084 1.55169C3.1047 1.52499 3.1047 1.52499 3.14628 1.51164C3.14628 1.50283 3.14628 1.49402 3.14628 1.48495C3.16527 1.46319 3.16527 1.46319 3.18786 1.4449C3.19701 1.4449 3.20616 1.4449 3.21558 1.4449C3.21558 1.43609 3.21558 1.42729 3.21558 1.41821C3.23901 1.39725 3.2634 1.37736 3.28835 1.35814C3.3018 1.34746 3.31538 1.33692 3.32924 1.32597C3.36043 1.30355 3.38801 1.2862 3.42349 1.27138C3.42349 1.26257 3.42349 1.25376 3.42349 1.24469C3.45246 1.22066 3.48143 1.19837 3.51178 1.17621C3.52024 1.16994 3.52856 1.16366 3.53715 1.15726C3.60008 1.11121 3.60008 1.11121 3.6314 1.11121C3.6314 1.1024 3.6314 1.09359 3.6314 1.08451C3.66688 1.05381 3.67964 1.04447 3.72842 1.04447C3.72842 1.03566 3.72842 1.02685 3.72842 1.01777C3.7585 0.994411 3.7585 0.994411 3.80202 0.96598C3.80992 0.960775 3.81783 0.955702 3.826 0.950363C4.02948 0.818219 4.23808 0.691947 4.45693 0.584763C4.4665 0.579958 4.47606 0.575286 4.48604 0.570347C4.52707 0.550592 4.55507 0.537244 4.60164 0.537244C4.60164 0.528435 4.60164 0.519625 4.60164 0.510549C4.61328 0.506144 4.61328 0.506144 4.62506 0.501605C4.69603 0.474643 4.7663 0.446345 4.83644 0.417113C4.91891 0.382809 5.00207 0.352375 5.08676 0.323677C5.10602 0.316736 5.12543 0.309796 5.14483 0.302721C5.15356 0.299651 5.1623 0.296448 5.17131 0.293111C5.18946 0.28657 5.20762 0.279896 5.22564 0.273089C5.30451 0.244124 5.38351 0.221165 5.46612 0.204347C5.50909 0.195404 5.54956 0.184325 5.59086 0.170176C5.65199 0.149487 5.71325 0.138808 5.77715 0.129198C5.80709 0.126261 5.80709 0.126261 5.82137 0.11011C5.84437 0.105572 5.86752 0.101835 5.89067 0.0983642C5.94195 0.0906224 5.99324 0.0824801 6.04424 0.0731366C6.1518 0.0537821 6.25686 0.0389658 6.36636 0.0334932C6.41557 0.0301562 6.46325 0.0236157 6.51204 0.0164078C6.65674 -0.00254624 6.80214 -0.000277097 6.94795 0.000523779ZM6.66686 1.11121C6.63955 1.11241 6.61225 1.11361 6.5848 1.11441C6.45396 1.11841 6.33046 1.13844 6.20281 1.1654C6.16247 1.17394 6.12283 1.18035 6.0818 1.18462C6.03274 1.19076 5.9924 1.20211 5.94611 1.21799C5.91756 1.2244 5.889 1.2304 5.86031 1.23628C5.78713 1.25216 5.71838 1.27285 5.64839 1.29848C5.61762 1.30982 5.58671 1.31997 5.55538 1.32971C5.41844 1.37323 5.28399 1.42088 5.15606 1.48495C5.13762 1.48975 5.11919 1.49429 5.10062 1.4983C5.10062 1.50711 5.10062 1.51592 5.10062 1.52499C5.08551 1.52739 5.08551 1.52739 5.07026 1.52993C5.03187 1.53821 4.99805 1.55009 4.96201 1.56504C4.96201 1.57385 4.96201 1.58266 4.96201 1.59173C4.95189 1.5932 4.94178 1.59467 4.93124 1.59627C4.89105 1.60535 4.8643 1.61829 4.82923 1.63898C4.81745 1.64592 4.80567 1.65273 4.79347 1.65994C4.78127 1.66715 4.76921 1.67436 4.75674 1.68183C4.74468 1.68877 4.73276 1.69585 4.72042 1.70305C4.69672 1.71694 4.67302 1.73095 4.64946 1.74497C4.62714 1.75831 4.60455 1.7714 4.58196 1.78434C4.57184 1.79022 4.56158 1.79609 4.55119 1.8021C4.54218 1.8073 4.53317 1.81237 4.52388 1.81771C4.5175 1.82238 4.51113 1.82706 4.50461 1.83199C4.50461 1.8408 4.50461 1.84961 4.50461 1.85869C4.49699 1.85989 4.48923 1.86109 4.48147 1.86243C4.44044 1.87457 4.41133 1.8942 4.3764 1.91782C4.35783 1.93024 4.35783 1.93024 4.33884 1.94278C4.32956 1.95026 4.32013 1.95773 4.31057 1.96547C4.31057 1.97428 4.31057 1.98309 4.31057 1.99217C4.2992 1.99711 4.2992 1.99711 4.2877 2.00218C4.24833 2.0222 4.21382 2.0461 4.17806 2.07132C4.15824 2.08521 4.15824 2.08521 4.13814 2.09922C4.10987 2.12031 4.08409 2.1394 4.06108 2.16569C4.06108 2.1745 4.06108 2.18331 4.06108 2.19239C4.05332 2.19546 4.04555 2.19853 4.03765 2.20173C3.99732 2.22349 3.96932 2.25059 3.93647 2.28195C3.92358 2.2945 3.91055 2.30691 3.89725 2.31973C3.89059 2.32614 3.88394 2.33268 3.87701 2.33935C3.85663 2.35924 3.83598 2.37899 3.81533 2.39861C3.79593 2.4173 3.79593 2.4173 3.77624 2.43639C3.76446 2.44774 3.75254 2.45921 3.74034 2.47096C3.71151 2.49646 3.71151 2.49646 3.71456 2.52609C3.70542 2.52609 3.69627 2.52609 3.68684 2.52609C3.63639 2.57254 3.63639 2.57254 3.61754 2.63287C3.60839 2.63287 3.59924 2.63287 3.58982 2.63287C3.56778 2.6557 3.56778 2.6557 3.54644 2.68453C3.53895 2.69414 3.53147 2.70375 3.52384 2.71363C3.50416 2.73819 3.50416 2.73819 3.50666 2.76635C3.49751 2.76635 3.48836 2.76635 3.47893 2.76635C3.46064 2.78624 3.46064 2.78624 3.44262 2.8128C3.43541 2.82295 3.42821 2.83309 3.42086 2.84364C3.4131 2.85471 3.40547 2.86579 3.39744 2.87727C3.38953 2.88862 3.38163 2.89983 3.37346 2.91158C3.31677 2.99287 3.26132 3.07496 3.20685 3.15758C3.20006 3.16799 3.19313 3.1784 3.18606 3.18908C3.11773 3.28478 3.11773 3.28478 3.09084 3.3937C3.08169 3.3937 3.07254 3.3937 3.06312 3.3937C3.03484 3.44349 3.02154 3.46925 3.02154 3.52718C3.01239 3.52718 3.00324 3.52718 2.99382 3.52718C2.99049 3.53653 2.98702 3.54587 2.98356 3.55548C2.94101 3.67161 2.94101 3.67161 2.91148 3.72567C2.84786 3.84393 2.80711 3.97033 2.77066 4.09821C2.76027 4.13371 2.74904 4.16815 2.73657 4.20286C2.69124 4.33086 2.66629 4.46234 2.6455 4.59582C2.64093 4.62518 2.63621 4.65455 2.6315 4.68392C2.62956 4.6966 2.62762 4.70941 2.62554 4.72249C2.61958 4.75519 2.61958 4.75519 2.60572 4.79524C2.60378 4.81299 2.60253 4.83088 2.60184 4.8489C2.60101 4.86438 2.60101 4.86438 2.60018 4.88013C2.59976 4.89094 2.59921 4.90175 2.59879 4.91283C2.59782 4.93406 2.59685 4.95528 2.59574 4.9765C2.59533 4.98585 2.59491 4.99532 2.59449 5.00493C2.59186 5.0355 2.59186 5.0355 2.58479 5.07274C2.57842 5.11279 2.5762 5.15003 2.5762 5.1906C2.57606 5.21263 2.57606 5.21263 2.57606 5.23505C2.57606 5.25908 2.57606 5.25908 2.57606 5.28364C2.57606 5.30927 2.57606 5.30927 2.57592 5.33543C2.57578 5.38281 2.57578 5.43033 2.57578 5.47772C2.57578 5.52884 2.57564 5.5801 2.57551 5.63122C2.57537 5.71998 2.57523 5.80875 2.57523 5.89738C2.57509 6.0378 2.57481 6.17822 2.57454 6.31864C2.5744 6.36669 2.57426 6.41488 2.57412 6.46293C2.57412 6.47494 2.57412 6.48696 2.57412 6.49937C2.57384 6.63619 2.57357 6.773 2.57329 6.90969C2.57329 6.92223 2.57329 6.93478 2.57315 6.94759C2.57287 7.14982 2.57259 7.35204 2.57232 7.55439C2.57218 7.76222 2.57176 7.97018 2.57121 8.17814C2.57079 8.30615 2.57065 8.43429 2.57065 8.56229C2.57065 8.65026 2.57038 8.73822 2.5701 8.82618C2.56996 8.87677 2.56982 8.92736 2.56996 8.97795C2.57024 9.22982 2.56317 9.47316 2.48874 9.71636C2.48611 9.72583 2.48347 9.73518 2.4807 9.74492C2.46337 9.80352 2.44009 9.85598 2.41084 9.9099C2.39449 9.94034 2.38063 9.97157 2.36746 10.0033C2.36302 10.014 2.35845 10.0247 2.35388 10.0356C2.34209 10.0683 2.33475 10.1002 2.32851 10.1344C2.31936 10.1344 2.31022 10.1344 2.30079 10.1344C2.29386 10.1487 2.28707 10.163 2.28 10.1778C2.22982 10.274 2.16371 10.3613 2.09954 10.4493C2.09094 10.461 2.09094 10.461 2.08207 10.4731C2.06585 10.4955 2.0495 10.5176 2.03314 10.5399C2.00722 10.5717 2.00722 10.5717 2.00972 10.6016C2.00057 10.6016 1.99142 10.6016 1.982 10.6016C1.982 10.6148 1.982 10.628 1.982 10.6416C1.97285 10.6416 1.9637 10.6416 1.95428 10.6416C1.92212 10.6846 1.92212 10.6846 1.91269 10.7351C1.90355 10.7351 1.8944 10.7351 1.88497 10.7351C1.87513 10.7532 1.87513 10.7532 1.86501 10.7718C1.8269 10.8369 1.77797 10.8943 1.73015 10.9529C1.70091 10.9869 1.70091 10.9869 1.70479 11.0287C1.69564 11.0287 1.68649 11.0287 1.67707 11.0287C1.65489 11.0546 1.65489 11.0546 1.63368 11.0871C1.6262 11.0979 1.61871 11.1088 1.61109 11.1199C1.59155 11.1471 1.59155 11.1471 1.5939 11.1756C1.58475 11.1756 1.57561 11.1756 1.56618 11.1756C1.55884 11.1884 1.55163 11.2013 1.54414 11.2147C1.50727 11.2766 1.46375 11.3333 1.41981 11.3907C1.33222 11.4886 1.33222 11.4886 1.28897 11.6027C1.27982 11.6027 1.27068 11.6027 1.26125 11.6027C1.23963 11.6286 1.23963 11.6286 1.21884 11.661C1.20775 11.6773 1.20775 11.6773 1.19666 11.6939C1.17795 11.7219 1.7454 11.8447 1.73168 11.8723C5.58296 11.8723 9.43425 11.8723 13.4022 11.8723C13.3702 11.8239 12.7708 11.6526 12.7378 11.6027C12.7286 11.6027 12.7195 11.6027 12.71 11.6027C12.7063 11.5928 12.7026 11.5831 12.6987 11.5731C12.6829 11.5371 12.665 11.5082 12.6421 11.4763C12.6344 11.4653 12.6266 11.4544 12.6186 11.4432C12.6104 11.4318 12.6024 11.4206 12.5939 11.4091C12.586 11.3978 12.578 11.3866 12.5696 11.3751C12.5375 11.33 12.5052 11.2859 12.4696 11.2435C12.4467 11.2156 12.4467 11.2156 12.4328 11.1756C12.4237 11.1756 12.4145 11.1756 12.4051 11.1756C12.4017 11.1686 12.3982 11.1617 12.3947 11.1546C12.3719 11.1118 12.3469 11.0704 12.322 11.0287C12.3128 11.0287 12.3037 11.0287 12.2942 11.0287C12.2926 11.0209 12.291 11.013 12.2894 11.005C12.2797 10.9729 12.2671 10.9541 12.2461 10.9277C12.2393 10.919 12.2326 10.9103 12.2256 10.9014C12.2186 10.8924 12.2113 10.8835 12.2041 10.8743C12.19 10.8565 12.176 10.8388 12.1621 10.8209C12.1527 10.8092 12.1527 10.8092 12.1432 10.7971C12.1279 10.7751 12.1279 10.7751 12.114 10.7351C12.1049 10.7351 12.0958 10.7351 12.0863 10.7351C12.082 10.7245 12.0777 10.7141 12.0733 10.7033C12.0596 10.6693 12.0596 10.6693 12.0447 10.6416C12.0356 10.6416 12.0264 10.6416 12.017 10.6416C12.017 10.6284 12.017 10.6152 12.017 10.6016C12.0079 10.6016 11.9987 10.6016 11.9893 10.6016C11.9861 10.5925 11.9831 10.5834 11.9797 10.5741C11.9566 10.5242 11.9251 10.4835 11.8914 10.4397C11.8248 10.3531 11.8248 10.3531 11.8091 10.3079C11.8 10.3079 11.7908 10.3079 11.7814 10.3079C11.7779 10.2991 11.7745 10.2903 11.771 10.2812C11.7492 10.2309 11.7239 10.1827 11.6982 10.1344C11.6891 10.1344 11.6799 10.1344 11.6705 10.1344C11.6688 10.1248 11.6673 10.1153 11.6657 10.1054C11.6561 10.0655 11.6418 10.0328 11.6237 9.99586C11.5786 9.90336 11.5401 9.81513 11.5162 9.71556C11.5061 9.65295 11.5061 9.65295 11.4765 9.6005C11.4724 9.56993 11.4702 9.53936 11.4679 9.50866C11.4634 9.47409 11.4568 9.44246 11.4486 9.40855C11.4311 9.32486 11.4309 9.2429 11.4311 9.15788C11.431 9.14053 11.431 9.12331 11.4309 9.10542C11.4307 9.05777 11.4307 9.01025 11.4307 8.9626C11.4306 8.91108 11.4304 8.85955 11.4303 8.80803C11.43 8.719 11.4299 8.62983 11.4298 8.54067C11.4296 8.41173 11.4293 8.28279 11.4289 8.15385C11.4284 7.94442 11.428 7.73512 11.4275 7.52569C11.4275 7.51315 11.4275 7.50073 11.4275 7.48778C11.4275 7.47524 11.4275 7.46269 11.4274 7.44974C11.4271 7.27195 11.4268 7.09415 11.4264 6.91636C11.4264 6.90381 11.4264 6.89127 11.4263 6.87845C11.4259 6.66969 11.4255 6.46106 11.4249 6.25243C11.4246 6.12376 11.4243 5.99508 11.4241 5.86641C11.4239 5.77831 11.4238 5.69022 11.4237 5.60212C11.4235 5.55127 11.4234 5.50054 11.4234 5.44969C11.4232 5.39456 11.4231 5.33943 11.423 5.28444C11.423 5.26829 11.423 5.25227 11.423 5.23559C11.423 5.2209 11.4228 5.20609 11.4228 5.19087C11.4228 5.17819 11.4228 5.16551 11.4228 5.15243C11.4209 5.11252 11.4142 5.07474 11.4072 5.0355C11.4051 5.00093 11.4034 4.96649 11.4019 4.93205C11.3976 4.84556 11.3875 4.7612 11.3725 4.67591C11.3707 4.6655 11.3689 4.65522 11.367 4.64454C11.3577 4.59155 11.3577 4.59155 11.3379 4.54163C11.3352 4.516 11.3352 4.516 11.3326 4.48984C11.3211 4.38132 11.2893 4.27694 11.2521 4.17416C11.2378 4.13238 11.226 4.09007 11.2139 4.04775C11.1951 3.98328 11.1735 3.92375 11.1437 3.86342C11.1283 3.83058 11.1161 3.79735 11.1039 3.76318C11.0787 3.69457 11.0465 3.63076 11.0116 3.56616C10.9972 3.5384 10.9839 3.51023 10.9712 3.48167C10.9488 3.43161 10.9237 3.38396 10.897 3.33604C10.892 3.32736 10.8871 3.31855 10.882 3.30948C10.8069 3.17587 10.7223 3.04933 10.6339 2.92359C10.6184 2.90157 10.603 2.87941 10.5876 2.85725C10.579 2.8451 10.5704 2.83296 10.5617 2.82054C10.5542 2.81 10.5468 2.79932 10.5391 2.78851C10.5328 2.78117 10.5266 2.77383 10.5201 2.76635C10.5109 2.76635 10.5018 2.76635 10.4924 2.76635C10.4889 2.75901 10.4854 2.7518 10.4818 2.74419C10.461 2.70642 10.4362 2.67318 10.41 2.63861C10.4005 2.62593 10.3909 2.61325 10.3811 2.60017C10.3593 2.57294 10.3393 2.54825 10.3122 2.52609C10.303 2.52609 10.2939 2.52609 10.2845 2.52609C10.2796 2.51488 10.2796 2.51488 10.2746 2.50353C10.252 2.46469 10.224 2.43759 10.1913 2.40609C10.1719 2.3874 10.1719 2.3874 10.1521 2.36832C10.1454 2.36191 10.1386 2.3555 10.1317 2.34883C10.1112 2.32907 10.0907 2.30932 10.0702 2.28943C10.0508 2.27074 10.0508 2.27074 10.0311 2.25179C10.0192 2.24031 10.0072 2.22896 9.99505 2.21722C9.96871 2.18945 9.96871 2.18945 9.93794 2.19239C9.93794 2.18358 9.93794 2.17477 9.93794 2.16569C9.91438 2.14474 9.88999 2.12485 9.86518 2.10563C9.85159 2.09495 9.83815 2.0844 9.82415 2.07346C9.7931 2.05103 9.76538 2.03368 9.73004 2.01887C9.73004 2.01006 9.73004 2.00125 9.73004 1.99217C9.71631 1.99217 9.70259 1.99217 9.68845 1.99217C9.68845 1.98336 9.68845 1.97455 9.68845 1.96547C9.66489 1.94625 9.66489 1.94625 9.63426 1.92717C9.62275 1.91982 9.61139 1.91235 9.59961 1.90461C9.58741 1.89687 9.57535 1.88912 9.56288 1.88112C9.53931 1.8659 9.51575 1.85068 9.49219 1.83547C9.48068 1.82812 9.46932 1.82065 9.45754 1.81304C9.42871 1.79422 9.40043 1.775 9.3723 1.75524C9.33515 1.73002 9.29883 1.70813 9.25878 1.68757C9.23923 1.67756 9.23923 1.67756 9.21927 1.66728C9.19765 1.65634 9.19765 1.65634 9.17561 1.64512C9.15884 1.63645 9.14207 1.62777 9.12544 1.6191C8.9264 1.51592 8.7293 1.42635 8.51571 1.35467C8.48383 1.34346 8.45223 1.33105 8.42119 1.3177C8.36824 1.29661 8.31654 1.28299 8.26082 1.27045C8.17738 1.25136 8.09449 1.232 8.01355 1.20464C7.97113 1.19169 7.93122 1.18382 7.88728 1.17741C7.87203 1.17514 7.85692 1.17287 7.84126 1.1706C7.8256 1.16834 7.80994 1.16607 7.79386 1.16366C7.76267 1.15913 7.73135 1.15459 7.70016 1.14991C7.67951 1.14684 7.67951 1.14684 7.65844 1.14377C7.62323 1.1379 7.62323 1.1379 7.58165 1.12455C7.56308 1.12269 7.54451 1.12148 7.52593 1.12068C7.51512 1.12028 7.50445 1.11975 7.49336 1.11921C7.48213 1.11881 7.47105 1.11828 7.45954 1.11788C7.4375 1.11695 7.41547 1.11588 7.39343 1.11494C7.38359 1.11454 7.37388 1.11414 7.36377 1.11374C7.33216 1.11121 7.33216 1.11121 7.29391 1.1044C7.24055 1.09652 7.18829 1.09586 7.13465 1.09599C7.12384 1.09599 7.11303 1.09599 7.10194 1.09599C7.07935 1.09599 7.05675 1.09599 7.03402 1.09612C6.99965 1.09612 6.96514 1.09612 6.93062 1.09599C6.90859 1.09599 6.88641 1.09599 6.86437 1.09599C6.85411 1.09599 6.84386 1.09599 6.83332 1.09599C6.77636 1.09626 6.72285 1.10119 6.66686 1.11121ZM5.46099 12.844C5.54651 13.0704 5.66432 13.267 5.84909 13.4314C5.86017 13.4426 5.8714 13.4539 5.88291 13.4655C5.96648 13.55 5.96648 13.55 6.07085 13.5915C6.07085 13.6003 6.07085 13.6092 6.07085 13.6182C6.15776 13.6644 6.24508 13.7095 6.3342 13.7517C6.34668 13.7581 6.35915 13.7644 6.37204 13.7711C6.68404 13.9133 7.10984 13.9354 7.43695 13.8318C7.46217 13.823 7.48726 13.814 7.51235 13.8051C7.54007 13.7962 7.56779 13.7872 7.59551 13.7784C7.68367 13.7482 7.76253 13.7111 7.84181 13.6631C7.86995 13.6465 7.89837 13.632 7.92817 13.6182C7.92817 13.6094 7.92817 13.6006 7.92817 13.5915C7.93815 13.5881 7.94826 13.5847 7.95852 13.5811C8.07065 13.534 8.15756 13.4416 8.2331 13.3513C8.24696 13.3349 8.24696 13.3349 8.26123 13.3182C8.28923 13.2849 8.31682 13.2516 8.34398 13.2178C8.35216 13.2074 8.35216 13.2074 8.36061 13.1968C8.40663 13.1374 8.44031 13.0756 8.47219 13.0084C8.47704 12.9983 8.48189 12.9885 8.48688 12.9782C8.50878 12.9328 8.52528 12.893 8.53803 12.844C7.52261 12.844 6.50718 12.844 5.46099 12.844Z" fill="black"/>
</svg>
