<svg width="14" height="14" viewBox="0 0 14 14" fill="none" xmlns="http://www.w3.org/2000/svg">
<path d="M7 13.25C10.4469 13.25 13.25 10.4469 13.25 7C13.25 5.2875 12.5719 3.69062 11.3375 2.5C11.1375 2.30625 10.8188 2.3125 10.6281 2.5125C10.4344 2.7125 10.4406 3.03125 10.6406 3.22188C11.675 4.22188 12.2438 5.5625 12.2438 7C12.2438 9.89062 9.89062 12.2437 7 12.2437C4.10938 12.2437 1.75625 9.89062 1.75625 7C1.75625 4.27813 3.84062 2.03125 6.5 1.77813V3.73438C6.5 4.0125 6.725 4.2375 7.00313 4.2375C7.28125 4.2375 7.50625 4.0125 7.50625 3.73438V1.25312C7.50625 0.975 7.28125 0.75 7.00313 0.75C3.55625 0.75 0.753125 3.55312 0.753125 7C0.753125 10.4469 3.55313 13.25 7 13.25Z" fill="#8F90A6"/>
<path d="M9.50311 4.05935L6.39374 6.29372C5.97186 6.59685 5.87186 7.18435 6.17499 7.60622C6.47811 8.0281 7.06561 8.1281 7.48749 7.82497C7.57499 7.76247 7.64999 7.68747 7.70624 7.60622L9.94061 4.49685C10.0406 4.35622 10.0094 4.15935 9.86873 4.05935C9.75623 3.9781 9.60936 3.98435 9.50311 4.05935Z" fill="#8F90A6"/>
</svg>
