<svg width="22" height="22" viewBox="0 0 22 22" fill="none" xmlns="http://www.w3.org/2000/svg">
<path d="M21.6019 11.3135C21.6003 13.8896 20.6857 16.3806 19.0225 18.339C17.3592 20.2975 15.0562 21.5949 12.5275 21.9981V14.4612H15.0254L15.5009 11.3409H12.5275V9.31748C12.507 9.08476 12.5388 8.85038 12.6205 8.63167C12.7022 8.41297 12.8317 8.21553 12.9994 8.05395C13.1671 7.89237 13.3688 7.77077 13.5895 7.69816C13.8102 7.62554 14.0443 7.60376 14.2745 7.63442H15.6259V4.97935C14.832 4.85023 14.0298 4.77975 13.2257 4.7685C10.7767 4.7685 9.1772 6.2615 9.1772 8.9648V11.3419H6.45188V14.4622H9.1772V22C7.14772 21.678 5.25246 20.7775 3.71585 19.4053C2.17925 18.0331 1.06566 16.2465 0.506961 14.2572C-0.0517391 12.2679 -0.0321507 10.1592 0.563406 8.18079C1.15896 6.20236 2.30554 4.43707 3.86737 3.09398C5.4292 1.75088 7.34086 0.886239 9.37597 0.602429C11.4111 0.318619 13.4844 0.627533 15.3504 1.49259C17.2165 2.35765 18.797 3.74262 19.9049 5.48349C21.0129 7.22436 21.6018 9.24822 21.6019 11.3154V11.3135Z" fill="black"/>
</svg>
