<svg width="23" height="22" viewBox="0 0 23 22" fill="none" xmlns="http://www.w3.org/2000/svg">
<path d="M11.5019 2.4372C14.3727 2.4372 14.713 2.44754 15.8466 2.50017C17.0335 2.4731 18.1873 2.892 19.0803 3.67415C19.8653 4.5651 20.2849 5.71955 20.2553 6.90657C20.307 8.04013 20.3183 8.38039 20.3183 11.2509C20.3183 14.1215 20.3079 14.4617 20.2553 15.5953C20.2798 16.7818 19.8608 17.9347 19.0803 18.8287C18.1893 19.6137 17.0347 20.0333 15.8476 20.0036C14.7139 20.0553 14.3736 20.0666 11.5028 20.0666C8.63202 20.0666 8.29173 20.0562 7.15808 20.0036C5.97204 20.0249 4.82012 19.6063 3.92443 18.8287C3.14169 17.9364 2.72236 16.7828 2.74941 15.5962C2.69771 14.4627 2.68643 14.1224 2.68643 11.2519C2.68643 8.38133 2.69677 8.04107 2.74941 6.90751C2.72665 5.72162 3.14542 4.56958 3.92443 3.67509C4.81598 2.89105 5.97017 2.47156 7.15714 2.50017C8.29079 2.44848 8.63108 2.4372 11.5019 2.4372ZM11.5019 0.5C8.5822 0.5 8.21183 0.512219 7.06877 0.564855C5.39895 0.557077 3.78741 1.17822 2.55483 2.30467C1.42776 3.53607 0.806445 5.14711 0.814861 6.81634C0.76222 7.96494 0.75 8.33151 0.75 11.2509C0.75 14.1704 0.76222 14.5407 0.814861 15.6837C0.808293 17.3526 1.42935 18.9629 2.55483 20.1953C3.78663 21.3218 5.39762 21.943 7.06689 21.9351C8.21371 21.9868 8.58032 22 11.5 22C14.4197 22 14.79 21.9878 15.9331 21.9351C17.6022 21.942 19.2128 21.3209 20.4452 20.1953C21.5725 18.9641 22.1938 17.3529 22.1851 15.6837C22.2368 14.5369 22.25 14.1704 22.25 11.2509C22.25 8.33151 22.2378 7.96118 22.1851 6.81822C22.1922 5.14924 21.571 3.53869 20.4452 2.30655C19.213 1.18062 17.6023 0.559523 15.9331 0.566735C14.7891 0.512219 14.4225 0.5 11.5019 0.5Z" fill="black"/>
<path d="M11.5028 5.73075C10.4108 5.73075 9.34322 6.05456 8.43519 6.66123C7.52716 7.26791 6.81943 8.13019 6.40151 9.13905C5.98359 10.1479 5.87425 11.258 6.0873 12.329C6.30035 13.4 6.82624 14.3838 7.59846 15.156C8.37067 15.9281 9.35453 16.4539 10.4256 16.667C11.4967 16.88 12.6069 16.7707 13.6159 16.3528C14.6248 15.9349 15.4872 15.2273 16.0939 14.3193C16.7006 13.4114 17.0245 12.3439 17.0245 11.2519C17.0245 9.78761 16.4427 8.38328 15.4072 7.34786C14.3717 6.31244 12.9673 5.73075 11.5028 5.73075ZM11.5028 14.8349C10.7939 14.8349 10.101 14.6247 9.51153 14.2309C8.9221 13.8371 8.46269 13.2774 8.19141 12.6225C7.92012 11.9676 7.84914 11.247 7.98744 10.5518C8.12574 9.85655 8.46711 9.21795 8.96838 8.71673C9.46965 8.2155 10.1083 7.87416 10.8036 7.73588C11.4989 7.59759 12.2195 7.66856 12.8745 7.93982C13.5294 8.21109 14.0892 8.67045 14.4831 9.25983C14.8769 9.84921 15.0871 10.5421 15.0871 11.251C15.0871 11.7216 14.9944 12.1877 14.8143 12.6225C14.6342 13.0573 14.3701 13.4524 14.0373 13.7852C13.7045 14.118 13.3094 14.382 12.8745 14.5621C12.4396 14.7422 11.9735 14.8349 11.5028 14.8349Z" fill="black"/>
<path d="M17.2426 6.80319C17.9554 6.80319 18.5332 6.22541 18.5332 5.51267C18.5332 4.79993 17.9554 4.22214 17.2426 4.22214C16.5298 4.22214 15.9519 4.79993 15.9519 5.51267C15.9519 6.22541 16.5298 6.80319 17.2426 6.80319Z" fill="black"/>
</svg>
